<?xml version="1.0" standalone="no"?>
<!DOCTYPE svg PUBLIC "-//W3C//DTD SVG 1.1//EN"
"http://www.w3.org/Graphics/SVG/1.1/DTD/svg11.dtd">

<svg width="100%" height="100%" version="1.1"
xmlns="http://www.w3.org/2000/svg">

	<g transform="translate(10,10)">
		<g transform="scale(5)">
<!-- Route #0: 33 32 22 30 11 -->
<path d="M28 57
L76 0
L74 0
L72 0
L0 7
L0 25
Z" style="fill:none;stroke:#b399c9;stroke-width:1"/>
<!-- Route #1: 15 13 28 31 17 25 6 5 -->
<path d="M28 57
L69 80
L76 81
L75 80
L71 78
L71 77
L71 73
L68 74
L67 72
Z" style="fill:none;stroke:#d9b403;stroke-width:1"/>
<!-- Route #2: 14 9 -->
<path d="M28 57
L92 30
L91 30
Z" style="fill:none;stroke:#c0a83f;stroke-width:1"/>
<!-- Route #3: 12 26 3 27 29 24 16 18 19 1 -->
<path d="M28 57
L73 13
L78 10
L84 22
L85 24
L87 24
L91 25
L90 30
L83 47
L79 47
L76 46
Z" style="fill:none;stroke:#c488af;stroke-width:1"/>
<!-- Route #4: 8 10 23 20 4 21 7 2 -->
<path d="M28 57
L76 7
L80 0
L80 0
L74 6
L73 6
L68 6
L68 6
L67 5
Z" style="fill:none;stroke:#b4e551;stroke-width:1"/>
<!-- Node 0 -->
<circle cx="28" cy="57" r="2" style="fill:red;stroke:black;stroke-width:1" />
<!-- Node 1 -->
<circle cx="76" cy="46" r="2" style="fill:white;stroke:black;stroke-width:1" />
<!-- Node 2 -->
<circle cx="67" cy="5" r="2" style="fill:white;stroke:black;stroke-width:1" />
<!-- Node 3 -->
<circle cx="84" cy="22" r="2" style="fill:white;stroke:black;stroke-width:1" />
<!-- Node 4 -->
<circle cx="73" cy="6" r="2" style="fill:white;stroke:black;stroke-width:1" />
<!-- Node 5 -->
<circle cx="67" cy="72" r="2" style="fill:white;stroke:black;stroke-width:1" />
<!-- Node 6 -->
<circle cx="68" cy="74" r="2" style="fill:white;stroke:black;stroke-width:1" />
<!-- Node 7 -->
<circle cx="68" cy="6" r="2" style="fill:white;stroke:black;stroke-width:1" />
<!-- Node 8 -->
<circle cx="76" cy="7" r="2" style="fill:white;stroke:black;stroke-width:1" />
<!-- Node 9 -->
<circle cx="91" cy="30" r="2" style="fill:white;stroke:black;stroke-width:1" />
<!-- Node 10 -->
<circle cx="80" cy="0" r="2" style="fill:white;stroke:black;stroke-width:1" />
<!-- Node 11 -->
<circle cx="0" cy="25" r="2" style="fill:white;stroke:black;stroke-width:1" />
<!-- Node 12 -->
<circle cx="73" cy="13" r="2" style="fill:white;stroke:black;stroke-width:1" />
<!-- Node 13 -->
<circle cx="76" cy="81" r="2" style="fill:white;stroke:black;stroke-width:1" />
<!-- Node 14 -->
<circle cx="92" cy="30" r="2" style="fill:white;stroke:black;stroke-width:1" />
<!-- Node 15 -->
<circle cx="69" cy="80" r="2" style="fill:white;stroke:black;stroke-width:1" />
<!-- Node 16 -->
<circle cx="90" cy="30" r="2" style="fill:white;stroke:black;stroke-width:1" />
<!-- Node 17 -->
<circle cx="71" cy="77" r="2" style="fill:white;stroke:black;stroke-width:1" />
<!-- Node 18 -->
<circle cx="83" cy="47" r="2" style="fill:white;stroke:black;stroke-width:1" />
<!-- Node 19 -->
<circle cx="79" cy="47" r="2" style="fill:white;stroke:black;stroke-width:1" />
<!-- Node 20 -->
<circle cx="74" cy="6" r="2" style="fill:white;stroke:black;stroke-width:1" />
<!-- Node 21 -->
<circle cx="68" cy="6" r="2" style="fill:white;stroke:black;stroke-width:1" />
<!-- Node 22 -->
<circle cx="72" cy="0" r="2" style="fill:white;stroke:black;stroke-width:1" />
<!-- Node 23 -->
<circle cx="80" cy="0" r="2" style="fill:white;stroke:black;stroke-width:1" />
<!-- Node 24 -->
<circle cx="91" cy="25" r="2" style="fill:white;stroke:black;stroke-width:1" />
<!-- Node 25 -->
<circle cx="71" cy="73" r="2" style="fill:white;stroke:black;stroke-width:1" />
<!-- Node 26 -->
<circle cx="78" cy="10" r="2" style="fill:white;stroke:black;stroke-width:1" />
<!-- Node 27 -->
<circle cx="85" cy="24" r="2" style="fill:white;stroke:black;stroke-width:1" />
<!-- Node 28 -->
<circle cx="75" cy="80" r="2" style="fill:white;stroke:black;stroke-width:1" />
<!-- Node 29 -->
<circle cx="87" cy="24" r="2" style="fill:white;stroke:black;stroke-width:1" />
<!-- Node 30 -->
<circle cx="0" cy="7" r="2" style="fill:white;stroke:black;stroke-width:1" />
<!-- Node 31 -->
<circle cx="71" cy="78" r="2" style="fill:white;stroke:black;stroke-width:1" />
<!-- Node 32 -->
<circle cx="74" cy="0" r="2" style="fill:white;stroke:black;stroke-width:1" />
<!-- Node 33 -->
<circle cx="76" cy="0" r="2" style="fill:white;stroke:black;stroke-width:1" />
		</g>
	</g>
</svg>
