<?xml version="1.0" standalone="no"?>
<!DOCTYPE svg PUBLIC "-//W3C//DTD SVG 1.1//EN"
"http://www.w3.org/Graphics/SVG/1.1/DTD/svg11.dtd">

<svg width="100%" height="100%" version="1.1"
xmlns="http://www.w3.org/2000/svg">

	<g transform="translate(10,10)">
		<g transform="scale(5)">
<!-- Route #0: 30 23 8 12 28 26 -->
<path d="M17 76
L20 26
L21 26
L22 28
L23 27
L26 28
L27 28
Z" style="fill:none;stroke:#c29bdc;stroke-width:1"/>
<!-- Route #1: 21 16 18 25 5 4 29 -->
<path d="M17 76
L5 40
L0 37
L0 36
L1 35
L0 34
L14 32
L17 29
Z" style="fill:none;stroke:#e503ad;stroke-width:1"/>
<!-- Route #2: 7 17 13 6 9 22 -->
<path d="M17 76
L20 26
L19 23
L19 23
L16 22
L17 23
L17 26
Z" style="fill:none;stroke:#a5ca7d;stroke-width:1"/>
<!-- Route #3: 20 27 10 2 -->
<path d="M17 76
L98 32
L99 30
L98 30
L96 29
Z" style="fill:none;stroke:#f919e6;stroke-width:1"/>
<!-- Route #4: 14 15 11 24 19 1 3 -->
<path d="M17 76
L34 7
L31 7
L30 8
L28 8
L26 7
L24 6
L14 19
Z" style="fill:none;stroke:#d15eac;stroke-width:1"/>
<!-- Node 0 -->
<circle cx="17" cy="76" r="2" style="fill:red;stroke:black;stroke-width:1" />
<!-- Node 1 -->
<circle cx="24" cy="6" r="2" style="fill:white;stroke:black;stroke-width:1" />
<!-- Node 2 -->
<circle cx="96" cy="29" r="2" style="fill:white;stroke:black;stroke-width:1" />
<!-- Node 3 -->
<circle cx="14" cy="19" r="2" style="fill:white;stroke:black;stroke-width:1" />
<!-- Node 4 -->
<circle cx="14" cy="32" r="2" style="fill:white;stroke:black;stroke-width:1" />
<!-- Node 5 -->
<circle cx="0" cy="34" r="2" style="fill:white;stroke:black;stroke-width:1" />
<!-- Node 6 -->
<circle cx="16" cy="22" r="2" style="fill:white;stroke:black;stroke-width:1" />
<!-- Node 7 -->
<circle cx="20" cy="26" r="2" style="fill:white;stroke:black;stroke-width:1" />
<!-- Node 8 -->
<circle cx="22" cy="28" r="2" style="fill:white;stroke:black;stroke-width:1" />
<!-- Node 9 -->
<circle cx="17" cy="23" r="2" style="fill:white;stroke:black;stroke-width:1" />
<!-- Node 10 -->
<circle cx="98" cy="30" r="2" style="fill:white;stroke:black;stroke-width:1" />
<!-- Node 11 -->
<circle cx="30" cy="8" r="2" style="fill:white;stroke:black;stroke-width:1" />
<!-- Node 12 -->
<circle cx="23" cy="27" r="2" style="fill:white;stroke:black;stroke-width:1" />
<!-- Node 13 -->
<circle cx="19" cy="23" r="2" style="fill:white;stroke:black;stroke-width:1" />
<!-- Node 14 -->
<circle cx="34" cy="7" r="2" style="fill:white;stroke:black;stroke-width:1" />
<!-- Node 15 -->
<circle cx="31" cy="7" r="2" style="fill:white;stroke:black;stroke-width:1" />
<!-- Node 16 -->
<circle cx="0" cy="37" r="2" style="fill:white;stroke:black;stroke-width:1" />
<!-- Node 17 -->
<circle cx="19" cy="23" r="2" style="fill:white;stroke:black;stroke-width:1" />
<!-- Node 18 -->
<circle cx="0" cy="36" r="2" style="fill:white;stroke:black;stroke-width:1" />
<!-- Node 19 -->
<circle cx="26" cy="7" r="2" style="fill:white;stroke:black;stroke-width:1" />
<!-- Node 20 -->
<circle cx="98" cy="32" r="2" style="fill:white;stroke:black;stroke-width:1" />
<!-- Node 21 -->
<circle cx="5" cy="40" r="2" style="fill:white;stroke:black;stroke-width:1" />
<!-- Node 22 -->
<circle cx="17" cy="26" r="2" style="fill:white;stroke:black;stroke-width:1" />
<!-- Node 23 -->
<circle cx="21" cy="26" r="2" style="fill:white;stroke:black;stroke-width:1" />
<!-- Node 24 -->
<circle cx="28" cy="8" r="2" style="fill:white;stroke:black;stroke-width:1" />
<!-- Node 25 -->
<circle cx="1" cy="35" r="2" style="fill:white;stroke:black;stroke-width:1" />
<!-- Node 26 -->
<circle cx="27" cy="28" r="2" style="fill:white;stroke:black;stroke-width:1" />
<!-- Node 27 -->
<circle cx="99" cy="30" r="2" style="fill:white;stroke:black;stroke-width:1" />
<!-- Node 28 -->
<circle cx="26" cy="28" r="2" style="fill:white;stroke:black;stroke-width:1" />
<!-- Node 29 -->
<circle cx="17" cy="29" r="2" style="fill:white;stroke:black;stroke-width:1" />
<!-- Node 30 -->
<circle cx="20" cy="26" r="2" style="fill:white;stroke:black;stroke-width:1" />
		</g>
	</g>
</svg>
