<?xml version="1.0" standalone="no"?>
<!DOCTYPE svg PUBLIC "-//W3C//DTD SVG 1.1//EN"
"http://www.w3.org/Graphics/SVG/1.1/DTD/svg11.dtd">

<svg width="100%" height="100%" version="1.1"
xmlns="http://www.w3.org/2000/svg"
xmlns:xlink="http://www.w3.org/1999/xlink">

	<g transform="translate(20,20)">
		<g transform="scale(5.000000)">
			<g transform="translate(-7,-1)">
			<title>B-n39-k5</title>
			<desc>(null)</desc>
<!-- Route #0: 29 7 14 8 -->
<path d="M37 21
L25 11
L16 6
L19 15
L21 13
Z" style="fill:none;stroke:#80fae5;stroke-width:1.400000"/>
<!-- Route #1: 5 15 11 12 25 1 3 -->
<path d="M37 21
L85 23
L86 24
L92 24
L92 32
L80 62
L77 57
L39 33
Z" style="fill:none;stroke:#d45b8d;stroke-width:1.400000"/>
<!-- Route #2: 10 13 18 6 20 19 34 9 -->
<path d="M37 21
L12 6
L10 8
L8 2
L7 1
L14 2
L14 2
L16 4
L21 7
Z" style="fill:none;stroke:#8a1db3;stroke-width:1.400000"/>
<!-- Route #3: 32 2 33 21 24 37 23 30 16 22 26 31 -->
<path d="M37 21
L78 64
L97 79
L98 80
L98 82
L98 82
L100 82
L98 86
L104 86
L106 84
L106 80
L82 62
L44 38
Z" style="fill:none;stroke:#a8d160;stroke-width:1.400000"/>
<!-- Route #4: 36 4 35 38 27 17 28 -->
<path d="M37 21
L44 42
L45 47
L46 48
L52 54
L52 52
L48 48
L42 42
Z" style="fill:none;stroke:#b674fc;stroke-width:1.400000"/>
<!-- Node 0 -->
<circle cx="37" cy="21" r="2.800000" style="fill:red;stroke:black;stroke-width:1.400000" />
<!-- Node 1 -->
<circle cx="77" cy="57" r="2.800000" style="fill:white;stroke:black;stroke-width:1.400000" />
<!-- Node 2 -->
<circle cx="97" cy="79" r="2.800000" style="fill:white;stroke:black;stroke-width:1.400000" />
<!-- Node 3 -->
<circle cx="39" cy="33" r="2.800000" style="fill:white;stroke:black;stroke-width:1.400000" />
<!-- Node 4 -->
<circle cx="45" cy="47" r="2.800000" style="fill:white;stroke:black;stroke-width:1.400000" />
<!-- Node 5 -->
<circle cx="85" cy="23" r="2.800000" style="fill:white;stroke:black;stroke-width:1.400000" />
<!-- Node 6 -->
<circle cx="7" cy="1" r="2.800000" style="fill:white;stroke:black;stroke-width:1.400000" />
<!-- Node 7 -->
<circle cx="16" cy="6" r="2.800000" style="fill:white;stroke:black;stroke-width:1.400000" />
<!-- Node 8 -->
<circle cx="21" cy="13" r="2.800000" style="fill:white;stroke:black;stroke-width:1.400000" />
<!-- Node 9 -->
<circle cx="21" cy="7" r="2.800000" style="fill:white;stroke:black;stroke-width:1.400000" />
<!-- Node 10 -->
<circle cx="12" cy="6" r="2.800000" style="fill:white;stroke:black;stroke-width:1.400000" />
<!-- Node 11 -->
<circle cx="92" cy="24" r="2.800000" style="fill:white;stroke:black;stroke-width:1.400000" />
<!-- Node 12 -->
<circle cx="92" cy="32" r="2.800000" style="fill:white;stroke:black;stroke-width:1.400000" />
<!-- Node 13 -->
<circle cx="10" cy="8" r="2.800000" style="fill:white;stroke:black;stroke-width:1.400000" />
<!-- Node 14 -->
<circle cx="19" cy="15" r="2.800000" style="fill:white;stroke:black;stroke-width:1.400000" />
<!-- Node 15 -->
<circle cx="86" cy="24" r="2.800000" style="fill:white;stroke:black;stroke-width:1.400000" />
<!-- Node 16 -->
<circle cx="106" cy="84" r="2.800000" style="fill:white;stroke:black;stroke-width:1.400000" />
<!-- Node 17 -->
<circle cx="48" cy="48" r="2.800000" style="fill:white;stroke:black;stroke-width:1.400000" />
<!-- Node 18 -->
<circle cx="8" cy="2" r="2.800000" style="fill:white;stroke:black;stroke-width:1.400000" />
<!-- Node 19 -->
<circle cx="14" cy="2" r="2.800000" style="fill:white;stroke:black;stroke-width:1.400000" />
<!-- Node 20 -->
<circle cx="14" cy="2" r="2.800000" style="fill:white;stroke:black;stroke-width:1.400000" />
<!-- Node 21 -->
<circle cx="98" cy="82" r="2.800000" style="fill:white;stroke:black;stroke-width:1.400000" />
<!-- Node 22 -->
<circle cx="106" cy="80" r="2.800000" style="fill:white;stroke:black;stroke-width:1.400000" />
<!-- Node 23 -->
<circle cx="98" cy="86" r="2.800000" style="fill:white;stroke:black;stroke-width:1.400000" />
<!-- Node 24 -->
<circle cx="98" cy="82" r="2.800000" style="fill:white;stroke:black;stroke-width:1.400000" />
<!-- Node 25 -->
<circle cx="80" cy="62" r="2.800000" style="fill:white;stroke:black;stroke-width:1.400000" />
<!-- Node 26 -->
<circle cx="82" cy="62" r="2.800000" style="fill:white;stroke:black;stroke-width:1.400000" />
<!-- Node 27 -->
<circle cx="52" cy="52" r="2.800000" style="fill:white;stroke:black;stroke-width:1.400000" />
<!-- Node 28 -->
<circle cx="42" cy="42" r="2.800000" style="fill:white;stroke:black;stroke-width:1.400000" />
<!-- Node 29 -->
<circle cx="25" cy="11" r="2.800000" style="fill:white;stroke:black;stroke-width:1.400000" />
<!-- Node 30 -->
<circle cx="104" cy="86" r="2.800000" style="fill:white;stroke:black;stroke-width:1.400000" />
<!-- Node 31 -->
<circle cx="44" cy="38" r="2.800000" style="fill:white;stroke:black;stroke-width:1.400000" />
<!-- Node 32 -->
<circle cx="78" cy="64" r="2.800000" style="fill:white;stroke:black;stroke-width:1.400000" />
<!-- Node 33 -->
<circle cx="98" cy="80" r="2.800000" style="fill:white;stroke:black;stroke-width:1.400000" />
<!-- Node 34 -->
<circle cx="16" cy="4" r="2.800000" style="fill:white;stroke:black;stroke-width:1.400000" />
<!-- Node 35 -->
<circle cx="46" cy="48" r="2.800000" style="fill:white;stroke:black;stroke-width:1.400000" />
<!-- Node 36 -->
<circle cx="44" cy="42" r="2.800000" style="fill:white;stroke:black;stroke-width:1.400000" />
<!-- Node 37 -->
<circle cx="100" cy="82" r="2.800000" style="fill:white;stroke:black;stroke-width:1.400000" />
<!-- Node 38 -->
<circle cx="52" cy="54" r="2.800000" style="fill:white;stroke:black;stroke-width:1.400000" />
			</g>
		</g>
	</g>
</svg>
