<?xml version="1.0" standalone="no"?>
<!DOCTYPE svg PUBLIC "-//W3C//DTD SVG 1.1//EN"
"http://www.w3.org/Graphics/SVG/1.1/DTD/svg11.dtd">

<svg width="100%" height="100%" version="1.1"
xmlns="http://www.w3.org/2000/svg">

	<g transform="translate(10,10)">
		<g transform="scale(5)">
<!-- Route #0: 9 37 21 18 3 2 35 24 -->
<path d="M37 35
L20 17
L20 16
L20 8
L17 9
L10 7
L18 33
L21 39
L25 35
Z" style="fill:none;stroke:#027d1b;stroke-width:1"/>
<!-- Route #1: 16 20 40 10 23 14 -->
<path d="M37 35
L104 69
L105 69
L106 70
L110 77
L105 76
L71 82
Z" style="fill:none;stroke:#0ccdc2;stroke-width:1"/>
<!-- Route #2: 8 36 12 32 17 29 1 -->
<path d="M37 35
L97 67
L99 71
L102 74
L99 73
L70 85
L70 80
L61 78
Z" style="fill:none;stroke:#099be1;stroke-width:1"/>
<!-- Route #3: 19 5 15 31 22 7 30 13 -->
<path d="M37 35
L56 34
L96 58
L101 60
L102 61
L103 63
L102 67
L100 65
L98 64
Z" style="fill:none;stroke:#0f8bcc;stroke-width:1"/>
<!-- Route #4: 28 11 34 33 6 25 -->
<path d="M37 35
L65 87
L26 101
L26 107
L24 103
L16 97
L28 43
Z" style="fill:none;stroke:#02ccfc;stroke-width:1"/>
<!-- Route #5: 4 39 38 27 26 -->
<path d="M37 35
L48 26
L51 31
L56 30
L56 32
L58 36
Z" style="fill:none;stroke:#0698ff;stroke-width:1"/>
<!-- Node 0 -->
<circle cx="37" cy="35" r="2" style="fill:red;stroke:black;stroke-width:1" />
<!-- Node 1 -->
<circle cx="61" cy="78" r="2" style="fill:white;stroke:black;stroke-width:1" />
<!-- Node 2 -->
<circle cx="18" cy="33" r="2" style="fill:white;stroke:black;stroke-width:1" />
<!-- Node 3 -->
<circle cx="10" cy="7" r="2" style="fill:white;stroke:black;stroke-width:1" />
<!-- Node 4 -->
<circle cx="48" cy="26" r="2" style="fill:white;stroke:black;stroke-width:1" />
<!-- Node 5 -->
<circle cx="96" cy="58" r="2" style="fill:white;stroke:black;stroke-width:1" />
<!-- Node 6 -->
<circle cx="16" cy="97" r="2" style="fill:white;stroke:black;stroke-width:1" />
<!-- Node 7 -->
<circle cx="102" cy="67" r="2" style="fill:white;stroke:black;stroke-width:1" />
<!-- Node 8 -->
<circle cx="97" cy="67" r="2" style="fill:white;stroke:black;stroke-width:1" />
<!-- Node 9 -->
<circle cx="20" cy="17" r="2" style="fill:white;stroke:black;stroke-width:1" />
<!-- Node 10 -->
<circle cx="110" cy="77" r="2" style="fill:white;stroke:black;stroke-width:1" />
<!-- Node 11 -->
<circle cx="26" cy="101" r="2" style="fill:white;stroke:black;stroke-width:1" />
<!-- Node 12 -->
<circle cx="102" cy="74" r="2" style="fill:white;stroke:black;stroke-width:1" />
<!-- Node 13 -->
<circle cx="98" cy="64" r="2" style="fill:white;stroke:black;stroke-width:1" />
<!-- Node 14 -->
<circle cx="71" cy="82" r="2" style="fill:white;stroke:black;stroke-width:1" />
<!-- Node 15 -->
<circle cx="101" cy="60" r="2" style="fill:white;stroke:black;stroke-width:1" />
<!-- Node 16 -->
<circle cx="104" cy="69" r="2" style="fill:white;stroke:black;stroke-width:1" />
<!-- Node 17 -->
<circle cx="70" cy="85" r="2" style="fill:white;stroke:black;stroke-width:1" />
<!-- Node 18 -->
<circle cx="17" cy="9" r="2" style="fill:white;stroke:black;stroke-width:1" />
<!-- Node 19 -->
<circle cx="56" cy="34" r="2" style="fill:white;stroke:black;stroke-width:1" />
<!-- Node 20 -->
<circle cx="105" cy="69" r="2" style="fill:white;stroke:black;stroke-width:1" />
<!-- Node 21 -->
<circle cx="20" cy="8" r="2" style="fill:white;stroke:black;stroke-width:1" />
<!-- Node 22 -->
<circle cx="103" cy="63" r="2" style="fill:white;stroke:black;stroke-width:1" />
<!-- Node 23 -->
<circle cx="105" cy="76" r="2" style="fill:white;stroke:black;stroke-width:1" />
<!-- Node 24 -->
<circle cx="25" cy="35" r="2" style="fill:white;stroke:black;stroke-width:1" />
<!-- Node 25 -->
<circle cx="28" cy="43" r="2" style="fill:white;stroke:black;stroke-width:1" />
<!-- Node 26 -->
<circle cx="58" cy="36" r="2" style="fill:white;stroke:black;stroke-width:1" />
<!-- Node 27 -->
<circle cx="56" cy="32" r="2" style="fill:white;stroke:black;stroke-width:1" />
<!-- Node 28 -->
<circle cx="65" cy="87" r="2" style="fill:white;stroke:black;stroke-width:1" />
<!-- Node 29 -->
<circle cx="70" cy="80" r="2" style="fill:white;stroke:black;stroke-width:1" />
<!-- Node 30 -->
<circle cx="100" cy="65" r="2" style="fill:white;stroke:black;stroke-width:1" />
<!-- Node 31 -->
<circle cx="102" cy="61" r="2" style="fill:white;stroke:black;stroke-width:1" />
<!-- Node 32 -->
<circle cx="99" cy="73" r="2" style="fill:white;stroke:black;stroke-width:1" />
<!-- Node 33 -->
<circle cx="24" cy="103" r="2" style="fill:white;stroke:black;stroke-width:1" />
<!-- Node 34 -->
<circle cx="26" cy="107" r="2" style="fill:white;stroke:black;stroke-width:1" />
<!-- Node 35 -->
<circle cx="21" cy="39" r="2" style="fill:white;stroke:black;stroke-width:1" />
<!-- Node 36 -->
<circle cx="99" cy="71" r="2" style="fill:white;stroke:black;stroke-width:1" />
<!-- Node 37 -->
<circle cx="20" cy="16" r="2" style="fill:white;stroke:black;stroke-width:1" />
<!-- Node 38 -->
<circle cx="56" cy="30" r="2" style="fill:white;stroke:black;stroke-width:1" />
<!-- Node 39 -->
<circle cx="51" cy="31" r="2" style="fill:white;stroke:black;stroke-width:1" />
<!-- Node 40 -->
<circle cx="106" cy="70" r="2" style="fill:white;stroke:black;stroke-width:1" />
		</g>
	</g>
</svg>
