<?xml version="1.0" standalone="no"?>
<!DOCTYPE svg PUBLIC "-//W3C//DTD SVG 1.1//EN"
"http://www.w3.org/Graphics/SVG/1.1/DTD/svg11.dtd">

<svg width="100%" height="100%" version="1.1"
xmlns="http://www.w3.org/2000/svg"
xmlns:xlink="http://www.w3.org/1999/xlink">

	<g transform="translate(20,20)">
		<g transform="scale(3.000000)">
			<g transform="translate(53,99)">
			<title>F-n45-k4</title>
			<desc>(null)</desc>
<!-- Route #0: 10 18 11 12 13 14 17 16 2 1 15 -->
<path d="M0 0
L-13 11
L-20 19
L-20 45
L-9 52
L-8 53
L-8 52
L-10 20
L-2 9
L2 9
L3 5
L2 2
Z" style="fill:none;stroke:#b52cc0;stroke-width:2.333333"/>
<!-- Route #1: 21 20 25 23 22 26 19 8 -->
<path d="M0 0
L-4 -9
L-5 -9
L-30 -18
L-53 -36
L-52 -36
L-51 -35
L-15 -21
L3 -22
Z" style="fill:none;stroke:#a92391;stroke-width:2.333333"/>
<!-- Route #2: 24 37 38 36 34 33 28 29 27 6 5 7 35 4 3 9 -->
<path d="M0 0
L0 0
L21 3
L22 2
L29 4
L45 -1
L63 -17
L84 -99
L82 -6
L81 9
L70 16
L69 16
L64 13
L54 8
L48 17
L48 16
L2 1
Z" style="fill:none;stroke:#ded3ad;stroke-width:2.333333"/>
<!-- Route #3: 43 44 30 41 32 31 40 39 42 -->
<path d="M0 0
L24 -18
L24 -19
L40 -12
L40 -11
L51 -8
L50 -7
L39 -3
L39 -3
L28 -2
Z" style="fill:none;stroke:#6fd58e;stroke-width:2.333333"/>
<!-- Node 0 -->
<circle cx="0" cy="0" r="4.666667" style="fill:red;stroke:black;stroke-width:2.333333" />
<!-- Node 1 -->
<circle cx="3" cy="5" r="4.666667" style="fill:white;stroke:black;stroke-width:2.333333" />
<!-- Node 2 -->
<circle cx="2" cy="9" r="4.666667" style="fill:white;stroke:black;stroke-width:2.333333" />
<!-- Node 3 -->
<circle cx="48" cy="16" r="4.666667" style="fill:white;stroke:black;stroke-width:2.333333" />
<!-- Node 4 -->
<circle cx="48" cy="17" r="4.666667" style="fill:white;stroke:black;stroke-width:2.333333" />
<!-- Node 5 -->
<circle cx="69" cy="16" r="4.666667" style="fill:white;stroke:black;stroke-width:2.333333" />
<!-- Node 6 -->
<circle cx="70" cy="16" r="4.666667" style="fill:white;stroke:black;stroke-width:2.333333" />
<!-- Node 7 -->
<circle cx="64" cy="13" r="4.666667" style="fill:white;stroke:black;stroke-width:2.333333" />
<!-- Node 8 -->
<circle cx="3" cy="-22" r="4.666667" style="fill:white;stroke:black;stroke-width:2.333333" />
<!-- Node 9 -->
<circle cx="2" cy="1" r="4.666667" style="fill:white;stroke:black;stroke-width:2.333333" />
<!-- Node 10 -->
<circle cx="-13" cy="11" r="4.666667" style="fill:white;stroke:black;stroke-width:2.333333" />
<!-- Node 11 -->
<circle cx="-20" cy="45" r="4.666667" style="fill:white;stroke:black;stroke-width:2.333333" />
<!-- Node 12 -->
<circle cx="-9" cy="52" r="4.666667" style="fill:white;stroke:black;stroke-width:2.333333" />
<!-- Node 13 -->
<circle cx="-8" cy="53" r="4.666667" style="fill:white;stroke:black;stroke-width:2.333333" />
<!-- Node 14 -->
<circle cx="-8" cy="52" r="4.666667" style="fill:white;stroke:black;stroke-width:2.333333" />
<!-- Node 15 -->
<circle cx="2" cy="2" r="4.666667" style="fill:white;stroke:black;stroke-width:2.333333" />
<!-- Node 16 -->
<circle cx="-2" cy="9" r="4.666667" style="fill:white;stroke:black;stroke-width:2.333333" />
<!-- Node 17 -->
<circle cx="-10" cy="20" r="4.666667" style="fill:white;stroke:black;stroke-width:2.333333" />
<!-- Node 18 -->
<circle cx="-20" cy="19" r="4.666667" style="fill:white;stroke:black;stroke-width:2.333333" />
<!-- Node 19 -->
<circle cx="-15" cy="-21" r="4.666667" style="fill:white;stroke:black;stroke-width:2.333333" />
<!-- Node 20 -->
<circle cx="-5" cy="-9" r="4.666667" style="fill:white;stroke:black;stroke-width:2.333333" />
<!-- Node 21 -->
<circle cx="-4" cy="-9" r="4.666667" style="fill:white;stroke:black;stroke-width:2.333333" />
<!-- Node 22 -->
<circle cx="-52" cy="-36" r="4.666667" style="fill:white;stroke:black;stroke-width:2.333333" />
<!-- Node 23 -->
<circle cx="-53" cy="-36" r="4.666667" style="fill:white;stroke:black;stroke-width:2.333333" />
<!-- Node 24 -->
<circle cx="0" cy="0" r="4.666667" style="fill:white;stroke:black;stroke-width:2.333333" />
<!-- Node 25 -->
<circle cx="-30" cy="-18" r="4.666667" style="fill:white;stroke:black;stroke-width:2.333333" />
<!-- Node 26 -->
<circle cx="-51" cy="-35" r="4.666667" style="fill:white;stroke:black;stroke-width:2.333333" />
<!-- Node 27 -->
<circle cx="81" cy="9" r="4.666667" style="fill:white;stroke:black;stroke-width:2.333333" />
<!-- Node 28 -->
<circle cx="84" cy="-99" r="4.666667" style="fill:white;stroke:black;stroke-width:2.333333" />
<!-- Node 29 -->
<circle cx="82" cy="-6" r="4.666667" style="fill:white;stroke:black;stroke-width:2.333333" />
<!-- Node 30 -->
<circle cx="40" cy="-12" r="4.666667" style="fill:white;stroke:black;stroke-width:2.333333" />
<!-- Node 31 -->
<circle cx="50" cy="-7" r="4.666667" style="fill:white;stroke:black;stroke-width:2.333333" />
<!-- Node 32 -->
<circle cx="51" cy="-8" r="4.666667" style="fill:white;stroke:black;stroke-width:2.333333" />
<!-- Node 33 -->
<circle cx="63" cy="-17" r="4.666667" style="fill:white;stroke:black;stroke-width:2.333333" />
<!-- Node 34 -->
<circle cx="45" cy="-1" r="4.666667" style="fill:white;stroke:black;stroke-width:2.333333" />
<!-- Node 35 -->
<circle cx="54" cy="8" r="4.666667" style="fill:white;stroke:black;stroke-width:2.333333" />
<!-- Node 36 -->
<circle cx="29" cy="4" r="4.666667" style="fill:white;stroke:black;stroke-width:2.333333" />
<!-- Node 37 -->
<circle cx="21" cy="3" r="4.666667" style="fill:white;stroke:black;stroke-width:2.333333" />
<!-- Node 38 -->
<circle cx="22" cy="2" r="4.666667" style="fill:white;stroke:black;stroke-width:2.333333" />
<!-- Node 39 -->
<circle cx="39" cy="-3" r="4.666667" style="fill:white;stroke:black;stroke-width:2.333333" />
<!-- Node 40 -->
<circle cx="39" cy="-3" r="4.666667" style="fill:white;stroke:black;stroke-width:2.333333" />
<!-- Node 41 -->
<circle cx="40" cy="-11" r="4.666667" style="fill:white;stroke:black;stroke-width:2.333333" />
<!-- Node 42 -->
<circle cx="28" cy="-2" r="4.666667" style="fill:white;stroke:black;stroke-width:2.333333" />
<!-- Node 43 -->
<circle cx="24" cy="-18" r="4.666667" style="fill:white;stroke:black;stroke-width:2.333333" />
<!-- Node 44 -->
<circle cx="24" cy="-19" r="4.666667" style="fill:white;stroke:black;stroke-width:2.333333" />
			</g>
		</g>
	</g>
</svg>
