<?xml version="1.0" standalone="no"?>
<!DOCTYPE svg PUBLIC "-//W3C//DTD SVG 1.1//EN"
"http://www.w3.org/Graphics/SVG/1.1/DTD/svg11.dtd">

<svg width="100%" height="100%" version="1.1"
xmlns="http://www.w3.org/2000/svg"
xmlns:xlink="http://www.w3.org/1999/xlink">

	<g transform="translate(20,20)">
		<g transform="scale(10.000000)">
			<g transform="translate(20,25)">
			<title>F-n72-k4</title>
			<desc>(null)</desc>
<!-- Route #0: 11 10 3 4 9 7 8 5 -->
<path d="M0 0
L-11 -5
L-7 -17
L-1 -18
L2 -21
L7 -25
L2 -22
L1 -21
L-1 -17
Z" style="fill:none;stroke:#a4e14b;stroke-width:0.700000"/>
<!-- Route #1: 36 35 18 71 6 13 12 16 17 2 19 15 1 14 33 -->
<path d="M0 0
L-7 -2
L-7 -3
L-9 -6
L-9 -11
L-9 -12
L-14 -8
L-14 -9
L-15 -9
L-15 -8
L-15 -5
L-14 -4
L-14 -5
L-12 -6
L-11 -2
L-8 -2
Z" style="fill:none;stroke:#38f75e;stroke-width:0.700000"/>
<!-- Route #2: 54 55 41 57 56 39 68 40 38 37 69 67 66 65 64 62 63 59 58 61 60 34 31 32 -->
<path d="M0 0
L-6 5
L-6 6
L-6 8
L-9 7
L-9 6
L-12 10
L-15 10
L-20 15
L-20 13
L-20 12
L-20 10
L-16 8
L-16 7
L-15 5
L-15 4
L-14 4
L-14 5
L-12 6
L-12 5
L-11 4
L-11 3
L-7 2
L-6 1
L-6 2
Z" style="fill:none;stroke:#7d58fc;stroke-width:0.700000"/>
<!-- Route #3: 20 29 30 21 22 28 27 42 46 44 43 53 45 52 48 47 50 70 51 49 25 26 24 23 -->
<path d="M0 0
L3 6
L3 7
L4 8
L5 9
L5 10
L5 12
L6 14
L2 21
L1 22
L1 21
L2 22
L1 23
L-1 24
L-5 26
L-2 21
L-2 20
L-4 19
L-5 19
L-5 18
L-4 18
L1 10
L2 9
L1 9
L2 8
Z" style="fill:none;stroke:#d61666;stroke-width:0.700000"/>
<!-- Node 0 -->
<circle cx="0" cy="0" r="1.400000" style="fill:red;stroke:black;stroke-width:0.700000" />
<!-- Node 1 -->
<circle cx="-12" cy="-6" r="1.400000" style="fill:white;stroke:black;stroke-width:0.700000" />
<!-- Node 2 -->
<circle cx="-15" cy="-5" r="1.400000" style="fill:white;stroke:black;stroke-width:0.700000" />
<!-- Node 3 -->
<circle cx="-1" cy="-18" r="1.400000" style="fill:white;stroke:black;stroke-width:0.700000" />
<!-- Node 4 -->
<circle cx="2" cy="-21" r="1.400000" style="fill:white;stroke:black;stroke-width:0.700000" />
<!-- Node 5 -->
<circle cx="-1" cy="-17" r="1.400000" style="fill:white;stroke:black;stroke-width:0.700000" />
<!-- Node 6 -->
<circle cx="-9" cy="-12" r="1.400000" style="fill:white;stroke:black;stroke-width:0.700000" />
<!-- Node 7 -->
<circle cx="2" cy="-22" r="1.400000" style="fill:white;stroke:black;stroke-width:0.700000" />
<!-- Node 8 -->
<circle cx="1" cy="-21" r="1.400000" style="fill:white;stroke:black;stroke-width:0.700000" />
<!-- Node 9 -->
<circle cx="7" cy="-25" r="1.400000" style="fill:white;stroke:black;stroke-width:0.700000" />
<!-- Node 10 -->
<circle cx="-7" cy="-17" r="1.400000" style="fill:white;stroke:black;stroke-width:0.700000" />
<!-- Node 11 -->
<circle cx="-11" cy="-5" r="1.400000" style="fill:white;stroke:black;stroke-width:0.700000" />
<!-- Node 12 -->
<circle cx="-14" cy="-9" r="1.400000" style="fill:white;stroke:black;stroke-width:0.700000" />
<!-- Node 13 -->
<circle cx="-14" cy="-8" r="1.400000" style="fill:white;stroke:black;stroke-width:0.700000" />
<!-- Node 14 -->
<circle cx="-11" cy="-2" r="1.400000" style="fill:white;stroke:black;stroke-width:0.700000" />
<!-- Node 15 -->
<circle cx="-14" cy="-5" r="1.400000" style="fill:white;stroke:black;stroke-width:0.700000" />
<!-- Node 16 -->
<circle cx="-15" cy="-9" r="1.400000" style="fill:white;stroke:black;stroke-width:0.700000" />
<!-- Node 17 -->
<circle cx="-15" cy="-8" r="1.400000" style="fill:white;stroke:black;stroke-width:0.700000" />
<!-- Node 18 -->
<circle cx="-9" cy="-6" r="1.400000" style="fill:white;stroke:black;stroke-width:0.700000" />
<!-- Node 19 -->
<circle cx="-14" cy="-4" r="1.400000" style="fill:white;stroke:black;stroke-width:0.700000" />
<!-- Node 20 -->
<circle cx="3" cy="6" r="1.400000" style="fill:white;stroke:black;stroke-width:0.700000" />
<!-- Node 21 -->
<circle cx="5" cy="9" r="1.400000" style="fill:white;stroke:black;stroke-width:0.700000" />
<!-- Node 22 -->
<circle cx="5" cy="10" r="1.400000" style="fill:white;stroke:black;stroke-width:0.700000" />
<!-- Node 23 -->
<circle cx="2" cy="8" r="1.400000" style="fill:white;stroke:black;stroke-width:0.700000" />
<!-- Node 24 -->
<circle cx="1" cy="9" r="1.400000" style="fill:white;stroke:black;stroke-width:0.700000" />
<!-- Node 25 -->
<circle cx="1" cy="10" r="1.400000" style="fill:white;stroke:black;stroke-width:0.700000" />
<!-- Node 26 -->
<circle cx="2" cy="9" r="1.400000" style="fill:white;stroke:black;stroke-width:0.700000" />
<!-- Node 27 -->
<circle cx="6" cy="14" r="1.400000" style="fill:white;stroke:black;stroke-width:0.700000" />
<!-- Node 28 -->
<circle cx="5" cy="12" r="1.400000" style="fill:white;stroke:black;stroke-width:0.700000" />
<!-- Node 29 -->
<circle cx="3" cy="7" r="1.400000" style="fill:white;stroke:black;stroke-width:0.700000" />
<!-- Node 30 -->
<circle cx="4" cy="8" r="1.400000" style="fill:white;stroke:black;stroke-width:0.700000" />
<!-- Node 31 -->
<circle cx="-6" cy="1" r="1.400000" style="fill:white;stroke:black;stroke-width:0.700000" />
<!-- Node 32 -->
<circle cx="-6" cy="2" r="1.400000" style="fill:white;stroke:black;stroke-width:0.700000" />
<!-- Node 33 -->
<circle cx="-8" cy="-2" r="1.400000" style="fill:white;stroke:black;stroke-width:0.700000" />
<!-- Node 34 -->
<circle cx="-7" cy="2" r="1.400000" style="fill:white;stroke:black;stroke-width:0.700000" />
<!-- Node 35 -->
<circle cx="-7" cy="-3" r="1.400000" style="fill:white;stroke:black;stroke-width:0.700000" />
<!-- Node 36 -->
<circle cx="-7" cy="-2" r="1.400000" style="fill:white;stroke:black;stroke-width:0.700000" />
<!-- Node 37 -->
<circle cx="-20" cy="12" r="1.400000" style="fill:white;stroke:black;stroke-width:0.700000" />
<!-- Node 38 -->
<circle cx="-20" cy="13" r="1.400000" style="fill:white;stroke:black;stroke-width:0.700000" />
<!-- Node 39 -->
<circle cx="-12" cy="10" r="1.400000" style="fill:white;stroke:black;stroke-width:0.700000" />
<!-- Node 40 -->
<circle cx="-20" cy="15" r="1.400000" style="fill:white;stroke:black;stroke-width:0.700000" />
<!-- Node 41 -->
<circle cx="-6" cy="8" r="1.400000" style="fill:white;stroke:black;stroke-width:0.700000" />
<!-- Node 42 -->
<circle cx="2" cy="21" r="1.400000" style="fill:white;stroke:black;stroke-width:0.700000" />
<!-- Node 43 -->
<circle cx="2" cy="22" r="1.400000" style="fill:white;stroke:black;stroke-width:0.700000" />
<!-- Node 44 -->
<circle cx="1" cy="21" r="1.400000" style="fill:white;stroke:black;stroke-width:0.700000" />
<!-- Node 45 -->
<circle cx="-1" cy="24" r="1.400000" style="fill:white;stroke:black;stroke-width:0.700000" />
<!-- Node 46 -->
<circle cx="1" cy="22" r="1.400000" style="fill:white;stroke:black;stroke-width:0.700000" />
<!-- Node 47 -->
<circle cx="-2" cy="20" r="1.400000" style="fill:white;stroke:black;stroke-width:0.700000" />
<!-- Node 48 -->
<circle cx="-2" cy="21" r="1.400000" style="fill:white;stroke:black;stroke-width:0.700000" />
<!-- Node 49 -->
<circle cx="-4" cy="18" r="1.400000" style="fill:white;stroke:black;stroke-width:0.700000" />
<!-- Node 50 -->
<circle cx="-4" cy="19" r="1.400000" style="fill:white;stroke:black;stroke-width:0.700000" />
<!-- Node 51 -->
<circle cx="-5" cy="18" r="1.400000" style="fill:white;stroke:black;stroke-width:0.700000" />
<!-- Node 52 -->
<circle cx="-5" cy="26" r="1.400000" style="fill:white;stroke:black;stroke-width:0.700000" />
<!-- Node 53 -->
<circle cx="1" cy="23" r="1.400000" style="fill:white;stroke:black;stroke-width:0.700000" />
<!-- Node 54 -->
<circle cx="-6" cy="5" r="1.400000" style="fill:white;stroke:black;stroke-width:0.700000" />
<!-- Node 55 -->
<circle cx="-6" cy="6" r="1.400000" style="fill:white;stroke:black;stroke-width:0.700000" />
<!-- Node 56 -->
<circle cx="-9" cy="6" r="1.400000" style="fill:white;stroke:black;stroke-width:0.700000" />
<!-- Node 57 -->
<circle cx="-9" cy="7" r="1.400000" style="fill:white;stroke:black;stroke-width:0.700000" />
<!-- Node 58 -->
<circle cx="-12" cy="5" r="1.400000" style="fill:white;stroke:black;stroke-width:0.700000" />
<!-- Node 59 -->
<circle cx="-12" cy="6" r="1.400000" style="fill:white;stroke:black;stroke-width:0.700000" />
<!-- Node 60 -->
<circle cx="-11" cy="3" r="1.400000" style="fill:white;stroke:black;stroke-width:0.700000" />
<!-- Node 61 -->
<circle cx="-11" cy="4" r="1.400000" style="fill:white;stroke:black;stroke-width:0.700000" />
<!-- Node 62 -->
<circle cx="-14" cy="4" r="1.400000" style="fill:white;stroke:black;stroke-width:0.700000" />
<!-- Node 63 -->
<circle cx="-14" cy="5" r="1.400000" style="fill:white;stroke:black;stroke-width:0.700000" />
<!-- Node 64 -->
<circle cx="-15" cy="4" r="1.400000" style="fill:white;stroke:black;stroke-width:0.700000" />
<!-- Node 65 -->
<circle cx="-15" cy="5" r="1.400000" style="fill:white;stroke:black;stroke-width:0.700000" />
<!-- Node 66 -->
<circle cx="-16" cy="7" r="1.400000" style="fill:white;stroke:black;stroke-width:0.700000" />
<!-- Node 67 -->
<circle cx="-16" cy="8" r="1.400000" style="fill:white;stroke:black;stroke-width:0.700000" />
<!-- Node 68 -->
<circle cx="-15" cy="10" r="1.400000" style="fill:white;stroke:black;stroke-width:0.700000" />
<!-- Node 69 -->
<circle cx="-20" cy="10" r="1.400000" style="fill:white;stroke:black;stroke-width:0.700000" />
<!-- Node 70 -->
<circle cx="-5" cy="19" r="1.400000" style="fill:white;stroke:black;stroke-width:0.700000" />
<!-- Node 71 -->
<circle cx="-9" cy="-11" r="1.400000" style="fill:white;stroke:black;stroke-width:0.700000" />
			</g>
		</g>
	</g>
</svg>
