<?xml version="1.0" standalone="no"?>
<!DOCTYPE svg PUBLIC "-//W3C//DTD SVG 1.1//EN"
"http://www.w3.org/Graphics/SVG/1.1/DTD/svg11.dtd">

<svg width="100%" height="100%" version="1.1"
xmlns="http://www.w3.org/2000/svg">

	<g transform="translate(10,10)">
		<g transform="scale(5)">
<!-- Route #0: 22 13 10 6 5 33 4 7 -->
<path d="M38 46
L53 25
L60 20
L82 28
L96 7
L66 6
L50 2
L26 15
L37 25
Z" style="fill:none;stroke:#a32f7f;stroke-width:1"/>
<!-- Route #1: 1 12 2 19 20 23 14 17 -->
<path d="M38 46
L59 46
L74 42
L96 42
L98 51
L92 62
L78 65
L78 58
L73 57
Z" style="fill:none;stroke:#2b9a05;stroke-width:1"/>
<!-- Route #2: 36 29 32 28 31 30 15 -->
<path d="M38 46
L22 53
L9 49
L12 61
L11 66
L8 68
L25 72
L36 48
Z" style="fill:none;stroke:#517d07;stroke-width:1"/>
<!-- Route #3: 3 24 9 11 27 8 25 35 18 26 34 -->
<path d="M38 46
L47 61
L72 79
L78 84
L93 90
L75 96
L68 92
L37 88
L18 89
L10 91
L16 73
L26 54
Z" style="fill:none;stroke:#59f759;stroke-width:1"/>
<!-- Route #4: 21 16 -->
<path d="M38 46
L43 42
L45 36
Z" style="fill:none;stroke:#d8af6b;stroke-width:1"/>
<!-- Node 0 -->
<circle cx="38" cy="46" r="2" style="fill:red;stroke:black;stroke-width:1" />
<!-- Node 1 -->
<circle cx="59" cy="46" r="2" style="fill:white;stroke:black;stroke-width:1" />
<!-- Node 2 -->
<circle cx="96" cy="42" r="2" style="fill:white;stroke:black;stroke-width:1" />
<!-- Node 3 -->
<circle cx="47" cy="61" r="2" style="fill:white;stroke:black;stroke-width:1" />
<!-- Node 4 -->
<circle cx="26" cy="15" r="2" style="fill:white;stroke:black;stroke-width:1" />
<!-- Node 5 -->
<circle cx="66" cy="6" r="2" style="fill:white;stroke:black;stroke-width:1" />
<!-- Node 6 -->
<circle cx="96" cy="7" r="2" style="fill:white;stroke:black;stroke-width:1" />
<!-- Node 7 -->
<circle cx="37" cy="25" r="2" style="fill:white;stroke:black;stroke-width:1" />
<!-- Node 8 -->
<circle cx="68" cy="92" r="2" style="fill:white;stroke:black;stroke-width:1" />
<!-- Node 9 -->
<circle cx="78" cy="84" r="2" style="fill:white;stroke:black;stroke-width:1" />
<!-- Node 10 -->
<circle cx="82" cy="28" r="2" style="fill:white;stroke:black;stroke-width:1" />
<!-- Node 11 -->
<circle cx="93" cy="90" r="2" style="fill:white;stroke:black;stroke-width:1" />
<!-- Node 12 -->
<circle cx="74" cy="42" r="2" style="fill:white;stroke:black;stroke-width:1" />
<!-- Node 13 -->
<circle cx="60" cy="20" r="2" style="fill:white;stroke:black;stroke-width:1" />
<!-- Node 14 -->
<circle cx="78" cy="58" r="2" style="fill:white;stroke:black;stroke-width:1" />
<!-- Node 15 -->
<circle cx="36" cy="48" r="2" style="fill:white;stroke:black;stroke-width:1" />
<!-- Node 16 -->
<circle cx="45" cy="36" r="2" style="fill:white;stroke:black;stroke-width:1" />
<!-- Node 17 -->
<circle cx="73" cy="57" r="2" style="fill:white;stroke:black;stroke-width:1" />
<!-- Node 18 -->
<circle cx="10" cy="91" r="2" style="fill:white;stroke:black;stroke-width:1" />
<!-- Node 19 -->
<circle cx="98" cy="51" r="2" style="fill:white;stroke:black;stroke-width:1" />
<!-- Node 20 -->
<circle cx="92" cy="62" r="2" style="fill:white;stroke:black;stroke-width:1" />
<!-- Node 21 -->
<circle cx="43" cy="42" r="2" style="fill:white;stroke:black;stroke-width:1" />
<!-- Node 22 -->
<circle cx="53" cy="25" r="2" style="fill:white;stroke:black;stroke-width:1" />
<!-- Node 23 -->
<circle cx="78" cy="65" r="2" style="fill:white;stroke:black;stroke-width:1" />
<!-- Node 24 -->
<circle cx="72" cy="79" r="2" style="fill:white;stroke:black;stroke-width:1" />
<!-- Node 25 -->
<circle cx="37" cy="88" r="2" style="fill:white;stroke:black;stroke-width:1" />
<!-- Node 26 -->
<circle cx="16" cy="73" r="2" style="fill:white;stroke:black;stroke-width:1" />
<!-- Node 27 -->
<circle cx="75" cy="96" r="2" style="fill:white;stroke:black;stroke-width:1" />
<!-- Node 28 -->
<circle cx="11" cy="66" r="2" style="fill:white;stroke:black;stroke-width:1" />
<!-- Node 29 -->
<circle cx="9" cy="49" r="2" style="fill:white;stroke:black;stroke-width:1" />
<!-- Node 30 -->
<circle cx="25" cy="72" r="2" style="fill:white;stroke:black;stroke-width:1" />
<!-- Node 31 -->
<circle cx="8" cy="68" r="2" style="fill:white;stroke:black;stroke-width:1" />
<!-- Node 32 -->
<circle cx="12" cy="61" r="2" style="fill:white;stroke:black;stroke-width:1" />
<!-- Node 33 -->
<circle cx="50" cy="2" r="2" style="fill:white;stroke:black;stroke-width:1" />
<!-- Node 34 -->
<circle cx="26" cy="54" r="2" style="fill:white;stroke:black;stroke-width:1" />
<!-- Node 35 -->
<circle cx="18" cy="89" r="2" style="fill:white;stroke:black;stroke-width:1" />
<!-- Node 36 -->
<circle cx="22" cy="53" r="2" style="fill:white;stroke:black;stroke-width:1" />
		</g>
	</g>
</svg>
