<?xml version="1.0" standalone="no"?>
<!DOCTYPE svg PUBLIC "-//W3C//DTD SVG 1.1//EN"
"http://www.w3.org/Graphics/SVG/1.1/DTD/svg11.dtd">

<svg width="100%" height="100%" version="1.1"
xmlns="http://www.w3.org/2000/svg">

	<g transform="translate(10,10)">
		<g transform="scale(5)">
<!-- Route #0: 14 33 9 2 28 21 19 4 -->
<path d="M86 22
L75 24
L16 36
L19 45
L4 50
L1 57
L21 54
L46 39
L67 37
Z" style="fill:none;stroke:#0a0aaf;stroke-width:1"/>
<!-- Route #1: 34 31 1 3 5 8 20 -->
<path d="M86 22
L51 38
L47 38
L29 17
L25 13
L13 7
L34 3
L47 17
Z" style="fill:none;stroke:#0c1864;stroke-width:1"/>
<!-- Route #2: 13 30 15 32 27 -->
<path d="M86 22
L63 57
L57 82
L61 85
L68 89
L100 77
Z" style="fill:none;stroke:#01cd28;stroke-width:1"/>
<!-- Route #3: 18 17 26 23 22 12 11 10 -->
<path d="M86 22
L66 34
L54 39
L41 59
L1 82
L19 83
L25 94
L40 86
L42 76
Z" style="fill:none;stroke:#0b5898;stroke-width:1"/>
<!-- Route #4: 16 25 35 7 -->
<path d="M86 22
L87 38
L82 72
L83 74
L84 38
Z" style="fill:none;stroke:#03608b;stroke-width:1"/>
<!-- Route #5: 24 29 36 6 -->
<path d="M86 22
L94 28
L96 7
L84 2
L62 15
Z" style="fill:none;stroke:#0bc89f;stroke-width:1"/>
<!-- Node 0 -->
<circle cx="86" cy="22" r="2" style="fill:red;stroke:black;stroke-width:1" />
<!-- Node 1 -->
<circle cx="29" cy="17" r="2" style="fill:white;stroke:black;stroke-width:1" />
<!-- Node 2 -->
<circle cx="4" cy="50" r="2" style="fill:white;stroke:black;stroke-width:1" />
<!-- Node 3 -->
<circle cx="25" cy="13" r="2" style="fill:white;stroke:black;stroke-width:1" />
<!-- Node 4 -->
<circle cx="67" cy="37" r="2" style="fill:white;stroke:black;stroke-width:1" />
<!-- Node 5 -->
<circle cx="13" cy="7" r="2" style="fill:white;stroke:black;stroke-width:1" />
<!-- Node 6 -->
<circle cx="62" cy="15" r="2" style="fill:white;stroke:black;stroke-width:1" />
<!-- Node 7 -->
<circle cx="84" cy="38" r="2" style="fill:white;stroke:black;stroke-width:1" />
<!-- Node 8 -->
<circle cx="34" cy="3" r="2" style="fill:white;stroke:black;stroke-width:1" />
<!-- Node 9 -->
<circle cx="19" cy="45" r="2" style="fill:white;stroke:black;stroke-width:1" />
<!-- Node 10 -->
<circle cx="42" cy="76" r="2" style="fill:white;stroke:black;stroke-width:1" />
<!-- Node 11 -->
<circle cx="40" cy="86" r="2" style="fill:white;stroke:black;stroke-width:1" />
<!-- Node 12 -->
<circle cx="25" cy="94" r="2" style="fill:white;stroke:black;stroke-width:1" />
<!-- Node 13 -->
<circle cx="63" cy="57" r="2" style="fill:white;stroke:black;stroke-width:1" />
<!-- Node 14 -->
<circle cx="75" cy="24" r="2" style="fill:white;stroke:black;stroke-width:1" />
<!-- Node 15 -->
<circle cx="61" cy="85" r="2" style="fill:white;stroke:black;stroke-width:1" />
<!-- Node 16 -->
<circle cx="87" cy="38" r="2" style="fill:white;stroke:black;stroke-width:1" />
<!-- Node 17 -->
<circle cx="54" cy="39" r="2" style="fill:white;stroke:black;stroke-width:1" />
<!-- Node 18 -->
<circle cx="66" cy="34" r="2" style="fill:white;stroke:black;stroke-width:1" />
<!-- Node 19 -->
<circle cx="46" cy="39" r="2" style="fill:white;stroke:black;stroke-width:1" />
<!-- Node 20 -->
<circle cx="47" cy="17" r="2" style="fill:white;stroke:black;stroke-width:1" />
<!-- Node 21 -->
<circle cx="21" cy="54" r="2" style="fill:white;stroke:black;stroke-width:1" />
<!-- Node 22 -->
<circle cx="19" cy="83" r="2" style="fill:white;stroke:black;stroke-width:1" />
<!-- Node 23 -->
<circle cx="1" cy="82" r="2" style="fill:white;stroke:black;stroke-width:1" />
<!-- Node 24 -->
<circle cx="94" cy="28" r="2" style="fill:white;stroke:black;stroke-width:1" />
<!-- Node 25 -->
<circle cx="82" cy="72" r="2" style="fill:white;stroke:black;stroke-width:1" />
<!-- Node 26 -->
<circle cx="41" cy="59" r="2" style="fill:white;stroke:black;stroke-width:1" />
<!-- Node 27 -->
<circle cx="100" cy="77" r="2" style="fill:white;stroke:black;stroke-width:1" />
<!-- Node 28 -->
<circle cx="1" cy="57" r="2" style="fill:white;stroke:black;stroke-width:1" />
<!-- Node 29 -->
<circle cx="96" cy="7" r="2" style="fill:white;stroke:black;stroke-width:1" />
<!-- Node 30 -->
<circle cx="57" cy="82" r="2" style="fill:white;stroke:black;stroke-width:1" />
<!-- Node 31 -->
<circle cx="47" cy="38" r="2" style="fill:white;stroke:black;stroke-width:1" />
<!-- Node 32 -->
<circle cx="68" cy="89" r="2" style="fill:white;stroke:black;stroke-width:1" />
<!-- Node 33 -->
<circle cx="16" cy="36" r="2" style="fill:white;stroke:black;stroke-width:1" />
<!-- Node 34 -->
<circle cx="51" cy="38" r="2" style="fill:white;stroke:black;stroke-width:1" />
<!-- Node 35 -->
<circle cx="83" cy="74" r="2" style="fill:white;stroke:black;stroke-width:1" />
<!-- Node 36 -->
<circle cx="84" cy="2" r="2" style="fill:white;stroke:black;stroke-width:1" />
		</g>
	</g>
</svg>
