<?xml version="1.0" standalone="no"?>
<!DOCTYPE svg PUBLIC "-//W3C//DTD SVG 1.1//EN"
"http://www.w3.org/Graphics/SVG/1.1/DTD/svg11.dtd">

<svg width="100%" height="100%" version="1.1"
xmlns="http://www.w3.org/2000/svg">

	<g transform="translate(10,10)">
		<g transform="scale(5)">
<!-- Route #0: 5 2 20 15 9 3 8 4 -->
<path d="M34 31
L59 55
L70 80
L66 84
L71 84
L75 90
L81 70
L80 64
L85 61
Z" style="fill:none;stroke:#d785ed;stroke-width:1"/>
<!-- Route #1: 31 24 23 26 22 -->
<path d="M34 31
L51 5
L75 20
L85 10
L90 45
L81 46
Z" style="fill:none;stroke:#86f1ad;stroke-width:1"/>
<!-- Route #2: 17 11 29 19 7 -->
<path d="M34 31
L25 54
L9 66
L10 95
L45 71
L50 64
Z" style="fill:none;stroke:#fa12fd;stroke-width:1"/>
<!-- Route #3: 10 12 21 -->
<path d="M34 31
L25 40
L1 44
L11 35
Z" style="fill:none;stroke:#af1eed;stroke-width:1"/>
<!-- Route #4: 28 27 30 16 25 32 -->
<path d="M34 31
L31 26
L15 0
L6 6
L1 9
L15 21
L26 36
Z" style="fill:none;stroke:#088f70;stroke-width:1"/>
<!-- Route #5: 13 6 18 1 14 -->
<path d="M34 31
L50 54
L45 60
L45 59
L45 55
L35 45
Z" style="fill:none;stroke:#c2361f;stroke-width:1"/>
<!-- Node 0 -->
<circle cx="34" cy="31" r="2" style="fill:red;stroke:black;stroke-width:1" />
<!-- Node 1 -->
<circle cx="45" cy="55" r="2" style="fill:white;stroke:black;stroke-width:1" />
<!-- Node 2 -->
<circle cx="70" cy="80" r="2" style="fill:white;stroke:black;stroke-width:1" />
<!-- Node 3 -->
<circle cx="81" cy="70" r="2" style="fill:white;stroke:black;stroke-width:1" />
<!-- Node 4 -->
<circle cx="85" cy="61" r="2" style="fill:white;stroke:black;stroke-width:1" />
<!-- Node 5 -->
<circle cx="59" cy="55" r="2" style="fill:white;stroke:black;stroke-width:1" />
<!-- Node 6 -->
<circle cx="45" cy="60" r="2" style="fill:white;stroke:black;stroke-width:1" />
<!-- Node 7 -->
<circle cx="50" cy="64" r="2" style="fill:white;stroke:black;stroke-width:1" />
<!-- Node 8 -->
<circle cx="80" cy="64" r="2" style="fill:white;stroke:black;stroke-width:1" />
<!-- Node 9 -->
<circle cx="75" cy="90" r="2" style="fill:white;stroke:black;stroke-width:1" />
<!-- Node 10 -->
<circle cx="25" cy="40" r="2" style="fill:white;stroke:black;stroke-width:1" />
<!-- Node 11 -->
<circle cx="9" cy="66" r="2" style="fill:white;stroke:black;stroke-width:1" />
<!-- Node 12 -->
<circle cx="1" cy="44" r="2" style="fill:white;stroke:black;stroke-width:1" />
<!-- Node 13 -->
<circle cx="50" cy="54" r="2" style="fill:white;stroke:black;stroke-width:1" />
<!-- Node 14 -->
<circle cx="35" cy="45" r="2" style="fill:white;stroke:black;stroke-width:1" />
<!-- Node 15 -->
<circle cx="71" cy="84" r="2" style="fill:white;stroke:black;stroke-width:1" />
<!-- Node 16 -->
<circle cx="1" cy="9" r="2" style="fill:white;stroke:black;stroke-width:1" />
<!-- Node 17 -->
<circle cx="25" cy="54" r="2" style="fill:white;stroke:black;stroke-width:1" />
<!-- Node 18 -->
<circle cx="45" cy="59" r="2" style="fill:white;stroke:black;stroke-width:1" />
<!-- Node 19 -->
<circle cx="45" cy="71" r="2" style="fill:white;stroke:black;stroke-width:1" />
<!-- Node 20 -->
<circle cx="66" cy="84" r="2" style="fill:white;stroke:black;stroke-width:1" />
<!-- Node 21 -->
<circle cx="11" cy="35" r="2" style="fill:white;stroke:black;stroke-width:1" />
<!-- Node 22 -->
<circle cx="81" cy="46" r="2" style="fill:white;stroke:black;stroke-width:1" />
<!-- Node 23 -->
<circle cx="85" cy="10" r="2" style="fill:white;stroke:black;stroke-width:1" />
<!-- Node 24 -->
<circle cx="75" cy="20" r="2" style="fill:white;stroke:black;stroke-width:1" />
<!-- Node 25 -->
<circle cx="15" cy="21" r="2" style="fill:white;stroke:black;stroke-width:1" />
<!-- Node 26 -->
<circle cx="90" cy="45" r="2" style="fill:white;stroke:black;stroke-width:1" />
<!-- Node 27 -->
<circle cx="15" cy="0" r="2" style="fill:white;stroke:black;stroke-width:1" />
<!-- Node 28 -->
<circle cx="31" cy="26" r="2" style="fill:white;stroke:black;stroke-width:1" />
<!-- Node 29 -->
<circle cx="10" cy="95" r="2" style="fill:white;stroke:black;stroke-width:1" />
<!-- Node 30 -->
<circle cx="6" cy="6" r="2" style="fill:white;stroke:black;stroke-width:1" />
<!-- Node 31 -->
<circle cx="51" cy="5" r="2" style="fill:white;stroke:black;stroke-width:1" />
<!-- Node 32 -->
<circle cx="26" cy="36" r="2" style="fill:white;stroke:black;stroke-width:1" />
		</g>
	</g>
</svg>
