<?xml version="1.0" standalone="no"?>
<!DOCTYPE svg PUBLIC "-//W3C//DTD SVG 1.1//EN"
"http://www.w3.org/Graphics/SVG/1.1/DTD/svg11.dtd">

<svg width="100%" height="100%" version="1.1"
xmlns="http://www.w3.org/2000/svg">

	<g transform="translate(10,10)">
		<g transform="scale(5)">
<!-- Route #0: 37 31 14 35 25 33 19 2 -->
<path d="M39 19
L7 53
L13 61
L23 73
L5 97
L19 97
L45 93
L49 91
L41 79
Z" style="fill:none;stroke:#092752;stroke-width:1"/>
<!-- Route #1: 26 11 -->
<path d="M39 19
L41 9
L59 5
Z" style="fill:none;stroke:#daa79e;stroke-width:1"/>
<!-- Route #2: 24 3 38 12 9 28 29 5 -->
<path d="M39 19
L31 23
L25 31
L7 41
L1 37
L1 1
L9 7
L13 13
L33 5
Z" style="fill:none;stroke:#f06355;stroke-width:1"/>
<!-- Route #3: 15 30 13 -->
<path d="M39 19
L37 27
L43 37
L41 31
Z" style="fill:none;stroke:#f5020a;stroke-width:1"/>
<!-- Route #4: 18 27 10 16 4 8 7 -->
<path d="M39 19
L85 45
L83 61
L79 73
L85 93
L63 93
L53 75
L57 73
Z" style="fill:none;stroke:#5c6780;stroke-width:1"/>
<!-- Route #5: 6 1 36 17 23 21 22 34 32 20 -->
<path d="M39 19
L69 17
L79 19
L81 11
L93 13
L87 23
L83 29
L93 49
L93 55
L71 51
L55 43
Z" style="fill:none;stroke:#f33b20;stroke-width:1"/>
<!-- Node 0 -->
<circle cx="39" cy="19" r="2" style="fill:red;stroke:black;stroke-width:1" />
<!-- Node 1 -->
<circle cx="79" cy="19" r="2" style="fill:white;stroke:black;stroke-width:1" />
<!-- Node 2 -->
<circle cx="41" cy="79" r="2" style="fill:white;stroke:black;stroke-width:1" />
<!-- Node 3 -->
<circle cx="25" cy="31" r="2" style="fill:white;stroke:black;stroke-width:1" />
<!-- Node 4 -->
<circle cx="63" cy="93" r="2" style="fill:white;stroke:black;stroke-width:1" />
<!-- Node 5 -->
<circle cx="33" cy="5" r="2" style="fill:white;stroke:black;stroke-width:1" />
<!-- Node 6 -->
<circle cx="69" cy="17" r="2" style="fill:white;stroke:black;stroke-width:1" />
<!-- Node 7 -->
<circle cx="57" cy="73" r="2" style="fill:white;stroke:black;stroke-width:1" />
<!-- Node 8 -->
<circle cx="53" cy="75" r="2" style="fill:white;stroke:black;stroke-width:1" />
<!-- Node 9 -->
<circle cx="1" cy="1" r="2" style="fill:white;stroke:black;stroke-width:1" />
<!-- Node 10 -->
<circle cx="79" cy="73" r="2" style="fill:white;stroke:black;stroke-width:1" />
<!-- Node 11 -->
<circle cx="59" cy="5" r="2" style="fill:white;stroke:black;stroke-width:1" />
<!-- Node 12 -->
<circle cx="1" cy="37" r="2" style="fill:white;stroke:black;stroke-width:1" />
<!-- Node 13 -->
<circle cx="41" cy="31" r="2" style="fill:white;stroke:black;stroke-width:1" />
<!-- Node 14 -->
<circle cx="23" cy="73" r="2" style="fill:white;stroke:black;stroke-width:1" />
<!-- Node 15 -->
<circle cx="37" cy="27" r="2" style="fill:white;stroke:black;stroke-width:1" />
<!-- Node 16 -->
<circle cx="85" cy="93" r="2" style="fill:white;stroke:black;stroke-width:1" />
<!-- Node 17 -->
<circle cx="93" cy="13" r="2" style="fill:white;stroke:black;stroke-width:1" />
<!-- Node 18 -->
<circle cx="85" cy="45" r="2" style="fill:white;stroke:black;stroke-width:1" />
<!-- Node 19 -->
<circle cx="49" cy="91" r="2" style="fill:white;stroke:black;stroke-width:1" />
<!-- Node 20 -->
<circle cx="55" cy="43" r="2" style="fill:white;stroke:black;stroke-width:1" />
<!-- Node 21 -->
<circle cx="83" cy="29" r="2" style="fill:white;stroke:black;stroke-width:1" />
<!-- Node 22 -->
<circle cx="93" cy="49" r="2" style="fill:white;stroke:black;stroke-width:1" />
<!-- Node 23 -->
<circle cx="87" cy="23" r="2" style="fill:white;stroke:black;stroke-width:1" />
<!-- Node 24 -->
<circle cx="31" cy="23" r="2" style="fill:white;stroke:black;stroke-width:1" />
<!-- Node 25 -->
<circle cx="19" cy="97" r="2" style="fill:white;stroke:black;stroke-width:1" />
<!-- Node 26 -->
<circle cx="41" cy="9" r="2" style="fill:white;stroke:black;stroke-width:1" />
<!-- Node 27 -->
<circle cx="83" cy="61" r="2" style="fill:white;stroke:black;stroke-width:1" />
<!-- Node 28 -->
<circle cx="9" cy="7" r="2" style="fill:white;stroke:black;stroke-width:1" />
<!-- Node 29 -->
<circle cx="13" cy="13" r="2" style="fill:white;stroke:black;stroke-width:1" />
<!-- Node 30 -->
<circle cx="43" cy="37" r="2" style="fill:white;stroke:black;stroke-width:1" />
<!-- Node 31 -->
<circle cx="13" cy="61" r="2" style="fill:white;stroke:black;stroke-width:1" />
<!-- Node 32 -->
<circle cx="71" cy="51" r="2" style="fill:white;stroke:black;stroke-width:1" />
<!-- Node 33 -->
<circle cx="45" cy="93" r="2" style="fill:white;stroke:black;stroke-width:1" />
<!-- Node 34 -->
<circle cx="93" cy="55" r="2" style="fill:white;stroke:black;stroke-width:1" />
<!-- Node 35 -->
<circle cx="5" cy="97" r="2" style="fill:white;stroke:black;stroke-width:1" />
<!-- Node 36 -->
<circle cx="81" cy="11" r="2" style="fill:white;stroke:black;stroke-width:1" />
<!-- Node 37 -->
<circle cx="7" cy="53" r="2" style="fill:white;stroke:black;stroke-width:1" />
<!-- Node 38 -->
<circle cx="7" cy="41" r="2" style="fill:white;stroke:black;stroke-width:1" />
		</g>
	</g>
</svg>
