<?xml version="1.0" standalone="no"?>
<!DOCTYPE svg PUBLIC "-//W3C//DTD SVG 1.1//EN"
"http://www.w3.org/Graphics/SVG/1.1/DTD/svg11.dtd">

<svg width="100%" height="100%" version="1.1"
xmlns="http://www.w3.org/2000/svg">

	<g transform="translate(10,10)">
		<g transform="scale(5)">
<!-- Route #0: 10 30 26 12 3 1 6 29 -->
<path d="M69 63
L41 51
L33 51
L17 57
L11 49
L1 47
L3 35
L37 33
L35 39
Z" style="fill:none;stroke:#4701a7;stroke-width:1"/>
<!-- Route #1: 32 7 5 22 27 11 31 -->
<path d="M69 63
L89 53
L87 29
L87 23
L95 23
L93 15
L93 9
L61 21
Z" style="fill:none;stroke:#ac16d9;stroke-width:1"/>
<!-- Route #2: 24 14 2 36 13 15 20 -->
<path d="M69 63
L71 69
L75 69
L71 79
L67 95
L75 89
L97 95
L89 43
Z" style="fill:none;stroke:#2ca404;stroke-width:1"/>
<!-- Route #3: 28 37 25 16 4 34 19 18 -->
<path d="M69 63
L59 29
L61 15
L27 19
L15 13
L11 15
L37 37
L45 41
L47 41
Z" style="fill:none;stroke:#cf4ee3;stroke-width:1"/>
<!-- Route #4: 21 23 35 33 8 17 9 -->
<path d="M69 63
L45 59
L19 83
L21 91
L33 85
L35 81
L63 95
L55 71
Z" style="fill:none;stroke:#2cbdd2;stroke-width:1"/>
<!-- Node 0 -->
<circle cx="69" cy="63" r="2" style="fill:red;stroke:black;stroke-width:1" />
<!-- Node 1 -->
<circle cx="3" cy="35" r="2" style="fill:white;stroke:black;stroke-width:1" />
<!-- Node 2 -->
<circle cx="71" cy="79" r="2" style="fill:white;stroke:black;stroke-width:1" />
<!-- Node 3 -->
<circle cx="1" cy="47" r="2" style="fill:white;stroke:black;stroke-width:1" />
<!-- Node 4 -->
<circle cx="11" cy="15" r="2" style="fill:white;stroke:black;stroke-width:1" />
<!-- Node 5 -->
<circle cx="87" cy="23" r="2" style="fill:white;stroke:black;stroke-width:1" />
<!-- Node 6 -->
<circle cx="37" cy="33" r="2" style="fill:white;stroke:black;stroke-width:1" />
<!-- Node 7 -->
<circle cx="87" cy="29" r="2" style="fill:white;stroke:black;stroke-width:1" />
<!-- Node 8 -->
<circle cx="35" cy="81" r="2" style="fill:white;stroke:black;stroke-width:1" />
<!-- Node 9 -->
<circle cx="55" cy="71" r="2" style="fill:white;stroke:black;stroke-width:1" />
<!-- Node 10 -->
<circle cx="41" cy="51" r="2" style="fill:white;stroke:black;stroke-width:1" />
<!-- Node 11 -->
<circle cx="93" cy="9" r="2" style="fill:white;stroke:black;stroke-width:1" />
<!-- Node 12 -->
<circle cx="11" cy="49" r="2" style="fill:white;stroke:black;stroke-width:1" />
<!-- Node 13 -->
<circle cx="75" cy="89" r="2" style="fill:white;stroke:black;stroke-width:1" />
<!-- Node 14 -->
<circle cx="75" cy="69" r="2" style="fill:white;stroke:black;stroke-width:1" />
<!-- Node 15 -->
<circle cx="97" cy="95" r="2" style="fill:white;stroke:black;stroke-width:1" />
<!-- Node 16 -->
<circle cx="15" cy="13" r="2" style="fill:white;stroke:black;stroke-width:1" />
<!-- Node 17 -->
<circle cx="63" cy="95" r="2" style="fill:white;stroke:black;stroke-width:1" />
<!-- Node 18 -->
<circle cx="47" cy="41" r="2" style="fill:white;stroke:black;stroke-width:1" />
<!-- Node 19 -->
<circle cx="45" cy="41" r="2" style="fill:white;stroke:black;stroke-width:1" />
<!-- Node 20 -->
<circle cx="89" cy="43" r="2" style="fill:white;stroke:black;stroke-width:1" />
<!-- Node 21 -->
<circle cx="45" cy="59" r="2" style="fill:white;stroke:black;stroke-width:1" />
<!-- Node 22 -->
<circle cx="95" cy="23" r="2" style="fill:white;stroke:black;stroke-width:1" />
<!-- Node 23 -->
<circle cx="19" cy="83" r="2" style="fill:white;stroke:black;stroke-width:1" />
<!-- Node 24 -->
<circle cx="71" cy="69" r="2" style="fill:white;stroke:black;stroke-width:1" />
<!-- Node 25 -->
<circle cx="27" cy="19" r="2" style="fill:white;stroke:black;stroke-width:1" />
<!-- Node 26 -->
<circle cx="17" cy="57" r="2" style="fill:white;stroke:black;stroke-width:1" />
<!-- Node 27 -->
<circle cx="93" cy="15" r="2" style="fill:white;stroke:black;stroke-width:1" />
<!-- Node 28 -->
<circle cx="59" cy="29" r="2" style="fill:white;stroke:black;stroke-width:1" />
<!-- Node 29 -->
<circle cx="35" cy="39" r="2" style="fill:white;stroke:black;stroke-width:1" />
<!-- Node 30 -->
<circle cx="33" cy="51" r="2" style="fill:white;stroke:black;stroke-width:1" />
<!-- Node 31 -->
<circle cx="61" cy="21" r="2" style="fill:white;stroke:black;stroke-width:1" />
<!-- Node 32 -->
<circle cx="89" cy="53" r="2" style="fill:white;stroke:black;stroke-width:1" />
<!-- Node 33 -->
<circle cx="33" cy="85" r="2" style="fill:white;stroke:black;stroke-width:1" />
<!-- Node 34 -->
<circle cx="37" cy="37" r="2" style="fill:white;stroke:black;stroke-width:1" />
<!-- Node 35 -->
<circle cx="21" cy="91" r="2" style="fill:white;stroke:black;stroke-width:1" />
<!-- Node 36 -->
<circle cx="67" cy="95" r="2" style="fill:white;stroke:black;stroke-width:1" />
<!-- Node 37 -->
<circle cx="61" cy="15" r="2" style="fill:white;stroke:black;stroke-width:1" />
		</g>
	</g>
</svg>
