<?xml version="1.0" standalone="no"?>
<!DOCTYPE svg PUBLIC "-//W3C//DTD SVG 1.1//EN"
"http://www.w3.org/Graphics/SVG/1.1/DTD/svg11.dtd">

<svg width="100%" height="100%" version="1.1"
xmlns="http://www.w3.org/2000/svg">

		<g transform="translate(20,20)">
		<g transform="scale(5)">
			<g transform="translate(-1,-2)">
<!-- Route #0: 21 31 19 17 13 7 26 -->
<path d="M82 76
L98 14
L98 5
L93 3
L91 2
L84 25
L84 39
L80 55
Z" style="fill:none;stroke:#778898;stroke-width:1"/>
<!-- Route #1: 12 1 16 30 -->
<path d="M82 76
L98 52
L96 44
L88 51
L85 60
Z" style="fill:none;stroke:#db39d5;stroke-width:1"/>
<!-- Route #2: 27 24 -->
<path d="M82 76
L57 69
L61 62
Z" style="fill:none;stroke:#fb7491;stroke-width:1"/>
<!-- Route #3: 29 18 8 9 22 15 10 25 5 20 -->
<path d="M82 76
L20 70
L19 32
L14 24
L2 39
L5 42
L1 65
L3 82
L9 97
L29 89
L50 93
Z" style="fill:none;stroke:#99c44a;stroke-width:1"/>
<!-- Route #4: 14 28 11 4 23 3 2 6 -->
<path d="M82 76
L61 59
L23 15
L5 10
L13 7
L42 9
L49 8
L50 5
L58 30
Z" style="fill:none;stroke:#9389dd;stroke-width:1"/>
<!-- Node 0 -->
<circle cx="82" cy="76" r="2" style="fill:red;stroke:black;stroke-width:1" />
<!-- Node 1 -->
<circle cx="96" cy="44" r="2" style="fill:white;stroke:black;stroke-width:1" />
<!-- Node 2 -->
<circle cx="50" cy="5" r="2" style="fill:white;stroke:black;stroke-width:1" />
<!-- Node 3 -->
<circle cx="49" cy="8" r="2" style="fill:white;stroke:black;stroke-width:1" />
<!-- Node 4 -->
<circle cx="13" cy="7" r="2" style="fill:white;stroke:black;stroke-width:1" />
<!-- Node 5 -->
<circle cx="29" cy="89" r="2" style="fill:white;stroke:black;stroke-width:1" />
<!-- Node 6 -->
<circle cx="58" cy="30" r="2" style="fill:white;stroke:black;stroke-width:1" />
<!-- Node 7 -->
<circle cx="84" cy="39" r="2" style="fill:white;stroke:black;stroke-width:1" />
<!-- Node 8 -->
<circle cx="14" cy="24" r="2" style="fill:white;stroke:black;stroke-width:1" />
<!-- Node 9 -->
<circle cx="2" cy="39" r="2" style="fill:white;stroke:black;stroke-width:1" />
<!-- Node 10 -->
<circle cx="3" cy="82" r="2" style="fill:white;stroke:black;stroke-width:1" />
<!-- Node 11 -->
<circle cx="5" cy="10" r="2" style="fill:white;stroke:black;stroke-width:1" />
<!-- Node 12 -->
<circle cx="98" cy="52" r="2" style="fill:white;stroke:black;stroke-width:1" />
<!-- Node 13 -->
<circle cx="84" cy="25" r="2" style="fill:white;stroke:black;stroke-width:1" />
<!-- Node 14 -->
<circle cx="61" cy="59" r="2" style="fill:white;stroke:black;stroke-width:1" />
<!-- Node 15 -->
<circle cx="1" cy="65" r="2" style="fill:white;stroke:black;stroke-width:1" />
<!-- Node 16 -->
<circle cx="88" cy="51" r="2" style="fill:white;stroke:black;stroke-width:1" />
<!-- Node 17 -->
<circle cx="91" cy="2" r="2" style="fill:white;stroke:black;stroke-width:1" />
<!-- Node 18 -->
<circle cx="19" cy="32" r="2" style="fill:white;stroke:black;stroke-width:1" />
<!-- Node 19 -->
<circle cx="93" cy="3" r="2" style="fill:white;stroke:black;stroke-width:1" />
<!-- Node 20 -->
<circle cx="50" cy="93" r="2" style="fill:white;stroke:black;stroke-width:1" />
<!-- Node 21 -->
<circle cx="98" cy="14" r="2" style="fill:white;stroke:black;stroke-width:1" />
<!-- Node 22 -->
<circle cx="5" cy="42" r="2" style="fill:white;stroke:black;stroke-width:1" />
<!-- Node 23 -->
<circle cx="42" cy="9" r="2" style="fill:white;stroke:black;stroke-width:1" />
<!-- Node 24 -->
<circle cx="61" cy="62" r="2" style="fill:white;stroke:black;stroke-width:1" />
<!-- Node 25 -->
<circle cx="9" cy="97" r="2" style="fill:white;stroke:black;stroke-width:1" />
<!-- Node 26 -->
<circle cx="80" cy="55" r="2" style="fill:white;stroke:black;stroke-width:1" />
<!-- Node 27 -->
<circle cx="57" cy="69" r="2" style="fill:white;stroke:black;stroke-width:1" />
<!-- Node 28 -->
<circle cx="23" cy="15" r="2" style="fill:white;stroke:black;stroke-width:1" />
<!-- Node 29 -->
<circle cx="20" cy="70" r="2" style="fill:white;stroke:black;stroke-width:1" />
<!-- Node 30 -->
<circle cx="85" cy="60" r="2" style="fill:white;stroke:black;stroke-width:1" />
<!-- Node 31 -->
<circle cx="98" cy="5" r="2" style="fill:white;stroke:black;stroke-width:1" />
			</g>
		</g>
	</g>
</svg>
