<?xml version="1.0" standalone="no"?>
<!DOCTYPE svg PUBLIC "-//W3C//DTD SVG 1.1//EN"
"http://www.w3.org/Graphics/SVG/1.1/DTD/svg11.dtd">

<svg width="100%" height="100%" version="1.1"
xmlns="http://www.w3.org/2000/svg">

		<g transform="translate(20,20)">
		<g transform="scale(5)">
			<g transform="translate(-7,-5)">
<!-- Route #0: 35 34 26 4 2 12 -->
<path d="M61 99
L57 81
L49 77
L47 77
L39 75
L45 87
L39 99
Z" style="fill:none;stroke:#89310d;stroke-width:1"/>
<!-- Route #1: 40 20 16 7 18 -->
<path d="M61 99
L93 89
L93 69
L89 71
L87 79
L79 81
Z" style="fill:none;stroke:#9a02d2;stroke-width:1"/>
<!-- Route #2: 32 8 15 25 23 17 38 13 -->
<path d="M61 99
L67 75
L75 63
L85 31
L89 33
L93 33
L89 43
L81 61
L75 77
Z" style="fill:none;stroke:#4becab;stroke-width:1"/>
<!-- Route #3: 33 29 41 27 44 21 -->
<path d="M61 99
L41 27
L33 9
L17 13
L29 19
L35 35
L49 69
Z" style="fill:none;stroke:#b2ebe3;stroke-width:1"/>
<!-- Route #4: 39 14 31 19 36 30 5 -->
<path d="M61 99
L57 81
L49 37
L41 13
L45 5
L45 5
L63 9
L55 23
Z" style="fill:none;stroke:#cc8437;stroke-width:1"/>
<!-- Route #5: 42 1 37 22 10 9 -->
<path d="M61 99
L89 27
L95 7
L83 7
L63 25
L73 35
L65 61
Z" style="fill:none;stroke:#cfa44f;stroke-width:1"/>
<!-- Route #6: 24 11 43 3 28 6 -->
<path d="M61 99
L39 45
L17 35
L7 25
L15 47
L13 65
L29 71
Z" style="fill:none;stroke:#e22ccd;stroke-width:1"/>
<!-- Node 0 -->
<circle cx="61" cy="99" r="2" style="fill:red;stroke:black;stroke-width:1" />
<!-- Node 1 -->
<circle cx="95" cy="7" r="2" style="fill:white;stroke:black;stroke-width:1" />
<!-- Node 2 -->
<circle cx="45" cy="87" r="2" style="fill:white;stroke:black;stroke-width:1" />
<!-- Node 3 -->
<circle cx="15" cy="47" r="2" style="fill:white;stroke:black;stroke-width:1" />
<!-- Node 4 -->
<circle cx="39" cy="75" r="2" style="fill:white;stroke:black;stroke-width:1" />
<!-- Node 5 -->
<circle cx="55" cy="23" r="2" style="fill:white;stroke:black;stroke-width:1" />
<!-- Node 6 -->
<circle cx="29" cy="71" r="2" style="fill:white;stroke:black;stroke-width:1" />
<!-- Node 7 -->
<circle cx="87" cy="79" r="2" style="fill:white;stroke:black;stroke-width:1" />
<!-- Node 8 -->
<circle cx="75" cy="63" r="2" style="fill:white;stroke:black;stroke-width:1" />
<!-- Node 9 -->
<circle cx="65" cy="61" r="2" style="fill:white;stroke:black;stroke-width:1" />
<!-- Node 10 -->
<circle cx="73" cy="35" r="2" style="fill:white;stroke:black;stroke-width:1" />
<!-- Node 11 -->
<circle cx="17" cy="35" r="2" style="fill:white;stroke:black;stroke-width:1" />
<!-- Node 12 -->
<circle cx="39" cy="99" r="2" style="fill:white;stroke:black;stroke-width:1" />
<!-- Node 13 -->
<circle cx="75" cy="77" r="2" style="fill:white;stroke:black;stroke-width:1" />
<!-- Node 14 -->
<circle cx="49" cy="37" r="2" style="fill:white;stroke:black;stroke-width:1" />
<!-- Node 15 -->
<circle cx="85" cy="31" r="2" style="fill:white;stroke:black;stroke-width:1" />
<!-- Node 16 -->
<circle cx="89" cy="71" r="2" style="fill:white;stroke:black;stroke-width:1" />
<!-- Node 17 -->
<circle cx="89" cy="43" r="2" style="fill:white;stroke:black;stroke-width:1" />
<!-- Node 18 -->
<circle cx="79" cy="81" r="2" style="fill:white;stroke:black;stroke-width:1" />
<!-- Node 19 -->
<circle cx="45" cy="5" r="2" style="fill:white;stroke:black;stroke-width:1" />
<!-- Node 20 -->
<circle cx="93" cy="69" r="2" style="fill:white;stroke:black;stroke-width:1" />
<!-- Node 21 -->
<circle cx="49" cy="69" r="2" style="fill:white;stroke:black;stroke-width:1" />
<!-- Node 22 -->
<circle cx="63" cy="25" r="2" style="fill:white;stroke:black;stroke-width:1" />
<!-- Node 23 -->
<circle cx="93" cy="33" r="2" style="fill:white;stroke:black;stroke-width:1" />
<!-- Node 24 -->
<circle cx="39" cy="45" r="2" style="fill:white;stroke:black;stroke-width:1" />
<!-- Node 25 -->
<circle cx="89" cy="33" r="2" style="fill:white;stroke:black;stroke-width:1" />
<!-- Node 26 -->
<circle cx="47" cy="77" r="2" style="fill:white;stroke:black;stroke-width:1" />
<!-- Node 27 -->
<circle cx="29" cy="19" r="2" style="fill:white;stroke:black;stroke-width:1" />
<!-- Node 28 -->
<circle cx="13" cy="65" r="2" style="fill:white;stroke:black;stroke-width:1" />
<!-- Node 29 -->
<circle cx="33" cy="9" r="2" style="fill:white;stroke:black;stroke-width:1" />
<!-- Node 30 -->
<circle cx="63" cy="9" r="2" style="fill:white;stroke:black;stroke-width:1" />
<!-- Node 31 -->
<circle cx="41" cy="13" r="2" style="fill:white;stroke:black;stroke-width:1" />
<!-- Node 32 -->
<circle cx="67" cy="75" r="2" style="fill:white;stroke:black;stroke-width:1" />
<!-- Node 33 -->
<circle cx="41" cy="27" r="2" style="fill:white;stroke:black;stroke-width:1" />
<!-- Node 34 -->
<circle cx="49" cy="77" r="2" style="fill:white;stroke:black;stroke-width:1" />
<!-- Node 35 -->
<circle cx="57" cy="81" r="2" style="fill:white;stroke:black;stroke-width:1" />
<!-- Node 36 -->
<circle cx="45" cy="5" r="2" style="fill:white;stroke:black;stroke-width:1" />
<!-- Node 37 -->
<circle cx="83" cy="7" r="2" style="fill:white;stroke:black;stroke-width:1" />
<!-- Node 38 -->
<circle cx="81" cy="61" r="2" style="fill:white;stroke:black;stroke-width:1" />
<!-- Node 39 -->
<circle cx="57" cy="81" r="2" style="fill:white;stroke:black;stroke-width:1" />
<!-- Node 40 -->
<circle cx="93" cy="89" r="2" style="fill:white;stroke:black;stroke-width:1" />
<!-- Node 41 -->
<circle cx="17" cy="13" r="2" style="fill:white;stroke:black;stroke-width:1" />
<!-- Node 42 -->
<circle cx="89" cy="27" r="2" style="fill:white;stroke:black;stroke-width:1" />
<!-- Node 43 -->
<circle cx="7" cy="25" r="2" style="fill:white;stroke:black;stroke-width:1" />
<!-- Node 44 -->
<circle cx="35" cy="35" r="2" style="fill:white;stroke:black;stroke-width:1" />
			</g>
		</g>
	</g>
</svg>
