<?xml version="1.0" standalone="no"?>
<!DOCTYPE svg PUBLIC "-//W3C//DTD SVG 1.1//EN"
"http://www.w3.org/Graphics/SVG/1.1/DTD/svg11.dtd">

<svg width="100%" height="100%" version="1.1"
xmlns="http://www.w3.org/2000/svg">

	<g transform="translate(10,10)">
		<g transform="scale(5)">
<!-- Route #0: 29 43 40 1 35 18 23 12 -->
<path d="M14 68
L38 23
L34 12
L48 23
L73 2
L73 1
L87 1
L58 32
L42 48
Z" style="fill:none;stroke:#d55dc0;stroke-width:1"/>
<!-- Route #1: 22 36 9 38 13 14 41 2 -->
<path d="M14 68
L22 39
L17 32
L17 28
L12 24
L1 2
L2 28
L7 37
L13 47
Z" style="fill:none;stroke:#2c3099;stroke-width:1"/>
<!-- Route #2: 39 30 20 16 11 26 34 -->
<path d="M14 68
L48 53
L63 32
L83 27
L97 38
L78 63
L63 59
L43 62
Z" style="fill:none;stroke:#55e06a;stroke-width:1"/>
<!-- Route #3: 6 25 3 17 4 -->
<path d="M14 68
L33 42
L38 37
L37 44
L39 53
L34 63
Z" style="fill:none;stroke:#000fc7;stroke-width:1"/>
<!-- Route #4: 31 19 27 28 15 8 -->
<path d="M14 68
L22 73
L42 77
L42 88
L32 88
L32 82
L24 79
Z" style="fill:none;stroke:#534104;stroke-width:1"/>
<!-- Route #5: 24 33 10 37 42 32 21 5 7 -->
<path d="M14 68
L53 84
L58 78
L72 67
L87 79
L98 77
L88 94
L79 92
L58 98
L18 98
Z" style="fill:none;stroke:#71da97;stroke-width:1"/>
<!-- Node 0 -->
<circle cx="14" cy="68" r="2" style="fill:red;stroke:black;stroke-width:1" />
<!-- Node 1 -->
<circle cx="73" cy="2" r="2" style="fill:white;stroke:black;stroke-width:1" />
<!-- Node 2 -->
<circle cx="13" cy="47" r="2" style="fill:white;stroke:black;stroke-width:1" />
<!-- Node 3 -->
<circle cx="37" cy="44" r="2" style="fill:white;stroke:black;stroke-width:1" />
<!-- Node 4 -->
<circle cx="34" cy="63" r="2" style="fill:white;stroke:black;stroke-width:1" />
<!-- Node 5 -->
<circle cx="58" cy="98" r="2" style="fill:white;stroke:black;stroke-width:1" />
<!-- Node 6 -->
<circle cx="33" cy="42" r="2" style="fill:white;stroke:black;stroke-width:1" />
<!-- Node 7 -->
<circle cx="18" cy="98" r="2" style="fill:white;stroke:black;stroke-width:1" />
<!-- Node 8 -->
<circle cx="24" cy="79" r="2" style="fill:white;stroke:black;stroke-width:1" />
<!-- Node 9 -->
<circle cx="17" cy="28" r="2" style="fill:white;stroke:black;stroke-width:1" />
<!-- Node 10 -->
<circle cx="72" cy="67" r="2" style="fill:white;stroke:black;stroke-width:1" />
<!-- Node 11 -->
<circle cx="78" cy="63" r="2" style="fill:white;stroke:black;stroke-width:1" />
<!-- Node 12 -->
<circle cx="42" cy="48" r="2" style="fill:white;stroke:black;stroke-width:1" />
<!-- Node 13 -->
<circle cx="1" cy="2" r="2" style="fill:white;stroke:black;stroke-width:1" />
<!-- Node 14 -->
<circle cx="2" cy="28" r="2" style="fill:white;stroke:black;stroke-width:1" />
<!-- Node 15 -->
<circle cx="32" cy="82" r="2" style="fill:white;stroke:black;stroke-width:1" />
<!-- Node 16 -->
<circle cx="97" cy="38" r="2" style="fill:white;stroke:black;stroke-width:1" />
<!-- Node 17 -->
<circle cx="39" cy="53" r="2" style="fill:white;stroke:black;stroke-width:1" />
<!-- Node 18 -->
<circle cx="87" cy="1" r="2" style="fill:white;stroke:black;stroke-width:1" />
<!-- Node 19 -->
<circle cx="42" cy="77" r="2" style="fill:white;stroke:black;stroke-width:1" />
<!-- Node 20 -->
<circle cx="83" cy="27" r="2" style="fill:white;stroke:black;stroke-width:1" />
<!-- Node 21 -->
<circle cx="79" cy="92" r="2" style="fill:white;stroke:black;stroke-width:1" />
<!-- Node 22 -->
<circle cx="22" cy="39" r="2" style="fill:white;stroke:black;stroke-width:1" />
<!-- Node 23 -->
<circle cx="58" cy="32" r="2" style="fill:white;stroke:black;stroke-width:1" />
<!-- Node 24 -->
<circle cx="53" cy="84" r="2" style="fill:white;stroke:black;stroke-width:1" />
<!-- Node 25 -->
<circle cx="38" cy="37" r="2" style="fill:white;stroke:black;stroke-width:1" />
<!-- Node 26 -->
<circle cx="63" cy="59" r="2" style="fill:white;stroke:black;stroke-width:1" />
<!-- Node 27 -->
<circle cx="42" cy="88" r="2" style="fill:white;stroke:black;stroke-width:1" />
<!-- Node 28 -->
<circle cx="32" cy="88" r="2" style="fill:white;stroke:black;stroke-width:1" />
<!-- Node 29 -->
<circle cx="38" cy="23" r="2" style="fill:white;stroke:black;stroke-width:1" />
<!-- Node 30 -->
<circle cx="63" cy="32" r="2" style="fill:white;stroke:black;stroke-width:1" />
<!-- Node 31 -->
<circle cx="22" cy="73" r="2" style="fill:white;stroke:black;stroke-width:1" />
<!-- Node 32 -->
<circle cx="88" cy="94" r="2" style="fill:white;stroke:black;stroke-width:1" />
<!-- Node 33 -->
<circle cx="58" cy="78" r="2" style="fill:white;stroke:black;stroke-width:1" />
<!-- Node 34 -->
<circle cx="43" cy="62" r="2" style="fill:white;stroke:black;stroke-width:1" />
<!-- Node 35 -->
<circle cx="73" cy="1" r="2" style="fill:white;stroke:black;stroke-width:1" />
<!-- Node 36 -->
<circle cx="17" cy="32" r="2" style="fill:white;stroke:black;stroke-width:1" />
<!-- Node 37 -->
<circle cx="87" cy="79" r="2" style="fill:white;stroke:black;stroke-width:1" />
<!-- Node 38 -->
<circle cx="12" cy="24" r="2" style="fill:white;stroke:black;stroke-width:1" />
<!-- Node 39 -->
<circle cx="48" cy="53" r="2" style="fill:white;stroke:black;stroke-width:1" />
<!-- Node 40 -->
<circle cx="48" cy="23" r="2" style="fill:white;stroke:black;stroke-width:1" />
<!-- Node 41 -->
<circle cx="7" cy="37" r="2" style="fill:white;stroke:black;stroke-width:1" />
<!-- Node 42 -->
<circle cx="98" cy="77" r="2" style="fill:white;stroke:black;stroke-width:1" />
<!-- Node 43 -->
<circle cx="34" cy="12" r="2" style="fill:white;stroke:black;stroke-width:1" />
		</g>
	</g>
</svg>
