<?xml version="1.0" standalone="no"?>
<!DOCTYPE svg PUBLIC "-//W3C//DTD SVG 1.1//EN"
"http://www.w3.org/Graphics/SVG/1.1/DTD/svg11.dtd">

<svg width="100%" height="100%" version="1.1"
xmlns="http://www.w3.org/2000/svg"
xmlns:xlink="http://www.w3.org/1999/xlink">

	<g transform="translate(20,20)">
		<g transform="scale(5.000000)">
			<g transform="translate(-1,-1)">
			<title>A-n48-k7</title>
			<desc>(null)</desc>
<!-- Route #0: 14 17 47 10 2 41 -->
<path d="M47 5
L57 11
L61 13
L75 31
L89 45
L97 35
L83 7
Z" style="fill:none;stroke:#15951c;stroke-width:1.400000"/>
<!-- Route #1: 23 43 31 1 5 12 -->
<path d="M47 5
L21 11
L13 11
L11 9
L1 19
L3 9
L11 1
Z" style="fill:none;stroke:#08bd80;stroke-width:1.400000"/>
<!-- Route #2: 34 9 24 4 11 42 15 27 45 -->
<path d="M47 5
L63 63
L67 73
L77 81
L77 87
L71 99
L69 91
L57 85
L53 75
L53 59
Z" style="fill:none;stroke:#b7021e;stroke-width:1.400000"/>
<!-- Route #3: 40 7 8 39 26 20 3 37 -->
<path d="M47 5
L45 43
L41 53
L51 87
L47 93
L47 95
L43 99
L23 79
L23 63
Z" style="fill:none;stroke:#09ade3;stroke-width:1.400000"/>
<!-- Route #4: 32 36 38 19 25 22 6 -->
<path d="M47 5
L27 37
L33 47
L13 55
L13 59
L3 63
L11 37
L5 27
Z" style="fill:none;stroke:#b22e64;stroke-width:1.400000"/>
<!-- Route #5: 44 35 18 -->
<path d="M47 5
L37 15
L37 21
L39 15
Z" style="fill:none;stroke:#0589af;stroke-width:1.400000"/>
<!-- Route #6: 28 29 21 30 13 46 33 16 -->
<path d="M47 5
L73 55
L81 71
L87 73
L89 75
L85 85
L97 83
L95 59
L71 33
Z" style="fill:none;stroke:#bb7a95;stroke-width:1.400000"/>
<!-- Node 0 -->
<circle cx="47" cy="5" r="2.800000" style="fill:red;stroke:black;stroke-width:1.400000" />
<!-- Node 1 -->
<circle cx="1" cy="19" r="2.800000" style="fill:white;stroke:black;stroke-width:1.400000" />
<!-- Node 2 -->
<circle cx="97" cy="35" r="2.800000" style="fill:white;stroke:black;stroke-width:1.400000" />
<!-- Node 3 -->
<circle cx="23" cy="79" r="2.800000" style="fill:white;stroke:black;stroke-width:1.400000" />
<!-- Node 4 -->
<circle cx="77" cy="87" r="2.800000" style="fill:white;stroke:black;stroke-width:1.400000" />
<!-- Node 5 -->
<circle cx="3" cy="9" r="2.800000" style="fill:white;stroke:black;stroke-width:1.400000" />
<!-- Node 6 -->
<circle cx="5" cy="27" r="2.800000" style="fill:white;stroke:black;stroke-width:1.400000" />
<!-- Node 7 -->
<circle cx="41" cy="53" r="2.800000" style="fill:white;stroke:black;stroke-width:1.400000" />
<!-- Node 8 -->
<circle cx="51" cy="87" r="2.800000" style="fill:white;stroke:black;stroke-width:1.400000" />
<!-- Node 9 -->
<circle cx="67" cy="73" r="2.800000" style="fill:white;stroke:black;stroke-width:1.400000" />
<!-- Node 10 -->
<circle cx="89" cy="45" r="2.800000" style="fill:white;stroke:black;stroke-width:1.400000" />
<!-- Node 11 -->
<circle cx="71" cy="99" r="2.800000" style="fill:white;stroke:black;stroke-width:1.400000" />
<!-- Node 12 -->
<circle cx="11" cy="1" r="2.800000" style="fill:white;stroke:black;stroke-width:1.400000" />
<!-- Node 13 -->
<circle cx="85" cy="85" r="2.800000" style="fill:white;stroke:black;stroke-width:1.400000" />
<!-- Node 14 -->
<circle cx="57" cy="11" r="2.800000" style="fill:white;stroke:black;stroke-width:1.400000" />
<!-- Node 15 -->
<circle cx="57" cy="85" r="2.800000" style="fill:white;stroke:black;stroke-width:1.400000" />
<!-- Node 16 -->
<circle cx="71" cy="33" r="2.800000" style="fill:white;stroke:black;stroke-width:1.400000" />
<!-- Node 17 -->
<circle cx="61" cy="13" r="2.800000" style="fill:white;stroke:black;stroke-width:1.400000" />
<!-- Node 18 -->
<circle cx="39" cy="15" r="2.800000" style="fill:white;stroke:black;stroke-width:1.400000" />
<!-- Node 19 -->
<circle cx="13" cy="59" r="2.800000" style="fill:white;stroke:black;stroke-width:1.400000" />
<!-- Node 20 -->
<circle cx="43" cy="99" r="2.800000" style="fill:white;stroke:black;stroke-width:1.400000" />
<!-- Node 21 -->
<circle cx="87" cy="73" r="2.800000" style="fill:white;stroke:black;stroke-width:1.400000" />
<!-- Node 22 -->
<circle cx="11" cy="37" r="2.800000" style="fill:white;stroke:black;stroke-width:1.400000" />
<!-- Node 23 -->
<circle cx="21" cy="11" r="2.800000" style="fill:white;stroke:black;stroke-width:1.400000" />
<!-- Node 24 -->
<circle cx="77" cy="81" r="2.800000" style="fill:white;stroke:black;stroke-width:1.400000" />
<!-- Node 25 -->
<circle cx="3" cy="63" r="2.800000" style="fill:white;stroke:black;stroke-width:1.400000" />
<!-- Node 26 -->
<circle cx="47" cy="95" r="2.800000" style="fill:white;stroke:black;stroke-width:1.400000" />
<!-- Node 27 -->
<circle cx="53" cy="75" r="2.800000" style="fill:white;stroke:black;stroke-width:1.400000" />
<!-- Node 28 -->
<circle cx="73" cy="55" r="2.800000" style="fill:white;stroke:black;stroke-width:1.400000" />
<!-- Node 29 -->
<circle cx="81" cy="71" r="2.800000" style="fill:white;stroke:black;stroke-width:1.400000" />
<!-- Node 30 -->
<circle cx="89" cy="75" r="2.800000" style="fill:white;stroke:black;stroke-width:1.400000" />
<!-- Node 31 -->
<circle cx="11" cy="9" r="2.800000" style="fill:white;stroke:black;stroke-width:1.400000" />
<!-- Node 32 -->
<circle cx="27" cy="37" r="2.800000" style="fill:white;stroke:black;stroke-width:1.400000" />
<!-- Node 33 -->
<circle cx="95" cy="59" r="2.800000" style="fill:white;stroke:black;stroke-width:1.400000" />
<!-- Node 34 -->
<circle cx="63" cy="63" r="2.800000" style="fill:white;stroke:black;stroke-width:1.400000" />
<!-- Node 35 -->
<circle cx="37" cy="21" r="2.800000" style="fill:white;stroke:black;stroke-width:1.400000" />
<!-- Node 36 -->
<circle cx="33" cy="47" r="2.800000" style="fill:white;stroke:black;stroke-width:1.400000" />
<!-- Node 37 -->
<circle cx="23" cy="63" r="2.800000" style="fill:white;stroke:black;stroke-width:1.400000" />
<!-- Node 38 -->
<circle cx="13" cy="55" r="2.800000" style="fill:white;stroke:black;stroke-width:1.400000" />
<!-- Node 39 -->
<circle cx="47" cy="93" r="2.800000" style="fill:white;stroke:black;stroke-width:1.400000" />
<!-- Node 40 -->
<circle cx="45" cy="43" r="2.800000" style="fill:white;stroke:black;stroke-width:1.400000" />
<!-- Node 41 -->
<circle cx="83" cy="7" r="2.800000" style="fill:white;stroke:black;stroke-width:1.400000" />
<!-- Node 42 -->
<circle cx="69" cy="91" r="2.800000" style="fill:white;stroke:black;stroke-width:1.400000" />
<!-- Node 43 -->
<circle cx="13" cy="11" r="2.800000" style="fill:white;stroke:black;stroke-width:1.400000" />
<!-- Node 44 -->
<circle cx="37" cy="15" r="2.800000" style="fill:white;stroke:black;stroke-width:1.400000" />
<!-- Node 45 -->
<circle cx="53" cy="59" r="2.800000" style="fill:white;stroke:black;stroke-width:1.400000" />
<!-- Node 46 -->
<circle cx="97" cy="83" r="2.800000" style="fill:white;stroke:black;stroke-width:1.400000" />
<!-- Node 47 -->
<circle cx="75" cy="31" r="2.800000" style="fill:white;stroke:black;stroke-width:1.400000" />
			</g>
		</g>
	</g>
</svg>
