<?xml version="1.0" standalone="no"?>
<!DOCTYPE svg PUBLIC "-//W3C//DTD SVG 1.1//EN"
"http://www.w3.org/Graphics/SVG/1.1/DTD/svg11.dtd">

<svg width="100%" height="100%" version="1.1"
xmlns="http://www.w3.org/2000/svg">

		<g transform="translate(20,20)">
		<g transform="scale(5)">
			<g transform="translate(-7,-5)">
<!-- Route #0: 8 42 1 37 30 5 22 -->
<path d="M61 99
L75 63
L89 27
L95 7
L83 7
L63 9
L55 23
L63 25
Z" style="fill:none;stroke:#be6692;stroke-width:1"/>
<!-- Route #1: 13 38 17 23 25 15 10 -->
<path d="M61 99
L75 77
L81 61
L89 43
L93 33
L89 33
L85 31
L73 35
Z" style="fill:none;stroke:#8b1686;stroke-width:1"/>
<!-- Route #2: 18 7 16 20 40 -->
<path d="M61 99
L79 81
L87 79
L89 71
L93 69
L93 89
Z" style="fill:none;stroke:#cffe5a;stroke-width:1"/>
<!-- Route #3: 39 21 24 44 14 9 32 -->
<path d="M61 99
L57 81
L49 69
L39 45
L35 35
L49 37
L65 61
L67 75
Z" style="fill:none;stroke:#223d4c;stroke-width:1"/>
<!-- Route #4: 33 29 19 36 31 -->
<path d="M61 99
L41 27
L33 9
L45 5
L45 5
L41 13
Z" style="fill:none;stroke:#b9e7c5;stroke-width:1"/>
<!-- Route #5: 27 41 43 11 3 28 6 2 -->
<path d="M61 99
L29 19
L17 13
L7 25
L17 35
L15 47
L13 65
L29 71
L45 87
Z" style="fill:none;stroke:#83bb0d;stroke-width:1"/>
<!-- Route #6: 12 4 26 34 35 -->
<path d="M61 99
L39 99
L39 75
L47 77
L49 77
L57 81
Z" style="fill:none;stroke:#06368e;stroke-width:1"/>
<!-- Node 0 -->
<circle cx="61" cy="99" r="2" style="fill:red;stroke:black;stroke-width:1" />
<!-- Node 1 -->
<circle cx="95" cy="7" r="2" style="fill:white;stroke:black;stroke-width:1" />
<!-- Node 2 -->
<circle cx="45" cy="87" r="2" style="fill:white;stroke:black;stroke-width:1" />
<!-- Node 3 -->
<circle cx="15" cy="47" r="2" style="fill:white;stroke:black;stroke-width:1" />
<!-- Node 4 -->
<circle cx="39" cy="75" r="2" style="fill:white;stroke:black;stroke-width:1" />
<!-- Node 5 -->
<circle cx="55" cy="23" r="2" style="fill:white;stroke:black;stroke-width:1" />
<!-- Node 6 -->
<circle cx="29" cy="71" r="2" style="fill:white;stroke:black;stroke-width:1" />
<!-- Node 7 -->
<circle cx="87" cy="79" r="2" style="fill:white;stroke:black;stroke-width:1" />
<!-- Node 8 -->
<circle cx="75" cy="63" r="2" style="fill:white;stroke:black;stroke-width:1" />
<!-- Node 9 -->
<circle cx="65" cy="61" r="2" style="fill:white;stroke:black;stroke-width:1" />
<!-- Node 10 -->
<circle cx="73" cy="35" r="2" style="fill:white;stroke:black;stroke-width:1" />
<!-- Node 11 -->
<circle cx="17" cy="35" r="2" style="fill:white;stroke:black;stroke-width:1" />
<!-- Node 12 -->
<circle cx="39" cy="99" r="2" style="fill:white;stroke:black;stroke-width:1" />
<!-- Node 13 -->
<circle cx="75" cy="77" r="2" style="fill:white;stroke:black;stroke-width:1" />
<!-- Node 14 -->
<circle cx="49" cy="37" r="2" style="fill:white;stroke:black;stroke-width:1" />
<!-- Node 15 -->
<circle cx="85" cy="31" r="2" style="fill:white;stroke:black;stroke-width:1" />
<!-- Node 16 -->
<circle cx="89" cy="71" r="2" style="fill:white;stroke:black;stroke-width:1" />
<!-- Node 17 -->
<circle cx="89" cy="43" r="2" style="fill:white;stroke:black;stroke-width:1" />
<!-- Node 18 -->
<circle cx="79" cy="81" r="2" style="fill:white;stroke:black;stroke-width:1" />
<!-- Node 19 -->
<circle cx="45" cy="5" r="2" style="fill:white;stroke:black;stroke-width:1" />
<!-- Node 20 -->
<circle cx="93" cy="69" r="2" style="fill:white;stroke:black;stroke-width:1" />
<!-- Node 21 -->
<circle cx="49" cy="69" r="2" style="fill:white;stroke:black;stroke-width:1" />
<!-- Node 22 -->
<circle cx="63" cy="25" r="2" style="fill:white;stroke:black;stroke-width:1" />
<!-- Node 23 -->
<circle cx="93" cy="33" r="2" style="fill:white;stroke:black;stroke-width:1" />
<!-- Node 24 -->
<circle cx="39" cy="45" r="2" style="fill:white;stroke:black;stroke-width:1" />
<!-- Node 25 -->
<circle cx="89" cy="33" r="2" style="fill:white;stroke:black;stroke-width:1" />
<!-- Node 26 -->
<circle cx="47" cy="77" r="2" style="fill:white;stroke:black;stroke-width:1" />
<!-- Node 27 -->
<circle cx="29" cy="19" r="2" style="fill:white;stroke:black;stroke-width:1" />
<!-- Node 28 -->
<circle cx="13" cy="65" r="2" style="fill:white;stroke:black;stroke-width:1" />
<!-- Node 29 -->
<circle cx="33" cy="9" r="2" style="fill:white;stroke:black;stroke-width:1" />
<!-- Node 30 -->
<circle cx="63" cy="9" r="2" style="fill:white;stroke:black;stroke-width:1" />
<!-- Node 31 -->
<circle cx="41" cy="13" r="2" style="fill:white;stroke:black;stroke-width:1" />
<!-- Node 32 -->
<circle cx="67" cy="75" r="2" style="fill:white;stroke:black;stroke-width:1" />
<!-- Node 33 -->
<circle cx="41" cy="27" r="2" style="fill:white;stroke:black;stroke-width:1" />
<!-- Node 34 -->
<circle cx="49" cy="77" r="2" style="fill:white;stroke:black;stroke-width:1" />
<!-- Node 35 -->
<circle cx="57" cy="81" r="2" style="fill:white;stroke:black;stroke-width:1" />
<!-- Node 36 -->
<circle cx="45" cy="5" r="2" style="fill:white;stroke:black;stroke-width:1" />
<!-- Node 37 -->
<circle cx="83" cy="7" r="2" style="fill:white;stroke:black;stroke-width:1" />
<!-- Node 38 -->
<circle cx="81" cy="61" r="2" style="fill:white;stroke:black;stroke-width:1" />
<!-- Node 39 -->
<circle cx="57" cy="81" r="2" style="fill:white;stroke:black;stroke-width:1" />
<!-- Node 40 -->
<circle cx="93" cy="89" r="2" style="fill:white;stroke:black;stroke-width:1" />
<!-- Node 41 -->
<circle cx="17" cy="13" r="2" style="fill:white;stroke:black;stroke-width:1" />
<!-- Node 42 -->
<circle cx="89" cy="27" r="2" style="fill:white;stroke:black;stroke-width:1" />
<!-- Node 43 -->
<circle cx="7" cy="25" r="2" style="fill:white;stroke:black;stroke-width:1" />
<!-- Node 44 -->
<circle cx="35" cy="35" r="2" style="fill:white;stroke:black;stroke-width:1" />
			</g>
		</g>
	</g>
</svg>
