<?xml version="1.0" standalone="no"?>
<!DOCTYPE svg PUBLIC "-//W3C//DTD SVG 1.1//EN"
"http://www.w3.org/Graphics/SVG/1.1/DTD/svg11.dtd">

<svg width="100%" height="100%" version="1.1"
xmlns="http://www.w3.org/2000/svg"
xmlns:xlink="http://www.w3.org/1999/xlink">

	<g transform="translate(20,20)">
		<g transform="scale(5.000000)">
			<g transform="translate(-1,-1)">
			<title>A-n53-k7</title>
			<desc>(null)</desc>
<!-- Route #0: 9 16 32 15 19 23 43 50 36 2 37 -->
<path d="M24 63
L36 30
L75 10
L83 6
L98 1
L96 9
L95 21
L93 30
L95 42
L88 51
L79 46
L77 51
Z" style="fill:none;stroke:#ae3a89;stroke-width:1.400000"/>
<!-- Route #1: 4 28 17 41 11 24 52 34 -->
<path d="M24 63
L42 50
L48 49
L39 23
L36 17
L30 6
L30 6
L18 1
L18 8
Z" style="fill:none;stroke:#a5433c;stroke-width:1.400000"/>
<!-- Route #2: 47 7 12 48 42 45 22 -->
<path d="M24 63
L37 37
L47 30
L55 29
L78 20
L85 23
L71 34
L52 49
Z" style="fill:none;stroke:#1e8cf6;stroke-width:1.400000"/>
<!-- Route #3: 51 46 8 35 27 -->
<path d="M24 63
L44 71
L56 73
L54 77
L53 86
L50 79
Z" style="fill:none;stroke:#9e4a1c;stroke-width:1.400000"/>
<!-- Route #4: 33 6 20 31 -->
<path d="M24 63
L3 77
L29 96
L27 87
L34 78
Z" style="fill:none;stroke:#2a08f5;stroke-width:1.400000"/>
<!-- Route #5: 39 3 5 14 13 21 25 -->
<path d="M24 63
L12 44
L3 45
L3 40
L1 19
L13 2
L14 16
L18 40
Z" style="fill:none;stroke:#74f1eb;stroke-width:1.400000"/>
<!-- Route #6: 1 30 44 29 49 10 26 40 18 38 -->
<path d="M24 63
L35 60
L64 62
L68 67
L82 73
L88 69
L83 86
L82 90
L70 88
L62 91
L58 89
Z" style="fill:none;stroke:#c35dc1;stroke-width:1.400000"/>
<!-- Node 0 -->
<circle cx="24" cy="63" r="2.800000" style="fill:red;stroke:black;stroke-width:1.400000" />
<!-- Node 1 -->
<circle cx="35" cy="60" r="2.800000" style="fill:white;stroke:black;stroke-width:1.400000" />
<!-- Node 2 -->
<circle cx="79" cy="46" r="2.800000" style="fill:white;stroke:black;stroke-width:1.400000" />
<!-- Node 3 -->
<circle cx="3" cy="45" r="2.800000" style="fill:white;stroke:black;stroke-width:1.400000" />
<!-- Node 4 -->
<circle cx="42" cy="50" r="2.800000" style="fill:white;stroke:black;stroke-width:1.400000" />
<!-- Node 5 -->
<circle cx="3" cy="40" r="2.800000" style="fill:white;stroke:black;stroke-width:1.400000" />
<!-- Node 6 -->
<circle cx="29" cy="96" r="2.800000" style="fill:white;stroke:black;stroke-width:1.400000" />
<!-- Node 7 -->
<circle cx="47" cy="30" r="2.800000" style="fill:white;stroke:black;stroke-width:1.400000" />
<!-- Node 8 -->
<circle cx="54" cy="77" r="2.800000" style="fill:white;stroke:black;stroke-width:1.400000" />
<!-- Node 9 -->
<circle cx="36" cy="30" r="2.800000" style="fill:white;stroke:black;stroke-width:1.400000" />
<!-- Node 10 -->
<circle cx="83" cy="86" r="2.800000" style="fill:white;stroke:black;stroke-width:1.400000" />
<!-- Node 11 -->
<circle cx="30" cy="6" r="2.800000" style="fill:white;stroke:black;stroke-width:1.400000" />
<!-- Node 12 -->
<circle cx="55" cy="29" r="2.800000" style="fill:white;stroke:black;stroke-width:1.400000" />
<!-- Node 13 -->
<circle cx="13" cy="2" r="2.800000" style="fill:white;stroke:black;stroke-width:1.400000" />
<!-- Node 14 -->
<circle cx="1" cy="19" r="2.800000" style="fill:white;stroke:black;stroke-width:1.400000" />
<!-- Node 15 -->
<circle cx="98" cy="1" r="2.800000" style="fill:white;stroke:black;stroke-width:1.400000" />
<!-- Node 16 -->
<circle cx="75" cy="10" r="2.800000" style="fill:white;stroke:black;stroke-width:1.400000" />
<!-- Node 17 -->
<circle cx="39" cy="23" r="2.800000" style="fill:white;stroke:black;stroke-width:1.400000" />
<!-- Node 18 -->
<circle cx="62" cy="91" r="2.800000" style="fill:white;stroke:black;stroke-width:1.400000" />
<!-- Node 19 -->
<circle cx="96" cy="9" r="2.800000" style="fill:white;stroke:black;stroke-width:1.400000" />
<!-- Node 20 -->
<circle cx="27" cy="87" r="2.800000" style="fill:white;stroke:black;stroke-width:1.400000" />
<!-- Node 21 -->
<circle cx="14" cy="16" r="2.800000" style="fill:white;stroke:black;stroke-width:1.400000" />
<!-- Node 22 -->
<circle cx="52" cy="49" r="2.800000" style="fill:white;stroke:black;stroke-width:1.400000" />
<!-- Node 23 -->
<circle cx="95" cy="21" r="2.800000" style="fill:white;stroke:black;stroke-width:1.400000" />
<!-- Node 24 -->
<circle cx="30" cy="6" r="2.800000" style="fill:white;stroke:black;stroke-width:1.400000" />
<!-- Node 25 -->
<circle cx="18" cy="40" r="2.800000" style="fill:white;stroke:black;stroke-width:1.400000" />
<!-- Node 26 -->
<circle cx="82" cy="90" r="2.800000" style="fill:white;stroke:black;stroke-width:1.400000" />
<!-- Node 27 -->
<circle cx="50" cy="79" r="2.800000" style="fill:white;stroke:black;stroke-width:1.400000" />
<!-- Node 28 -->
<circle cx="48" cy="49" r="2.800000" style="fill:white;stroke:black;stroke-width:1.400000" />
<!-- Node 29 -->
<circle cx="82" cy="73" r="2.800000" style="fill:white;stroke:black;stroke-width:1.400000" />
<!-- Node 30 -->
<circle cx="64" cy="62" r="2.800000" style="fill:white;stroke:black;stroke-width:1.400000" />
<!-- Node 31 -->
<circle cx="34" cy="78" r="2.800000" style="fill:white;stroke:black;stroke-width:1.400000" />
<!-- Node 32 -->
<circle cx="83" cy="6" r="2.800000" style="fill:white;stroke:black;stroke-width:1.400000" />
<!-- Node 33 -->
<circle cx="3" cy="77" r="2.800000" style="fill:white;stroke:black;stroke-width:1.400000" />
<!-- Node 34 -->
<circle cx="18" cy="8" r="2.800000" style="fill:white;stroke:black;stroke-width:1.400000" />
<!-- Node 35 -->
<circle cx="53" cy="86" r="2.800000" style="fill:white;stroke:black;stroke-width:1.400000" />
<!-- Node 36 -->
<circle cx="88" cy="51" r="2.800000" style="fill:white;stroke:black;stroke-width:1.400000" />
<!-- Node 37 -->
<circle cx="77" cy="51" r="2.800000" style="fill:white;stroke:black;stroke-width:1.400000" />
<!-- Node 38 -->
<circle cx="58" cy="89" r="2.800000" style="fill:white;stroke:black;stroke-width:1.400000" />
<!-- Node 39 -->
<circle cx="12" cy="44" r="2.800000" style="fill:white;stroke:black;stroke-width:1.400000" />
<!-- Node 40 -->
<circle cx="70" cy="88" r="2.800000" style="fill:white;stroke:black;stroke-width:1.400000" />
<!-- Node 41 -->
<circle cx="36" cy="17" r="2.800000" style="fill:white;stroke:black;stroke-width:1.400000" />
<!-- Node 42 -->
<circle cx="85" cy="23" r="2.800000" style="fill:white;stroke:black;stroke-width:1.400000" />
<!-- Node 43 -->
<circle cx="93" cy="30" r="2.800000" style="fill:white;stroke:black;stroke-width:1.400000" />
<!-- Node 44 -->
<circle cx="68" cy="67" r="2.800000" style="fill:white;stroke:black;stroke-width:1.400000" />
<!-- Node 45 -->
<circle cx="71" cy="34" r="2.800000" style="fill:white;stroke:black;stroke-width:1.400000" />
<!-- Node 46 -->
<circle cx="56" cy="73" r="2.800000" style="fill:white;stroke:black;stroke-width:1.400000" />
<!-- Node 47 -->
<circle cx="37" cy="37" r="2.800000" style="fill:white;stroke:black;stroke-width:1.400000" />
<!-- Node 48 -->
<circle cx="78" cy="20" r="2.800000" style="fill:white;stroke:black;stroke-width:1.400000" />
<!-- Node 49 -->
<circle cx="88" cy="69" r="2.800000" style="fill:white;stroke:black;stroke-width:1.400000" />
<!-- Node 50 -->
<circle cx="95" cy="42" r="2.800000" style="fill:white;stroke:black;stroke-width:1.400000" />
<!-- Node 51 -->
<circle cx="44" cy="71" r="2.800000" style="fill:white;stroke:black;stroke-width:1.400000" />
<!-- Node 52 -->
<circle cx="18" cy="1" r="2.800000" style="fill:white;stroke:black;stroke-width:1.400000" />
			</g>
		</g>
	</g>
</svg>
