<?xml version="1.0" standalone="no"?>
<!DOCTYPE svg PUBLIC "-//W3C//DTD SVG 1.1//EN"
"http://www.w3.org/Graphics/SVG/1.1/DTD/svg11.dtd">

<svg width="100%" height="100%" version="1.1"
xmlns="http://www.w3.org/2000/svg"
xmlns:xlink="http://www.w3.org/1999/xlink">

	<g transform="translate(20,20)">
		<g transform="scale(4.000000)">
			<g transform="translate(-208,-181)">
			<title>E-n23-k3</title>
			<desc>(null)</desc>
<!-- Route #0: 21 4 5 8 9 7 -->
<path d="M266 235
L208 217
L217 274
L218 278
L230 262
L249 268
L242 249
Z" style="fill:none;stroke:#ceba78;stroke-width:1.750000"/>
<!-- Route #1: 18 19 20 22 17 14 15 16 3 2 1 6 11 12 -->
<path d="M266 235
L267 213
L275 192
L303 201
L326 181
L329 224
L315 233
L329 252
L318 252
L309 260
L301 258
L295 272
L282 267
L265 257
L267 242
Z" style="fill:none;stroke:#ec9b23;stroke-width:1.750000"/>
<!-- Route #2: 13 10 -->
<path d="M266 235
L259 265
L256 267
Z" style="fill:none;stroke:#53c022;stroke-width:1.750000"/>
<!-- Node 0 -->
<circle cx="266" cy="235" r="3.500000" style="fill:red;stroke:black;stroke-width:1.750000" />
<!-- Node 1 -->
<circle cx="295" cy="272" r="3.500000" style="fill:white;stroke:black;stroke-width:1.750000" />
<!-- Node 2 -->
<circle cx="301" cy="258" r="3.500000" style="fill:white;stroke:black;stroke-width:1.750000" />
<!-- Node 3 -->
<circle cx="309" cy="260" r="3.500000" style="fill:white;stroke:black;stroke-width:1.750000" />
<!-- Node 4 -->
<circle cx="217" cy="274" r="3.500000" style="fill:white;stroke:black;stroke-width:1.750000" />
<!-- Node 5 -->
<circle cx="218" cy="278" r="3.500000" style="fill:white;stroke:black;stroke-width:1.750000" />
<!-- Node 6 -->
<circle cx="282" cy="267" r="3.500000" style="fill:white;stroke:black;stroke-width:1.750000" />
<!-- Node 7 -->
<circle cx="242" cy="249" r="3.500000" style="fill:white;stroke:black;stroke-width:1.750000" />
<!-- Node 8 -->
<circle cx="230" cy="262" r="3.500000" style="fill:white;stroke:black;stroke-width:1.750000" />
<!-- Node 9 -->
<circle cx="249" cy="268" r="3.500000" style="fill:white;stroke:black;stroke-width:1.750000" />
<!-- Node 10 -->
<circle cx="256" cy="267" r="3.500000" style="fill:white;stroke:black;stroke-width:1.750000" />
<!-- Node 11 -->
<circle cx="265" cy="257" r="3.500000" style="fill:white;stroke:black;stroke-width:1.750000" />
<!-- Node 12 -->
<circle cx="267" cy="242" r="3.500000" style="fill:white;stroke:black;stroke-width:1.750000" />
<!-- Node 13 -->
<circle cx="259" cy="265" r="3.500000" style="fill:white;stroke:black;stroke-width:1.750000" />
<!-- Node 14 -->
<circle cx="315" cy="233" r="3.500000" style="fill:white;stroke:black;stroke-width:1.750000" />
<!-- Node 15 -->
<circle cx="329" cy="252" r="3.500000" style="fill:white;stroke:black;stroke-width:1.750000" />
<!-- Node 16 -->
<circle cx="318" cy="252" r="3.500000" style="fill:white;stroke:black;stroke-width:1.750000" />
<!-- Node 17 -->
<circle cx="329" cy="224" r="3.500000" style="fill:white;stroke:black;stroke-width:1.750000" />
<!-- Node 18 -->
<circle cx="267" cy="213" r="3.500000" style="fill:white;stroke:black;stroke-width:1.750000" />
<!-- Node 19 -->
<circle cx="275" cy="192" r="3.500000" style="fill:white;stroke:black;stroke-width:1.750000" />
<!-- Node 20 -->
<circle cx="303" cy="201" r="3.500000" style="fill:white;stroke:black;stroke-width:1.750000" />
<!-- Node 21 -->
<circle cx="208" cy="217" r="3.500000" style="fill:white;stroke:black;stroke-width:1.750000" />
<!-- Node 22 -->
<circle cx="326" cy="181" r="3.500000" style="fill:white;stroke:black;stroke-width:1.750000" />
			</g>
		</g>
	</g>
</svg>
