<?xml version="1.0" standalone="no"?>
<!DOCTYPE svg PUBLIC "-//W3C//DTD SVG 1.1//EN"
"http://www.w3.org/Graphics/SVG/1.1/DTD/svg11.dtd">

<svg width="100%" height="100%" version="1.1"
xmlns="http://www.w3.org/2000/svg"
xmlns:xlink="http://www.w3.org/1999/xlink">

	<g transform="translate(20,20)">
		<g transform="scale(4.000000)">
			<g transform="translate(-261,-378)">
			<title>E-n33-k4</title>
			<desc>(null)</desc>
<!-- Route #0: 1 15 26 27 16 28 29 -->
<path d="M292 495
L298 427
L296 418
L283 406
L279 399
L261 384
L271 401
L264 414
Z" style="fill:none;stroke:#007df4;stroke-width:1.750000"/>
<!-- Route #1: 30 14 31 -->
<path d="M292 495
L277 439
L293 421
L290 434
Z" style="fill:none;stroke:#3dd489;stroke-width:1.750000"/>
<!-- Route #2: 3 5 6 10 18 19 22 21 20 23 24 25 17 13 -->
<path d="M292 495
L307 464
L320 439
L321 437
L323 429
L315 407
L314 406
L314 394
L321 398
L321 391
L313 378
L304 382
L295 402
L297 410
L304 427
Z" style="fill:none;stroke:#49945c;stroke-width:1.750000"/>
<!-- Route #3: 2 12 11 32 8 9 7 4 -->
<path d="M292 495
L309 445
L311 442
L314 435
L319 433
L323 433
L324 433
L322 437
L336 475
Z" style="fill:none;stroke:#ad7661;stroke-width:1.750000"/>
<!-- Node 0 -->
<circle cx="292" cy="495" r="3.500000" style="fill:red;stroke:black;stroke-width:1.750000" />
<!-- Node 1 -->
<circle cx="298" cy="427" r="3.500000" style="fill:white;stroke:black;stroke-width:1.750000" />
<!-- Node 2 -->
<circle cx="309" cy="445" r="3.500000" style="fill:white;stroke:black;stroke-width:1.750000" />
<!-- Node 3 -->
<circle cx="307" cy="464" r="3.500000" style="fill:white;stroke:black;stroke-width:1.750000" />
<!-- Node 4 -->
<circle cx="336" cy="475" r="3.500000" style="fill:white;stroke:black;stroke-width:1.750000" />
<!-- Node 5 -->
<circle cx="320" cy="439" r="3.500000" style="fill:white;stroke:black;stroke-width:1.750000" />
<!-- Node 6 -->
<circle cx="321" cy="437" r="3.500000" style="fill:white;stroke:black;stroke-width:1.750000" />
<!-- Node 7 -->
<circle cx="322" cy="437" r="3.500000" style="fill:white;stroke:black;stroke-width:1.750000" />
<!-- Node 8 -->
<circle cx="323" cy="433" r="3.500000" style="fill:white;stroke:black;stroke-width:1.750000" />
<!-- Node 9 -->
<circle cx="324" cy="433" r="3.500000" style="fill:white;stroke:black;stroke-width:1.750000" />
<!-- Node 10 -->
<circle cx="323" cy="429" r="3.500000" style="fill:white;stroke:black;stroke-width:1.750000" />
<!-- Node 11 -->
<circle cx="314" cy="435" r="3.500000" style="fill:white;stroke:black;stroke-width:1.750000" />
<!-- Node 12 -->
<circle cx="311" cy="442" r="3.500000" style="fill:white;stroke:black;stroke-width:1.750000" />
<!-- Node 13 -->
<circle cx="304" cy="427" r="3.500000" style="fill:white;stroke:black;stroke-width:1.750000" />
<!-- Node 14 -->
<circle cx="293" cy="421" r="3.500000" style="fill:white;stroke:black;stroke-width:1.750000" />
<!-- Node 15 -->
<circle cx="296" cy="418" r="3.500000" style="fill:white;stroke:black;stroke-width:1.750000" />
<!-- Node 16 -->
<circle cx="261" cy="384" r="3.500000" style="fill:white;stroke:black;stroke-width:1.750000" />
<!-- Node 17 -->
<circle cx="297" cy="410" r="3.500000" style="fill:white;stroke:black;stroke-width:1.750000" />
<!-- Node 18 -->
<circle cx="315" cy="407" r="3.500000" style="fill:white;stroke:black;stroke-width:1.750000" />
<!-- Node 19 -->
<circle cx="314" cy="406" r="3.500000" style="fill:white;stroke:black;stroke-width:1.750000" />
<!-- Node 20 -->
<circle cx="321" cy="391" r="3.500000" style="fill:white;stroke:black;stroke-width:1.750000" />
<!-- Node 21 -->
<circle cx="321" cy="398" r="3.500000" style="fill:white;stroke:black;stroke-width:1.750000" />
<!-- Node 22 -->
<circle cx="314" cy="394" r="3.500000" style="fill:white;stroke:black;stroke-width:1.750000" />
<!-- Node 23 -->
<circle cx="313" cy="378" r="3.500000" style="fill:white;stroke:black;stroke-width:1.750000" />
<!-- Node 24 -->
<circle cx="304" cy="382" r="3.500000" style="fill:white;stroke:black;stroke-width:1.750000" />
<!-- Node 25 -->
<circle cx="295" cy="402" r="3.500000" style="fill:white;stroke:black;stroke-width:1.750000" />
<!-- Node 26 -->
<circle cx="283" cy="406" r="3.500000" style="fill:white;stroke:black;stroke-width:1.750000" />
<!-- Node 27 -->
<circle cx="279" cy="399" r="3.500000" style="fill:white;stroke:black;stroke-width:1.750000" />
<!-- Node 28 -->
<circle cx="271" cy="401" r="3.500000" style="fill:white;stroke:black;stroke-width:1.750000" />
<!-- Node 29 -->
<circle cx="264" cy="414" r="3.500000" style="fill:white;stroke:black;stroke-width:1.750000" />
<!-- Node 30 -->
<circle cx="277" cy="439" r="3.500000" style="fill:white;stroke:black;stroke-width:1.750000" />
<!-- Node 31 -->
<circle cx="290" cy="434" r="3.500000" style="fill:white;stroke:black;stroke-width:1.750000" />
<!-- Node 32 -->
<circle cx="319" cy="433" r="3.500000" style="fill:white;stroke:black;stroke-width:1.750000" />
			</g>
		</g>
	</g>
</svg>
