<?xml version="1.0" standalone="no"?>
<!DOCTYPE svg PUBLIC "-//W3C//DTD SVG 1.1//EN"
"http://www.w3.org/Graphics/SVG/1.1/DTD/svg11.dtd">

<svg width="100%" height="100%" version="1.1"
xmlns="http://www.w3.org/2000/svg">

		<g transform="translate(24,24)">
		<g transform="scale(55.000000)">
			<g transform="translate(-1,0)">
<!-- Route #0: 9 7 2 6 11 5 1 10 3 8 -->
<path d="M7 0
L3 1
L2 5
L1 6
L1 9
L1 10
L10 10
L9 8
L8 7
L5 7
L5 4
Z" style="fill:none;stroke:#99da41;stroke-width:0.145455"/>
<!-- Route #1: 4 12 -->
<path d="M7 0
L8 1
L11 0
Z" style="fill:none;stroke:#de722a;stroke-width:0.145455"/>
<!-- Node 0 -->
<circle cx="7" cy="0" r="0.290909" style="fill:red;stroke:black;stroke-width:0.145455" />
<!-- Node 1 -->
<circle cx="9" cy="8" r="0.290909" style="fill:white;stroke:black;stroke-width:0.145455" />
<!-- Node 2 -->
<circle cx="1" cy="6" r="0.290909" style="fill:white;stroke:black;stroke-width:0.145455" />
<!-- Node 3 -->
<circle cx="5" cy="7" r="0.290909" style="fill:white;stroke:black;stroke-width:0.145455" />
<!-- Node 4 -->
<circle cx="8" cy="1" r="0.290909" style="fill:white;stroke:black;stroke-width:0.145455" />
<!-- Node 5 -->
<circle cx="10" cy="10" r="0.290909" style="fill:white;stroke:black;stroke-width:0.145455" />
<!-- Node 6 -->
<circle cx="1" cy="9" r="0.290909" style="fill:white;stroke:black;stroke-width:0.145455" />
<!-- Node 7 -->
<circle cx="2" cy="5" r="0.290909" style="fill:white;stroke:black;stroke-width:0.145455" />
<!-- Node 8 -->
<circle cx="5" cy="4" r="0.290909" style="fill:white;stroke:black;stroke-width:0.145455" />
<!-- Node 9 -->
<circle cx="3" cy="1" r="0.290909" style="fill:white;stroke:black;stroke-width:0.145455" />
<!-- Node 10 -->
<circle cx="8" cy="7" r="0.290909" style="fill:white;stroke:black;stroke-width:0.145455" />
<!-- Node 11 -->
<circle cx="1" cy="10" r="0.290909" style="fill:white;stroke:black;stroke-width:0.145455" />
<!-- Node 12 -->
<circle cx="11" cy="0" r="0.290909" style="fill:white;stroke:black;stroke-width:0.145455" />
			</g>
		</g>
	</g>
</svg>
