<?xml version="1.0" standalone="no"?>
<!DOCTYPE svg PUBLIC "-//W3C//DTD SVG 1.1//EN"
"http://www.w3.org/Graphics/SVG/1.1/DTD/svg11.dtd">

<svg width="100%" height="100%" version="1.1"
xmlns="http://www.w3.org/2000/svg">

	<g transform="translate(24,24)">
		<g transform="scale(13.000000)">
			<g transform="translate(0,-15)">
<!-- Route #0: 10 1 6 2 -->
<path d="M20 52
L34 51
L42 39
L37 35
L36 38
Z" style="fill:none;stroke:#ade4e0;stroke-width:0.615385"/>
<!-- Route #1: 12 11 5 3 8 9 4 -->
<path d="M20 52
L39 21
L15 23
L12 15
L0 17
L7 24
L12 32
L2 44
Z" style="fill:none;stroke:#2eed58;stroke-width:0.615385"/>
<!-- Route #2: 7 -->
<path d="M20 52
L24 54
Z" style="fill:none;stroke:#d72a6e;stroke-width:0.615385"/>
<!-- Node 0 -->
<circle cx="20" cy="52" r="1.230769" style="fill:red;stroke:black;stroke-width:0.615385" />
<!-- Node 1 -->
<circle cx="42" cy="39" r="1.230769" style="fill:white;stroke:black;stroke-width:0.615385" />
<!-- Node 2 -->
<circle cx="36" cy="38" r="1.230769" style="fill:white;stroke:black;stroke-width:0.615385" />
<!-- Node 3 -->
<circle cx="0" cy="17" r="1.230769" style="fill:white;stroke:black;stroke-width:0.615385" />
<!-- Node 4 -->
<circle cx="2" cy="44" r="1.230769" style="fill:white;stroke:black;stroke-width:0.615385" />
<!-- Node 5 -->
<circle cx="12" cy="15" r="1.230769" style="fill:white;stroke:black;stroke-width:0.615385" />
<!-- Node 6 -->
<circle cx="37" cy="35" r="1.230769" style="fill:white;stroke:black;stroke-width:0.615385" />
<!-- Node 7 -->
<circle cx="24" cy="54" r="1.230769" style="fill:white;stroke:black;stroke-width:0.615385" />
<!-- Node 8 -->
<circle cx="7" cy="24" r="1.230769" style="fill:white;stroke:black;stroke-width:0.615385" />
<!-- Node 9 -->
<circle cx="12" cy="32" r="1.230769" style="fill:white;stroke:black;stroke-width:0.615385" />
<!-- Node 10 -->
<circle cx="34" cy="51" r="1.230769" style="fill:white;stroke:black;stroke-width:0.615385" />
<!-- Node 11 -->
<circle cx="15" cy="23" r="1.230769" style="fill:white;stroke:black;stroke-width:0.615385" />
<!-- Node 12 -->
<circle cx="39" cy="21" r="1.230769" style="fill:white;stroke:black;stroke-width:0.615385" />
			</g>
		</g>
	</g>
</svg>
