<?xml version="1.0" standalone="no"?>
<!DOCTYPE svg PUBLIC "-//W3C//DTD SVG 1.1//EN"
"http://www.w3.org/Graphics/SVG/1.1/DTD/svg11.dtd">

<svg width="100%" height="100%" version="1.1"
xmlns="http://www.w3.org/2000/svg">

		<g transform="translate(40,40)">
		<g transform="scale(52.000000)">
			<g transform="translate(-3,0)">
<!-- Route #0: 13 5 4 7 3 -->
<path d="M3 3
L9 2
L11 3
L13 2
L11 4
L10 5
Z" style="fill:none;stroke:#508d24;stroke-width:0.192308"/>
<!-- Route #1: 8 9 12 2 -->
<path d="M3 3
L4 8
L6 8
L9 9
L4 1
Z" style="fill:none;stroke:#8ab55c;stroke-width:0.192308"/>
<!-- Route #2: 6 10 11 1 -->
<path d="M3 3
L8 1
L10 0
L11 0
L10 1
Z" style="fill:none;stroke:#eefb13;stroke-width:0.192308"/>
<!-- Node 0 -->
<circle cx="3" cy="3" r="0.384615" style="fill:red;stroke:black;stroke-width:0.192308" />
<!-- Node 1 -->
<circle cx="10" cy="1" r="0.384615" style="fill:white;stroke:black;stroke-width:0.192308" />
<!-- Node 2 -->
<circle cx="4" cy="1" r="0.384615" style="fill:white;stroke:black;stroke-width:0.192308" />
<!-- Node 3 -->
<circle cx="10" cy="5" r="0.384615" style="fill:white;stroke:black;stroke-width:0.192308" />
<!-- Node 4 -->
<circle cx="13" cy="2" r="0.384615" style="fill:white;stroke:black;stroke-width:0.192308" />
<!-- Node 5 -->
<circle cx="11" cy="3" r="0.384615" style="fill:white;stroke:black;stroke-width:0.192308" />
<!-- Node 6 -->
<circle cx="8" cy="1" r="0.384615" style="fill:white;stroke:black;stroke-width:0.192308" />
<!-- Node 7 -->
<circle cx="11" cy="4" r="0.384615" style="fill:white;stroke:black;stroke-width:0.192308" />
<!-- Node 8 -->
<circle cx="4" cy="8" r="0.384615" style="fill:white;stroke:black;stroke-width:0.192308" />
<!-- Node 9 -->
<circle cx="6" cy="8" r="0.384615" style="fill:white;stroke:black;stroke-width:0.192308" />
<!-- Node 10 -->
<circle cx="10" cy="0" r="0.384615" style="fill:white;stroke:black;stroke-width:0.192308" />
<!-- Node 11 -->
<circle cx="11" cy="0" r="0.384615" style="fill:white;stroke:black;stroke-width:0.192308" />
<!-- Node 12 -->
<circle cx="9" cy="9" r="0.384615" style="fill:white;stroke:black;stroke-width:0.192308" />
<!-- Node 13 -->
<circle cx="9" cy="2" r="0.384615" style="fill:white;stroke:black;stroke-width:0.192308" />
			</g>
		</g>
	</g>
</svg>
