<?xml version="1.0" standalone="no"?>
<!DOCTYPE svg PUBLIC "-//W3C//DTD SVG 1.1//EN"
"http://www.w3.org/Graphics/SVG/1.1/DTD/svg11.dtd">

<svg width="100%" height="100%" version="1.1"
xmlns="http://www.w3.org/2000/svg">

	<g transform="translate(24,24)">
		<g transform="scale(29.000000)">
			<g transform="translate(0,0)">
<!-- Route #0: 4 16 1 15 -->
<path d="M3 3
L1 3
L0 9
L5 15
L8 8
Z" style="fill:none;stroke:#f7555d;stroke-width:0.275862"/>
<!-- Route #1: 2 20 6 8 9 -->
<path d="M3 3
L4 0
L12 8
L18 16
L18 19
L9 12
Z" style="fill:none;stroke:#82404b;stroke-width:0.275862"/>
<!-- Route #2: 17 14 12 10 3 -->
<path d="M3 3
L7 6
L12 6
L19 4
L17 2
L14 4
Z" style="fill:none;stroke:#4f24c2;stroke-width:0.275862"/>
<!-- Route #3: 21 13 18 11 -->
<path d="M3 3
L12 3
L14 2
L12 0
L9 1
Z" style="fill:none;stroke:#94bcb8;stroke-width:0.275862"/>
<!-- Route #4: 5 19 7 -->
<path d="M3 3
L8 7
L7 5
L3 0
Z" style="fill:none;stroke:#c7b614;stroke-width:0.275862"/>
<!-- Node 0 -->
<circle cx="3" cy="3" r="0.551724" style="fill:red;stroke:black;stroke-width:0.275862" />
<!-- Node 1 -->
<circle cx="5" cy="15" r="0.551724" style="fill:white;stroke:black;stroke-width:0.275862" />
<!-- Node 2 -->
<circle cx="4" cy="0" r="0.551724" style="fill:white;stroke:black;stroke-width:0.275862" />
<!-- Node 3 -->
<circle cx="14" cy="4" r="0.551724" style="fill:white;stroke:black;stroke-width:0.275862" />
<!-- Node 4 -->
<circle cx="1" cy="3" r="0.551724" style="fill:white;stroke:black;stroke-width:0.275862" />
<!-- Node 5 -->
<circle cx="8" cy="7" r="0.551724" style="fill:white;stroke:black;stroke-width:0.275862" />
<!-- Node 6 -->
<circle cx="18" cy="16" r="0.551724" style="fill:white;stroke:black;stroke-width:0.275862" />
<!-- Node 7 -->
<circle cx="3" cy="0" r="0.551724" style="fill:white;stroke:black;stroke-width:0.275862" />
<!-- Node 8 -->
<circle cx="18" cy="19" r="0.551724" style="fill:white;stroke:black;stroke-width:0.275862" />
<!-- Node 9 -->
<circle cx="9" cy="12" r="0.551724" style="fill:white;stroke:black;stroke-width:0.275862" />
<!-- Node 10 -->
<circle cx="17" cy="2" r="0.551724" style="fill:white;stroke:black;stroke-width:0.275862" />
<!-- Node 11 -->
<circle cx="9" cy="1" r="0.551724" style="fill:white;stroke:black;stroke-width:0.275862" />
<!-- Node 12 -->
<circle cx="19" cy="4" r="0.551724" style="fill:white;stroke:black;stroke-width:0.275862" />
<!-- Node 13 -->
<circle cx="14" cy="2" r="0.551724" style="fill:white;stroke:black;stroke-width:0.275862" />
<!-- Node 14 -->
<circle cx="12" cy="6" r="0.551724" style="fill:white;stroke:black;stroke-width:0.275862" />
<!-- Node 15 -->
<circle cx="8" cy="8" r="0.551724" style="fill:white;stroke:black;stroke-width:0.275862" />
<!-- Node 16 -->
<circle cx="0" cy="9" r="0.551724" style="fill:white;stroke:black;stroke-width:0.275862" />
<!-- Node 17 -->
<circle cx="7" cy="6" r="0.551724" style="fill:white;stroke:black;stroke-width:0.275862" />
<!-- Node 18 -->
<circle cx="12" cy="0" r="0.551724" style="fill:white;stroke:black;stroke-width:0.275862" />
<!-- Node 19 -->
<circle cx="7" cy="5" r="0.551724" style="fill:white;stroke:black;stroke-width:0.275862" />
<!-- Node 20 -->
<circle cx="12" cy="8" r="0.551724" style="fill:white;stroke:black;stroke-width:0.275862" />
<!-- Node 21 -->
<circle cx="12" cy="3" r="0.551724" style="fill:white;stroke:black;stroke-width:0.275862" />
			</g>
		</g>
	</g>
</svg>
