<?xml version="1.0" standalone="no"?>
<!DOCTYPE svg PUBLIC "-//W3C//DTD SVG 1.1//EN"
"http://www.w3.org/Graphics/SVG/1.1/DTD/svg11.dtd">

<svg width="100%" height="100%" version="1.1"
xmlns="http://www.w3.org/2000/svg">

		<g transform="translate(24,24)">
		<g transform="scale(23.000000)">
			<g transform="translate(0,0)">
<!-- Route #0: 24 8 5 2 12 6 22 7 -->
<path d="M11 24
L11 18
L12 11
L9 8
L2 0
L0 3
L3 5
L5 13
L10 18
Z" style="fill:none;stroke:#b6525a;stroke-width:0.347826"/>
<!-- Route #1: 13 17 3 10 4 -->
<path d="M11 24
L15 24
L21 13
L22 8
L24 7
L24 11
Z" style="fill:none;stroke:#dfc1d8;stroke-width:0.347826"/>
<!-- Route #2: 19 16 14 1 23 11 15 18 -->
<path d="M11 24
L11 11
L16 0
L21 0
L24 0
L20 2
L18 4
L17 6
L17 12
Z" style="fill:none;stroke:#0ef004;stroke-width:0.347826"/>
<!-- Route #3: 20 21 9 -->
<path d="M11 24
L8 14
L5 19
L6 24
Z" style="fill:none;stroke:#99bc48;stroke-width:0.347826"/>
<!-- Node 0 -->
<circle cx="11" cy="24" r="0.695652" style="fill:red;stroke:black;stroke-width:0.347826" />
<!-- Node 1 -->
<circle cx="24" cy="0" r="0.695652" style="fill:white;stroke:black;stroke-width:0.347826" />
<!-- Node 2 -->
<circle cx="2" cy="0" r="0.695652" style="fill:white;stroke:black;stroke-width:0.347826" />
<!-- Node 3 -->
<circle cx="22" cy="8" r="0.695652" style="fill:white;stroke:black;stroke-width:0.347826" />
<!-- Node 4 -->
<circle cx="24" cy="11" r="0.695652" style="fill:white;stroke:black;stroke-width:0.347826" />
<!-- Node 5 -->
<circle cx="9" cy="8" r="0.695652" style="fill:white;stroke:black;stroke-width:0.347826" />
<!-- Node 6 -->
<circle cx="3" cy="5" r="0.695652" style="fill:white;stroke:black;stroke-width:0.347826" />
<!-- Node 7 -->
<circle cx="10" cy="18" r="0.695652" style="fill:white;stroke:black;stroke-width:0.347826" />
<!-- Node 8 -->
<circle cx="12" cy="11" r="0.695652" style="fill:white;stroke:black;stroke-width:0.347826" />
<!-- Node 9 -->
<circle cx="6" cy="24" r="0.695652" style="fill:white;stroke:black;stroke-width:0.347826" />
<!-- Node 10 -->
<circle cx="24" cy="7" r="0.695652" style="fill:white;stroke:black;stroke-width:0.347826" />
<!-- Node 11 -->
<circle cx="18" cy="4" r="0.695652" style="fill:white;stroke:black;stroke-width:0.347826" />
<!-- Node 12 -->
<circle cx="0" cy="3" r="0.695652" style="fill:white;stroke:black;stroke-width:0.347826" />
<!-- Node 13 -->
<circle cx="15" cy="24" r="0.695652" style="fill:white;stroke:black;stroke-width:0.347826" />
<!-- Node 14 -->
<circle cx="21" cy="0" r="0.695652" style="fill:white;stroke:black;stroke-width:0.347826" />
<!-- Node 15 -->
<circle cx="17" cy="6" r="0.695652" style="fill:white;stroke:black;stroke-width:0.347826" />
<!-- Node 16 -->
<circle cx="16" cy="0" r="0.695652" style="fill:white;stroke:black;stroke-width:0.347826" />
<!-- Node 17 -->
<circle cx="21" cy="13" r="0.695652" style="fill:white;stroke:black;stroke-width:0.347826" />
<!-- Node 18 -->
<circle cx="17" cy="12" r="0.695652" style="fill:white;stroke:black;stroke-width:0.347826" />
<!-- Node 19 -->
<circle cx="11" cy="11" r="0.695652" style="fill:white;stroke:black;stroke-width:0.347826" />
<!-- Node 20 -->
<circle cx="8" cy="14" r="0.695652" style="fill:white;stroke:black;stroke-width:0.347826" />
<!-- Node 21 -->
<circle cx="5" cy="19" r="0.695652" style="fill:white;stroke:black;stroke-width:0.347826" />
<!-- Node 22 -->
<circle cx="5" cy="13" r="0.695652" style="fill:white;stroke:black;stroke-width:0.347826" />
<!-- Node 23 -->
<circle cx="20" cy="2" r="0.695652" style="fill:white;stroke:black;stroke-width:0.347826" />
<!-- Node 24 -->
<circle cx="11" cy="18" r="0.695652" style="fill:white;stroke:black;stroke-width:0.347826" />
			</g>
		</g>
	</g>
</svg>
