<?xml version="1.0" standalone="no"?>
<!DOCTYPE svg PUBLIC "-//W3C//DTD SVG 1.1//EN"
"http://www.w3.org/Graphics/SVG/1.1/DTD/svg11.dtd">

<svg width="100%" height="100%" version="1.1"
xmlns="http://www.w3.org/2000/svg"
xmlns:xlink="http://www.w3.org/1999/xlink">

	<g transform="translate(20,20)">
		<g transform="scale(16.000000)">
			<g transform="translate(0,0)">
			<title>(null)</title>
			<desc>(null)</desc>
<!-- Route #0: 19 9 6 -->
<path d="M9 34
L18 27
L12 18
L11 27
Z" style="fill:none;stroke:#87f4d1;stroke-width:0.437500"/>
<!-- Route #1: 20 2 13 4 -->
<path d="M9 34
L2 17
L0 18
L1 18
L4 28
Z" style="fill:none;stroke:#686a66;stroke-width:0.437500"/>
<!-- Route #2: 26 17 15 16 18 -->
<path d="M9 34
L7 7
L4 4
L9 2
L14 5
L12 6
Z" style="fill:none;stroke:#39e4d5;stroke-width:0.437500"/>
<!-- Route #3: 28 12 25 32 1 21 -->
<path d="M9 34
L7 23
L9 10
L4 10
L5 12
L5 19
L5 20
Z" style="fill:none;stroke:#a56263;stroke-width:0.437500"/>
<!-- Route #4: 14 34 30 27 7 -->
<path d="M9 34
L14 4
L14 3
L18 2
L20 0
L17 4
Z" style="fill:none;stroke:#cc09e3;stroke-width:0.437500"/>
<!-- Route #5: 10 3 29 11 8 -->
<path d="M9 34
L21 33
L33 30
L33 19
L29 19
L28 25
Z" style="fill:none;stroke:#f0c510;stroke-width:0.437500"/>
<!-- Route #6: 24 22 33 5 31 23 -->
<path d="M9 34
L21 2
L25 2
L31 2
L27 6
L29 7
L34 16
Z" style="fill:none;stroke:#c29cfa;stroke-width:0.437500"/>
<!-- Node 0 -->
<circle cx="9" cy="34" r="0.875000" style="fill:red;stroke:black;stroke-width:0.437500" />
<!-- Node 1 -->
<circle cx="5" cy="19" r="0.875000" style="fill:white;stroke:black;stroke-width:0.437500" />
<!-- Node 2 -->
<circle cx="0" cy="18" r="0.875000" style="fill:white;stroke:black;stroke-width:0.437500" />
<!-- Node 3 -->
<circle cx="33" cy="30" r="0.875000" style="fill:white;stroke:black;stroke-width:0.437500" />
<!-- Node 4 -->
<circle cx="4" cy="28" r="0.875000" style="fill:white;stroke:black;stroke-width:0.437500" />
<!-- Node 5 -->
<circle cx="27" cy="6" r="0.875000" style="fill:white;stroke:black;stroke-width:0.437500" />
<!-- Node 6 -->
<circle cx="11" cy="27" r="0.875000" style="fill:white;stroke:black;stroke-width:0.437500" />
<!-- Node 7 -->
<circle cx="17" cy="4" r="0.875000" style="fill:white;stroke:black;stroke-width:0.437500" />
<!-- Node 8 -->
<circle cx="28" cy="25" r="0.875000" style="fill:white;stroke:black;stroke-width:0.437500" />
<!-- Node 9 -->
<circle cx="12" cy="18" r="0.875000" style="fill:white;stroke:black;stroke-width:0.437500" />
<!-- Node 10 -->
<circle cx="21" cy="33" r="0.875000" style="fill:white;stroke:black;stroke-width:0.437500" />
<!-- Node 11 -->
<circle cx="29" cy="19" r="0.875000" style="fill:white;stroke:black;stroke-width:0.437500" />
<!-- Node 12 -->
<circle cx="9" cy="10" r="0.875000" style="fill:white;stroke:black;stroke-width:0.437500" />
<!-- Node 13 -->
<circle cx="1" cy="18" r="0.875000" style="fill:white;stroke:black;stroke-width:0.437500" />
<!-- Node 14 -->
<circle cx="14" cy="4" r="0.875000" style="fill:white;stroke:black;stroke-width:0.437500" />
<!-- Node 15 -->
<circle cx="9" cy="2" r="0.875000" style="fill:white;stroke:black;stroke-width:0.437500" />
<!-- Node 16 -->
<circle cx="14" cy="5" r="0.875000" style="fill:white;stroke:black;stroke-width:0.437500" />
<!-- Node 17 -->
<circle cx="4" cy="4" r="0.875000" style="fill:white;stroke:black;stroke-width:0.437500" />
<!-- Node 18 -->
<circle cx="12" cy="6" r="0.875000" style="fill:white;stroke:black;stroke-width:0.437500" />
<!-- Node 19 -->
<circle cx="18" cy="27" r="0.875000" style="fill:white;stroke:black;stroke-width:0.437500" />
<!-- Node 20 -->
<circle cx="2" cy="17" r="0.875000" style="fill:white;stroke:black;stroke-width:0.437500" />
<!-- Node 21 -->
<circle cx="5" cy="20" r="0.875000" style="fill:white;stroke:black;stroke-width:0.437500" />
<!-- Node 22 -->
<circle cx="25" cy="2" r="0.875000" style="fill:white;stroke:black;stroke-width:0.437500" />
<!-- Node 23 -->
<circle cx="34" cy="16" r="0.875000" style="fill:white;stroke:black;stroke-width:0.437500" />
<!-- Node 24 -->
<circle cx="21" cy="2" r="0.875000" style="fill:white;stroke:black;stroke-width:0.437500" />
<!-- Node 25 -->
<circle cx="4" cy="10" r="0.875000" style="fill:white;stroke:black;stroke-width:0.437500" />
<!-- Node 26 -->
<circle cx="7" cy="7" r="0.875000" style="fill:white;stroke:black;stroke-width:0.437500" />
<!-- Node 27 -->
<circle cx="20" cy="0" r="0.875000" style="fill:white;stroke:black;stroke-width:0.437500" />
<!-- Node 28 -->
<circle cx="7" cy="23" r="0.875000" style="fill:white;stroke:black;stroke-width:0.437500" />
<!-- Node 29 -->
<circle cx="33" cy="19" r="0.875000" style="fill:white;stroke:black;stroke-width:0.437500" />
<!-- Node 30 -->
<circle cx="18" cy="2" r="0.875000" style="fill:white;stroke:black;stroke-width:0.437500" />
<!-- Node 31 -->
<circle cx="29" cy="7" r="0.875000" style="fill:white;stroke:black;stroke-width:0.437500" />
<!-- Node 32 -->
<circle cx="5" cy="12" r="0.875000" style="fill:white;stroke:black;stroke-width:0.437500" />
<!-- Node 33 -->
<circle cx="31" cy="2" r="0.875000" style="fill:white;stroke:black;stroke-width:0.437500" />
<!-- Node 34 -->
<circle cx="14" cy="3" r="0.875000" style="fill:white;stroke:black;stroke-width:0.437500" />
			</g>
		</g>
	</g>
</svg>
