<?xml version="1.0" standalone="no"?>
<!DOCTYPE svg PUBLIC "-//W3C//DTD SVG 1.1//EN"
"http://www.w3.org/Graphics/SVG/1.1/DTD/svg11.dtd">

<svg width="100%" height="100%" version="1.1"
xmlns="http://www.w3.org/2000/svg">

		<g transform="translate(24,24)">
		<g transform="scale(25.000000)">
			<g transform="translate(0,0)">
<!-- Route #0: 7 15 -->
<path d="M3 17
L6 20
L5 19
Z" style="fill:none;stroke:#bad9d1;stroke-width:0.320000"/>
<!-- Route #1: 13 21 9 19 -->
<path d="M3 17
L2 9
L0 8
L8 0
L13 1
Z" style="fill:none;stroke:#ce4933;stroke-width:0.320000"/>
<!-- Route #2: 11 6 4 2 -->
<path d="M3 17
L18 18
L21 21
L15 19
L11 18
Z" style="fill:none;stroke:#3ce8c3;stroke-width:0.320000"/>
<!-- Route #3: 1 12 10 -->
<path d="M3 17
L3 15
L4 13
L6 14
Z" style="fill:none;stroke:#10712d;stroke-width:0.320000"/>
<!-- Route #4: 18 3 14 17 -->
<path d="M3 17
L22 15
L21 10
L22 9
L18 6
Z" style="fill:none;stroke:#48a306;stroke-width:0.320000"/>
<!-- Route #5: 16 8 20 22 5 -->
<path d="M3 17
L11 13
L14 12
L17 8
L16 10
L11 15
Z" style="fill:none;stroke:#53478e;stroke-width:0.320000"/>
<!-- Node 0 -->
<circle cx="3" cy="17" r="0.640000" style="fill:red;stroke:black;stroke-width:0.320000" />
<!-- Node 1 -->
<circle cx="3" cy="15" r="0.640000" style="fill:white;stroke:black;stroke-width:0.320000" />
<!-- Node 2 -->
<circle cx="11" cy="18" r="0.640000" style="fill:white;stroke:black;stroke-width:0.320000" />
<!-- Node 3 -->
<circle cx="21" cy="10" r="0.640000" style="fill:white;stroke:black;stroke-width:0.320000" />
<!-- Node 4 -->
<circle cx="15" cy="19" r="0.640000" style="fill:white;stroke:black;stroke-width:0.320000" />
<!-- Node 5 -->
<circle cx="11" cy="15" r="0.640000" style="fill:white;stroke:black;stroke-width:0.320000" />
<!-- Node 6 -->
<circle cx="21" cy="21" r="0.640000" style="fill:white;stroke:black;stroke-width:0.320000" />
<!-- Node 7 -->
<circle cx="6" cy="20" r="0.640000" style="fill:white;stroke:black;stroke-width:0.320000" />
<!-- Node 8 -->
<circle cx="14" cy="12" r="0.640000" style="fill:white;stroke:black;stroke-width:0.320000" />
<!-- Node 9 -->
<circle cx="8" cy="0" r="0.640000" style="fill:white;stroke:black;stroke-width:0.320000" />
<!-- Node 10 -->
<circle cx="6" cy="14" r="0.640000" style="fill:white;stroke:black;stroke-width:0.320000" />
<!-- Node 11 -->
<circle cx="18" cy="18" r="0.640000" style="fill:white;stroke:black;stroke-width:0.320000" />
<!-- Node 12 -->
<circle cx="4" cy="13" r="0.640000" style="fill:white;stroke:black;stroke-width:0.320000" />
<!-- Node 13 -->
<circle cx="2" cy="9" r="0.640000" style="fill:white;stroke:black;stroke-width:0.320000" />
<!-- Node 14 -->
<circle cx="22" cy="9" r="0.640000" style="fill:white;stroke:black;stroke-width:0.320000" />
<!-- Node 15 -->
<circle cx="5" cy="19" r="0.640000" style="fill:white;stroke:black;stroke-width:0.320000" />
<!-- Node 16 -->
<circle cx="11" cy="13" r="0.640000" style="fill:white;stroke:black;stroke-width:0.320000" />
<!-- Node 17 -->
<circle cx="18" cy="6" r="0.640000" style="fill:white;stroke:black;stroke-width:0.320000" />
<!-- Node 18 -->
<circle cx="22" cy="15" r="0.640000" style="fill:white;stroke:black;stroke-width:0.320000" />
<!-- Node 19 -->
<circle cx="13" cy="1" r="0.640000" style="fill:white;stroke:black;stroke-width:0.320000" />
<!-- Node 20 -->
<circle cx="17" cy="8" r="0.640000" style="fill:white;stroke:black;stroke-width:0.320000" />
<!-- Node 21 -->
<circle cx="0" cy="8" r="0.640000" style="fill:white;stroke:black;stroke-width:0.320000" />
<!-- Node 22 -->
<circle cx="16" cy="10" r="0.640000" style="fill:white;stroke:black;stroke-width:0.320000" />
			</g>
		</g>
	</g>
</svg>
