<?xml version="1.0" standalone="no"?>
<!DOCTYPE svg PUBLIC "-//W3C//DTD SVG 1.1//EN"
"http://www.w3.org/Graphics/SVG/1.1/DTD/svg11.dtd">

<svg width="100%" height="100%" version="1.1"
xmlns="http://www.w3.org/2000/svg">

		<g transform="translate(24,24)">
		<g transform="scale(24.000000)">
			<g transform="translate(-1,0)">
<!-- Route #0: 22 5 1 6 14 9 2 -->
<path d="M17 22
L14 10
L18 6
L17 1
L19 0
L20 4
L23 8
L22 19
Z" style="fill:none;stroke:#fb4d0b;stroke-width:0.333333"/>
<!-- Route #1: 20 3 19 17 12 8 21 7 -->
<path d="M17 22
L16 23
L14 23
L9 18
L5 13
L3 15
L1 14
L2 19
L5 19
Z" style="fill:none;stroke:#7bd2fa;stroke-width:0.333333"/>
<!-- Route #2: 16 13 15 11 10 -->
<path d="M17 22
L14 12
L4 1
L1 1
L1 4
L1 6
Z" style="fill:none;stroke:#15cfa9;stroke-width:0.333333"/>
<!-- Route #3: 4 23 18 -->
<path d="M17 22
L15 18
L13 13
L17 15
Z" style="fill:none;stroke:#d67de3;stroke-width:0.333333"/>
<!-- Node 0 -->
<circle cx="17" cy="22" r="0.666667" style="fill:red;stroke:black;stroke-width:0.333333" />
<!-- Node 1 -->
<circle cx="17" cy="1" r="0.666667" style="fill:white;stroke:black;stroke-width:0.333333" />
<!-- Node 2 -->
<circle cx="22" cy="19" r="0.666667" style="fill:white;stroke:black;stroke-width:0.333333" />
<!-- Node 3 -->
<circle cx="14" cy="23" r="0.666667" style="fill:white;stroke:black;stroke-width:0.333333" />
<!-- Node 4 -->
<circle cx="15" cy="18" r="0.666667" style="fill:white;stroke:black;stroke-width:0.333333" />
<!-- Node 5 -->
<circle cx="18" cy="6" r="0.666667" style="fill:white;stroke:black;stroke-width:0.333333" />
<!-- Node 6 -->
<circle cx="19" cy="0" r="0.666667" style="fill:white;stroke:black;stroke-width:0.333333" />
<!-- Node 7 -->
<circle cx="5" cy="19" r="0.666667" style="fill:white;stroke:black;stroke-width:0.333333" />
<!-- Node 8 -->
<circle cx="1" cy="14" r="0.666667" style="fill:white;stroke:black;stroke-width:0.333333" />
<!-- Node 9 -->
<circle cx="23" cy="8" r="0.666667" style="fill:white;stroke:black;stroke-width:0.333333" />
<!-- Node 10 -->
<circle cx="1" cy="6" r="0.666667" style="fill:white;stroke:black;stroke-width:0.333333" />
<!-- Node 11 -->
<circle cx="1" cy="4" r="0.666667" style="fill:white;stroke:black;stroke-width:0.333333" />
<!-- Node 12 -->
<circle cx="3" cy="15" r="0.666667" style="fill:white;stroke:black;stroke-width:0.333333" />
<!-- Node 13 -->
<circle cx="4" cy="1" r="0.666667" style="fill:white;stroke:black;stroke-width:0.333333" />
<!-- Node 14 -->
<circle cx="20" cy="4" r="0.666667" style="fill:white;stroke:black;stroke-width:0.333333" />
<!-- Node 15 -->
<circle cx="1" cy="1" r="0.666667" style="fill:white;stroke:black;stroke-width:0.333333" />
<!-- Node 16 -->
<circle cx="14" cy="12" r="0.666667" style="fill:white;stroke:black;stroke-width:0.333333" />
<!-- Node 17 -->
<circle cx="5" cy="13" r="0.666667" style="fill:white;stroke:black;stroke-width:0.333333" />
<!-- Node 18 -->
<circle cx="17" cy="15" r="0.666667" style="fill:white;stroke:black;stroke-width:0.333333" />
<!-- Node 19 -->
<circle cx="9" cy="18" r="0.666667" style="fill:white;stroke:black;stroke-width:0.333333" />
<!-- Node 20 -->
<circle cx="16" cy="23" r="0.666667" style="fill:white;stroke:black;stroke-width:0.333333" />
<!-- Node 21 -->
<circle cx="2" cy="19" r="0.666667" style="fill:white;stroke:black;stroke-width:0.333333" />
<!-- Node 22 -->
<circle cx="14" cy="10" r="0.666667" style="fill:white;stroke:black;stroke-width:0.333333" />
<!-- Node 23 -->
<circle cx="13" cy="13" r="0.666667" style="fill:white;stroke:black;stroke-width:0.333333" />
			</g>
		</g>
	</g>
</svg>
