<?xml version="1.0" standalone="no"?>
<!DOCTYPE svg PUBLIC "-//W3C//DTD SVG 1.1//EN"
"http://www.w3.org/Graphics/SVG/1.1/DTD/svg11.dtd">

<svg width="100%" height="100%" version="1.1"
xmlns="http://www.w3.org/2000/svg">

		<g transform="translate(24,24)">
		<g transform="scale(34.000000)">
			<g transform="translate(0,-3)">
<!-- Route #0: 15 6 13 3 11 -->
<path d="M9 8
L11 16
L14 15
L12 10
L13 9
L14 9
Z" style="fill:none;stroke:#0b82ae;stroke-width:0.235294"/>
<!-- Route #1: 14 10 9 2 4 -->
<path d="M9 8
L10 4
L10 3
L14 6
L16 9
L11 7
Z" style="fill:none;stroke:#8c4300;stroke-width:0.235294"/>
<!-- Route #2: 7 12 8 -->
<path d="M9 8
L4 11
L1 10
L0 5
Z" style="fill:none;stroke:#71db24;stroke-width:0.235294"/>
<!-- Route #3: 5 16 1 -->
<path d="M9 8
L7 10
L10 11
L10 12
Z" style="fill:none;stroke:#97d940;stroke-width:0.235294"/>
<!-- Node 0 -->
<circle cx="9" cy="8" r="0.470588" style="fill:red;stroke:black;stroke-width:0.235294" />
<!-- Node 1 -->
<circle cx="10" cy="12" r="0.470588" style="fill:white;stroke:black;stroke-width:0.235294" />
<!-- Node 2 -->
<circle cx="16" cy="9" r="0.470588" style="fill:white;stroke:black;stroke-width:0.235294" />
<!-- Node 3 -->
<circle cx="13" cy="9" r="0.470588" style="fill:white;stroke:black;stroke-width:0.235294" />
<!-- Node 4 -->
<circle cx="11" cy="7" r="0.470588" style="fill:white;stroke:black;stroke-width:0.235294" />
<!-- Node 5 -->
<circle cx="7" cy="10" r="0.470588" style="fill:white;stroke:black;stroke-width:0.235294" />
<!-- Node 6 -->
<circle cx="14" cy="15" r="0.470588" style="fill:white;stroke:black;stroke-width:0.235294" />
<!-- Node 7 -->
<circle cx="4" cy="11" r="0.470588" style="fill:white;stroke:black;stroke-width:0.235294" />
<!-- Node 8 -->
<circle cx="0" cy="5" r="0.470588" style="fill:white;stroke:black;stroke-width:0.235294" />
<!-- Node 9 -->
<circle cx="14" cy="6" r="0.470588" style="fill:white;stroke:black;stroke-width:0.235294" />
<!-- Node 10 -->
<circle cx="10" cy="3" r="0.470588" style="fill:white;stroke:black;stroke-width:0.235294" />
<!-- Node 11 -->
<circle cx="14" cy="9" r="0.470588" style="fill:white;stroke:black;stroke-width:0.235294" />
<!-- Node 12 -->
<circle cx="1" cy="10" r="0.470588" style="fill:white;stroke:black;stroke-width:0.235294" />
<!-- Node 13 -->
<circle cx="12" cy="10" r="0.470588" style="fill:white;stroke:black;stroke-width:0.235294" />
<!-- Node 14 -->
<circle cx="10" cy="4" r="0.470588" style="fill:white;stroke:black;stroke-width:0.235294" />
<!-- Node 15 -->
<circle cx="11" cy="16" r="0.470588" style="fill:white;stroke:black;stroke-width:0.235294" />
<!-- Node 16 -->
<circle cx="10" cy="11" r="0.470588" style="fill:white;stroke:black;stroke-width:0.235294" />
			</g>
		</g>
	</g>
</svg>
