<?xml version="1.0" standalone="no"?>
<!DOCTYPE svg PUBLIC "-//W3C//DTD SVG 1.1//EN"
"http://www.w3.org/Graphics/SVG/1.1/DTD/svg11.dtd">

<svg width="100%" height="100%" version="1.1"
xmlns="http://www.w3.org/2000/svg">

		<g transform="translate(24,24)">
		<g transform="scale(15.000000)">
			<g transform="translate(0,0)">
<!-- Route #0: 15 23 4 24 13 -->
<path d="M29 23
L20 23
L19 23
L19 35
L29 35
L33 30
Z" style="fill:none;stroke:#d505d6;stroke-width:0.533333"/>
<!-- Route #1: 28 32 9 34 2 -->
<path d="M29 23
L35 16
L31 10
L31 11
L26 16
L27 16
Z" style="fill:none;stroke:#97beee;stroke-width:0.533333"/>
<!-- Route #2: 20 33 26 14 27 6 -->
<path d="M29 23
L3 19
L5 17
L3 12
L2 10
L0 5
L10 12
Z" style="fill:none;stroke:#166876;stroke-width:0.533333"/>
<!-- Route #3: 30 18 16 7 19 5 -->
<path d="M29 23
L27 13
L24 4
L23 0
L25 3
L30 7
L29 13
Z" style="fill:none;stroke:#552f49;stroke-width:0.533333"/>
<!-- Route #4: 11 10 21 8 17 12 1 -->
<path d="M29 23
L14 29
L12 30
L7 29
L9 26
L6 22
L8 19
L16 24
Z" style="fill:none;stroke:#1be68a;stroke-width:0.533333"/>
<!-- Route #5: 35 3 25 29 22 31 -->
<path d="M29 23
L19 22
L17 14
L18 7
L17 5
L22 9
L20 12
Z" style="fill:none;stroke:#e0e037;stroke-width:0.533333"/>
<!-- Node 0 -->
<circle cx="29" cy="23" r="1.066667" style="fill:red;stroke:black;stroke-width:0.533333" />
<!-- Node 1 -->
<circle cx="16" cy="24" r="1.066667" style="fill:white;stroke:black;stroke-width:0.533333" />
<!-- Node 2 -->
<circle cx="27" cy="16" r="1.066667" style="fill:white;stroke:black;stroke-width:0.533333" />
<!-- Node 3 -->
<circle cx="17" cy="14" r="1.066667" style="fill:white;stroke:black;stroke-width:0.533333" />
<!-- Node 4 -->
<circle cx="19" cy="35" r="1.066667" style="fill:white;stroke:black;stroke-width:0.533333" />
<!-- Node 5 -->
<circle cx="29" cy="13" r="1.066667" style="fill:white;stroke:black;stroke-width:0.533333" />
<!-- Node 6 -->
<circle cx="10" cy="12" r="1.066667" style="fill:white;stroke:black;stroke-width:0.533333" />
<!-- Node 7 -->
<circle cx="25" cy="3" r="1.066667" style="fill:white;stroke:black;stroke-width:0.533333" />
<!-- Node 8 -->
<circle cx="9" cy="26" r="1.066667" style="fill:white;stroke:black;stroke-width:0.533333" />
<!-- Node 9 -->
<circle cx="31" cy="11" r="1.066667" style="fill:white;stroke:black;stroke-width:0.533333" />
<!-- Node 10 -->
<circle cx="12" cy="30" r="1.066667" style="fill:white;stroke:black;stroke-width:0.533333" />
<!-- Node 11 -->
<circle cx="14" cy="29" r="1.066667" style="fill:white;stroke:black;stroke-width:0.533333" />
<!-- Node 12 -->
<circle cx="8" cy="19" r="1.066667" style="fill:white;stroke:black;stroke-width:0.533333" />
<!-- Node 13 -->
<circle cx="33" cy="30" r="1.066667" style="fill:white;stroke:black;stroke-width:0.533333" />
<!-- Node 14 -->
<circle cx="2" cy="10" r="1.066667" style="fill:white;stroke:black;stroke-width:0.533333" />
<!-- Node 15 -->
<circle cx="20" cy="23" r="1.066667" style="fill:white;stroke:black;stroke-width:0.533333" />
<!-- Node 16 -->
<circle cx="23" cy="0" r="1.066667" style="fill:white;stroke:black;stroke-width:0.533333" />
<!-- Node 17 -->
<circle cx="6" cy="22" r="1.066667" style="fill:white;stroke:black;stroke-width:0.533333" />
<!-- Node 18 -->
<circle cx="24" cy="4" r="1.066667" style="fill:white;stroke:black;stroke-width:0.533333" />
<!-- Node 19 -->
<circle cx="30" cy="7" r="1.066667" style="fill:white;stroke:black;stroke-width:0.533333" />
<!-- Node 20 -->
<circle cx="3" cy="19" r="1.066667" style="fill:white;stroke:black;stroke-width:0.533333" />
<!-- Node 21 -->
<circle cx="7" cy="29" r="1.066667" style="fill:white;stroke:black;stroke-width:0.533333" />
<!-- Node 22 -->
<circle cx="22" cy="9" r="1.066667" style="fill:white;stroke:black;stroke-width:0.533333" />
<!-- Node 23 -->
<circle cx="19" cy="23" r="1.066667" style="fill:white;stroke:black;stroke-width:0.533333" />
<!-- Node 24 -->
<circle cx="29" cy="35" r="1.066667" style="fill:white;stroke:black;stroke-width:0.533333" />
<!-- Node 25 -->
<circle cx="18" cy="7" r="1.066667" style="fill:white;stroke:black;stroke-width:0.533333" />
<!-- Node 26 -->
<circle cx="3" cy="12" r="1.066667" style="fill:white;stroke:black;stroke-width:0.533333" />
<!-- Node 27 -->
<circle cx="0" cy="5" r="1.066667" style="fill:white;stroke:black;stroke-width:0.533333" />
<!-- Node 28 -->
<circle cx="35" cy="16" r="1.066667" style="fill:white;stroke:black;stroke-width:0.533333" />
<!-- Node 29 -->
<circle cx="17" cy="5" r="1.066667" style="fill:white;stroke:black;stroke-width:0.533333" />
<!-- Node 30 -->
<circle cx="27" cy="13" r="1.066667" style="fill:white;stroke:black;stroke-width:0.533333" />
<!-- Node 31 -->
<circle cx="20" cy="12" r="1.066667" style="fill:white;stroke:black;stroke-width:0.533333" />
<!-- Node 32 -->
<circle cx="31" cy="10" r="1.066667" style="fill:white;stroke:black;stroke-width:0.533333" />
<!-- Node 33 -->
<circle cx="5" cy="17" r="1.066667" style="fill:white;stroke:black;stroke-width:0.533333" />
<!-- Node 34 -->
<circle cx="26" cy="16" r="1.066667" style="fill:white;stroke:black;stroke-width:0.533333" />
<!-- Node 35 -->
<circle cx="19" cy="22" r="1.066667" style="fill:white;stroke:black;stroke-width:0.533333" />
			</g>
		</g>
	</g>
</svg>
