<?xml version="1.0" standalone="no"?>
<!DOCTYPE svg PUBLIC "-//W3C//DTD SVG 1.1//EN"
"http://www.w3.org/Graphics/SVG/1.1/DTD/svg11.dtd">

<svg width="100%" height="100%" version="1.1"
xmlns="http://www.w3.org/2000/svg">

		<g transform="translate(24,24)">
		<g transform="scale(29.000000)">
			<g transform="translate(0,0)">
<!-- Route #0: 15 2 3 12 8 -->
<path d="M18 14
L11 13
L7 15
L2 16
L10 18
L11 17
Z" style="fill:none;stroke:#d5404f;stroke-width:0.275862"/>
<!-- Route #1: 17 9 10 4 16 14 -->
<path d="M18 14
L12 12
L11 7
L9 3
L10 0
L12 1
L19 7
Z" style="fill:none;stroke:#da98e4;stroke-width:0.275862"/>
<!-- Route #2: 13 20 19 5 7 11 6 -->
<path d="M18 14
L11 10
L7 6
L2 5
L0 8
L0 14
L5 11
L8 10
Z" style="fill:none;stroke:#3080c3;stroke-width:0.275862"/>
<!-- Route #3: 1 18 -->
<path d="M18 14
L13 14
L17 16
Z" style="fill:none;stroke:#c34728;stroke-width:0.275862"/>
<!-- Node 0 -->
<circle cx="18" cy="14" r="0.551724" style="fill:red;stroke:black;stroke-width:0.275862" />
<!-- Node 1 -->
<circle cx="13" cy="14" r="0.551724" style="fill:white;stroke:black;stroke-width:0.275862" />
<!-- Node 2 -->
<circle cx="7" cy="15" r="0.551724" style="fill:white;stroke:black;stroke-width:0.275862" />
<!-- Node 3 -->
<circle cx="2" cy="16" r="0.551724" style="fill:white;stroke:black;stroke-width:0.275862" />
<!-- Node 4 -->
<circle cx="10" cy="0" r="0.551724" style="fill:white;stroke:black;stroke-width:0.275862" />
<!-- Node 5 -->
<circle cx="0" cy="8" r="0.551724" style="fill:white;stroke:black;stroke-width:0.275862" />
<!-- Node 6 -->
<circle cx="8" cy="10" r="0.551724" style="fill:white;stroke:black;stroke-width:0.275862" />
<!-- Node 7 -->
<circle cx="0" cy="14" r="0.551724" style="fill:white;stroke:black;stroke-width:0.275862" />
<!-- Node 8 -->
<circle cx="11" cy="17" r="0.551724" style="fill:white;stroke:black;stroke-width:0.275862" />
<!-- Node 9 -->
<circle cx="11" cy="7" r="0.551724" style="fill:white;stroke:black;stroke-width:0.275862" />
<!-- Node 10 -->
<circle cx="9" cy="3" r="0.551724" style="fill:white;stroke:black;stroke-width:0.275862" />
<!-- Node 11 -->
<circle cx="5" cy="11" r="0.551724" style="fill:white;stroke:black;stroke-width:0.275862" />
<!-- Node 12 -->
<circle cx="10" cy="18" r="0.551724" style="fill:white;stroke:black;stroke-width:0.275862" />
<!-- Node 13 -->
<circle cx="11" cy="10" r="0.551724" style="fill:white;stroke:black;stroke-width:0.275862" />
<!-- Node 14 -->
<circle cx="19" cy="7" r="0.551724" style="fill:white;stroke:black;stroke-width:0.275862" />
<!-- Node 15 -->
<circle cx="11" cy="13" r="0.551724" style="fill:white;stroke:black;stroke-width:0.275862" />
<!-- Node 16 -->
<circle cx="12" cy="1" r="0.551724" style="fill:white;stroke:black;stroke-width:0.275862" />
<!-- Node 17 -->
<circle cx="12" cy="12" r="0.551724" style="fill:white;stroke:black;stroke-width:0.275862" />
<!-- Node 18 -->
<circle cx="17" cy="16" r="0.551724" style="fill:white;stroke:black;stroke-width:0.275862" />
<!-- Node 19 -->
<circle cx="2" cy="5" r="0.551724" style="fill:white;stroke:black;stroke-width:0.275862" />
<!-- Node 20 -->
<circle cx="7" cy="6" r="0.551724" style="fill:white;stroke:black;stroke-width:0.275862" />
			</g>
		</g>
	</g>
</svg>
