<?xml version="1.0" standalone="no"?>
<!DOCTYPE svg PUBLIC "-//W3C//DTD SVG 1.1//EN"
"http://www.w3.org/Graphics/SVG/1.1/DTD/svg11.dtd">

<svg width="100%" height="100%" version="1.1"
xmlns="http://www.w3.org/2000/svg">

		<g transform="translate(24,24)">
		<g transform="scale(30.000000)">
			<g transform="translate(0,0)">
<!-- Route #0: 4 6 -->
<path d="M0 3
L2 6
L0 7
Z" style="fill:none;stroke:#368655;stroke-width:0.266667"/>
<!-- Route #1: 3 2 16 10 8 7 9 1 -->
<path d="M0 3
L2 3
L10 11
L13 13
L14 14
L12 15
L11 18
L8 17
L4 15
Z" style="fill:none;stroke:#dec2f6;stroke-width:0.266667"/>
<!-- Route #2: 13 12 18 -->
<path d="M0 3
L3 4
L4 3
L2 4
Z" style="fill:none;stroke:#c56197;stroke-width:0.266667"/>
<!-- Route #3: 14 5 17 15 11 -->
<path d="M0 3
L4 0
L7 0
L13 2
L16 4
L4 9
Z" style="fill:none;stroke:#95d627;stroke-width:0.266667"/>
<!-- Node 0 -->
<circle cx="0" cy="3" r="0.533333" style="fill:red;stroke:black;stroke-width:0.266667" />
<!-- Node 1 -->
<circle cx="4" cy="15" r="0.533333" style="fill:white;stroke:black;stroke-width:0.266667" />
<!-- Node 2 -->
<circle cx="10" cy="11" r="0.533333" style="fill:white;stroke:black;stroke-width:0.266667" />
<!-- Node 3 -->
<circle cx="2" cy="3" r="0.533333" style="fill:white;stroke:black;stroke-width:0.266667" />
<!-- Node 4 -->
<circle cx="2" cy="6" r="0.533333" style="fill:white;stroke:black;stroke-width:0.266667" />
<!-- Node 5 -->
<circle cx="7" cy="0" r="0.533333" style="fill:white;stroke:black;stroke-width:0.266667" />
<!-- Node 6 -->
<circle cx="0" cy="7" r="0.533333" style="fill:white;stroke:black;stroke-width:0.266667" />
<!-- Node 7 -->
<circle cx="11" cy="18" r="0.533333" style="fill:white;stroke:black;stroke-width:0.266667" />
<!-- Node 8 -->
<circle cx="12" cy="15" r="0.533333" style="fill:white;stroke:black;stroke-width:0.266667" />
<!-- Node 9 -->
<circle cx="8" cy="17" r="0.533333" style="fill:white;stroke:black;stroke-width:0.266667" />
<!-- Node 10 -->
<circle cx="14" cy="14" r="0.533333" style="fill:white;stroke:black;stroke-width:0.266667" />
<!-- Node 11 -->
<circle cx="4" cy="9" r="0.533333" style="fill:white;stroke:black;stroke-width:0.266667" />
<!-- Node 12 -->
<circle cx="4" cy="3" r="0.533333" style="fill:white;stroke:black;stroke-width:0.266667" />
<!-- Node 13 -->
<circle cx="3" cy="4" r="0.533333" style="fill:white;stroke:black;stroke-width:0.266667" />
<!-- Node 14 -->
<circle cx="4" cy="0" r="0.533333" style="fill:white;stroke:black;stroke-width:0.266667" />
<!-- Node 15 -->
<circle cx="16" cy="4" r="0.533333" style="fill:white;stroke:black;stroke-width:0.266667" />
<!-- Node 16 -->
<circle cx="13" cy="13" r="0.533333" style="fill:white;stroke:black;stroke-width:0.266667" />
<!-- Node 17 -->
<circle cx="13" cy="2" r="0.533333" style="fill:white;stroke:black;stroke-width:0.266667" />
<!-- Node 18 -->
<circle cx="2" cy="4" r="0.533333" style="fill:white;stroke:black;stroke-width:0.266667" />
			</g>
		</g>
	</g>
</svg>
