<?xml version="1.0" standalone="no"?>
<!DOCTYPE svg PUBLIC "-//W3C//DTD SVG 1.1//EN"
"http://www.w3.org/Graphics/SVG/1.1/DTD/svg11.dtd">

<svg width="100%" height="100%" version="1.1"
xmlns="http://www.w3.org/2000/svg">

		<g transform="translate(24,24)">
		<g transform="scale(32.000000)">
			<g transform="translate(-1,-1)">
<!-- Route #0: 16 11 8 6 1 7 17 9 -->
<path d="M16 10
L9 1
L8 3
L6 4
L5 3
L1 1
L4 11
L7 9
L11 10
Z" style="fill:none;stroke:#1c2373;stroke-width:0.250000"/>
<!-- Route #1: 15 4 18 2 -->
<path d="M16 10
L17 6
L17 1
L15 4
L14 4
Z" style="fill:none;stroke:#d6dfae;stroke-width:0.250000"/>
<!-- Route #2: 13 14 3 12 5 10 -->
<path d="M16 10
L14 12
L6 14
L14 17
L15 17
L17 12
L18 11
Z" style="fill:none;stroke:#cd1406;stroke-width:0.250000"/>
<!-- Node 0 -->
<circle cx="16" cy="10" r="0.500000" style="fill:red;stroke:black;stroke-width:0.250000" />
<!-- Node 1 -->
<circle cx="1" cy="1" r="0.500000" style="fill:white;stroke:black;stroke-width:0.250000" />
<!-- Node 2 -->
<circle cx="14" cy="4" r="0.500000" style="fill:white;stroke:black;stroke-width:0.250000" />
<!-- Node 3 -->
<circle cx="14" cy="17" r="0.500000" style="fill:white;stroke:black;stroke-width:0.250000" />
<!-- Node 4 -->
<circle cx="17" cy="1" r="0.500000" style="fill:white;stroke:black;stroke-width:0.250000" />
<!-- Node 5 -->
<circle cx="17" cy="12" r="0.500000" style="fill:white;stroke:black;stroke-width:0.250000" />
<!-- Node 6 -->
<circle cx="5" cy="3" r="0.500000" style="fill:white;stroke:black;stroke-width:0.250000" />
<!-- Node 7 -->
<circle cx="4" cy="11" r="0.500000" style="fill:white;stroke:black;stroke-width:0.250000" />
<!-- Node 8 -->
<circle cx="6" cy="4" r="0.500000" style="fill:white;stroke:black;stroke-width:0.250000" />
<!-- Node 9 -->
<circle cx="11" cy="10" r="0.500000" style="fill:white;stroke:black;stroke-width:0.250000" />
<!-- Node 10 -->
<circle cx="18" cy="11" r="0.500000" style="fill:white;stroke:black;stroke-width:0.250000" />
<!-- Node 11 -->
<circle cx="8" cy="3" r="0.500000" style="fill:white;stroke:black;stroke-width:0.250000" />
<!-- Node 12 -->
<circle cx="15" cy="17" r="0.500000" style="fill:white;stroke:black;stroke-width:0.250000" />
<!-- Node 13 -->
<circle cx="14" cy="12" r="0.500000" style="fill:white;stroke:black;stroke-width:0.250000" />
<!-- Node 14 -->
<circle cx="6" cy="14" r="0.500000" style="fill:white;stroke:black;stroke-width:0.250000" />
<!-- Node 15 -->
<circle cx="17" cy="6" r="0.500000" style="fill:white;stroke:black;stroke-width:0.250000" />
<!-- Node 16 -->
<circle cx="9" cy="1" r="0.500000" style="fill:white;stroke:black;stroke-width:0.250000" />
<!-- Node 17 -->
<circle cx="7" cy="9" r="0.500000" style="fill:white;stroke:black;stroke-width:0.250000" />
<!-- Node 18 -->
<circle cx="15" cy="4" r="0.500000" style="fill:white;stroke:black;stroke-width:0.250000" />
			</g>
		</g>
	</g>
</svg>
