<?xml version="1.0" standalone="no"?>
<!DOCTYPE svg PUBLIC "-//W3C//DTD SVG 1.1//EN"
"http://www.w3.org/Graphics/SVG/1.1/DTD/svg11.dtd">

<svg width="100%" height="100%" version="1.1"
xmlns="http://www.w3.org/2000/svg">

		<g transform="translate(24,24)">
		<g transform="scale(16.000000)">
			<g transform="translate(-1,0)">
<!-- Route #0: 15 1 22 33 32 26 8 -->
<path d="M3 15
L19 15
L27 10
L30 10
L28 7
L22 4
L12 10
L9 12
Z" style="fill:none;stroke:#bcfd38;stroke-width:0.500000"/>
<!-- Route #1: 14 10 23 29 13 12 16 -->
<path d="M3 15
L5 14
L7 9
L11 7
L17 1
L13 0
L9 2
L1 3
Z" style="fill:none;stroke:#fe8a0b;stroke-width:0.500000"/>
<!-- Route #2: 27 2 21 4 -->
<path d="M3 15
L24 19
L33 17
L28 25
L20 24
Z" style="fill:none;stroke:#494e15;stroke-width:0.500000"/>
<!-- Route #3: 28 31 17 30 24 20 3 11 18 9 7 -->
<path d="M3 15
L14 24
L15 33
L27 32
L29 32
L33 33
L33 31
L29 28
L27 30
L22 28
L23 27
L19 23
Z" style="fill:none;stroke:#84cf4b;stroke-width:0.500000"/>
<!-- Route #4: 6 5 25 19 -->
<path d="M3 15
L1 25
L4 25
L13 25
L10 21
Z" style="fill:none;stroke:#476336;stroke-width:0.500000"/>
<!-- Node 0 -->
<circle cx="3" cy="15" r="1.000000" style="fill:red;stroke:black;stroke-width:0.500000" />
<!-- Node 1 -->
<circle cx="27" cy="10" r="1.000000" style="fill:white;stroke:black;stroke-width:0.500000" />
<!-- Node 2 -->
<circle cx="33" cy="17" r="1.000000" style="fill:white;stroke:black;stroke-width:0.500000" />
<!-- Node 3 -->
<circle cx="29" cy="28" r="1.000000" style="fill:white;stroke:black;stroke-width:0.500000" />
<!-- Node 4 -->
<circle cx="20" cy="24" r="1.000000" style="fill:white;stroke:black;stroke-width:0.500000" />
<!-- Node 5 -->
<circle cx="4" cy="25" r="1.000000" style="fill:white;stroke:black;stroke-width:0.500000" />
<!-- Node 6 -->
<circle cx="1" cy="25" r="1.000000" style="fill:white;stroke:black;stroke-width:0.500000" />
<!-- Node 7 -->
<circle cx="19" cy="23" r="1.000000" style="fill:white;stroke:black;stroke-width:0.500000" />
<!-- Node 8 -->
<circle cx="9" cy="12" r="1.000000" style="fill:white;stroke:black;stroke-width:0.500000" />
<!-- Node 9 -->
<circle cx="23" cy="27" r="1.000000" style="fill:white;stroke:black;stroke-width:0.500000" />
<!-- Node 10 -->
<circle cx="7" cy="9" r="1.000000" style="fill:white;stroke:black;stroke-width:0.500000" />
<!-- Node 11 -->
<circle cx="27" cy="30" r="1.000000" style="fill:white;stroke:black;stroke-width:0.500000" />
<!-- Node 12 -->
<circle cx="9" cy="2" r="1.000000" style="fill:white;stroke:black;stroke-width:0.500000" />
<!-- Node 13 -->
<circle cx="13" cy="0" r="1.000000" style="fill:white;stroke:black;stroke-width:0.500000" />
<!-- Node 14 -->
<circle cx="5" cy="14" r="1.000000" style="fill:white;stroke:black;stroke-width:0.500000" />
<!-- Node 15 -->
<circle cx="19" cy="15" r="1.000000" style="fill:white;stroke:black;stroke-width:0.500000" />
<!-- Node 16 -->
<circle cx="1" cy="3" r="1.000000" style="fill:white;stroke:black;stroke-width:0.500000" />
<!-- Node 17 -->
<circle cx="27" cy="32" r="1.000000" style="fill:white;stroke:black;stroke-width:0.500000" />
<!-- Node 18 -->
<circle cx="22" cy="28" r="1.000000" style="fill:white;stroke:black;stroke-width:0.500000" />
<!-- Node 19 -->
<circle cx="10" cy="21" r="1.000000" style="fill:white;stroke:black;stroke-width:0.500000" />
<!-- Node 20 -->
<circle cx="33" cy="31" r="1.000000" style="fill:white;stroke:black;stroke-width:0.500000" />
<!-- Node 21 -->
<circle cx="28" cy="25" r="1.000000" style="fill:white;stroke:black;stroke-width:0.500000" />
<!-- Node 22 -->
<circle cx="30" cy="10" r="1.000000" style="fill:white;stroke:black;stroke-width:0.500000" />
<!-- Node 23 -->
<circle cx="11" cy="7" r="1.000000" style="fill:white;stroke:black;stroke-width:0.500000" />
<!-- Node 24 -->
<circle cx="33" cy="33" r="1.000000" style="fill:white;stroke:black;stroke-width:0.500000" />
<!-- Node 25 -->
<circle cx="13" cy="25" r="1.000000" style="fill:white;stroke:black;stroke-width:0.500000" />
<!-- Node 26 -->
<circle cx="12" cy="10" r="1.000000" style="fill:white;stroke:black;stroke-width:0.500000" />
<!-- Node 27 -->
<circle cx="24" cy="19" r="1.000000" style="fill:white;stroke:black;stroke-width:0.500000" />
<!-- Node 28 -->
<circle cx="14" cy="24" r="1.000000" style="fill:white;stroke:black;stroke-width:0.500000" />
<!-- Node 29 -->
<circle cx="17" cy="1" r="1.000000" style="fill:white;stroke:black;stroke-width:0.500000" />
<!-- Node 30 -->
<circle cx="29" cy="32" r="1.000000" style="fill:white;stroke:black;stroke-width:0.500000" />
<!-- Node 31 -->
<circle cx="15" cy="33" r="1.000000" style="fill:white;stroke:black;stroke-width:0.500000" />
<!-- Node 32 -->
<circle cx="22" cy="4" r="1.000000" style="fill:white;stroke:black;stroke-width:0.500000" />
<!-- Node 33 -->
<circle cx="28" cy="7" r="1.000000" style="fill:white;stroke:black;stroke-width:0.500000" />
			</g>
		</g>
	</g>
</svg>
