<?xml version="1.0" standalone="no"?>
<!DOCTYPE svg PUBLIC "-//W3C//DTD SVG 1.1//EN"
"http://www.w3.org/Graphics/SVG/1.1/DTD/svg11.dtd">

<svg width="100%" height="100%" version="1.1"
xmlns="http://www.w3.org/2000/svg">

		<g transform="translate(24,24)">
		<g transform="scale(16.000000)">
			<g transform="translate(-2,-2)">
<!-- Route #0: 30 19 2 7 18 29 22 1 -->
<path d="M12 12
L19 12
L26 12
L30 2
L25 5
L22 2
L17 4
L16 3
L13 3
Z" style="fill:none;stroke:#0b6a89;stroke-width:0.500000"/>
<!-- Route #1: 12 31 14 6 -->
<path d="M12 12
L10 25
L9 28
L8 36
L13 28
Z" style="fill:none;stroke:#24d967;stroke-width:0.500000"/>
<!-- Route #2: 23 17 13 20 15 4 -->
<path d="M12 12
L28 16
L31 33
L29 32
L27 31
L17 19
L16 19
Z" style="fill:none;stroke:#9b90f2;stroke-width:0.500000"/>
<!-- Route #3: 5 37 25 10 28 3 -->
<path d="M12 12
L8 11
L4 12
L2 7
L7 2
L9 5
L6 8
Z" style="fill:none;stroke:#f10a35;stroke-width:0.500000"/>
<!-- Route #4: 33 8 35 34 11 16 21 -->
<path d="M12 12
L36 10
L36 27
L36 35
L34 33
L30 34
L33 29
L29 23
Z" style="fill:none;stroke:#e44556;stroke-width:0.500000"/>
<!-- Route #5: 27 9 36 26 32 24 -->
<path d="M12 12
L16 29
L14 34
L20 34
L21 30
L21 27
L14 18
Z" style="fill:none;stroke:#032972;stroke-width:0.500000"/>
<!-- Node 0 -->
<circle cx="12" cy="12" r="1.000000" style="fill:red;stroke:black;stroke-width:0.500000" />
<!-- Node 1 -->
<circle cx="13" cy="3" r="1.000000" style="fill:white;stroke:black;stroke-width:0.500000" />
<!-- Node 2 -->
<circle cx="30" cy="2" r="1.000000" style="fill:white;stroke:black;stroke-width:0.500000" />
<!-- Node 3 -->
<circle cx="6" cy="8" r="1.000000" style="fill:white;stroke:black;stroke-width:0.500000" />
<!-- Node 4 -->
<circle cx="16" cy="19" r="1.000000" style="fill:white;stroke:black;stroke-width:0.500000" />
<!-- Node 5 -->
<circle cx="8" cy="11" r="1.000000" style="fill:white;stroke:black;stroke-width:0.500000" />
<!-- Node 6 -->
<circle cx="13" cy="28" r="1.000000" style="fill:white;stroke:black;stroke-width:0.500000" />
<!-- Node 7 -->
<circle cx="25" cy="5" r="1.000000" style="fill:white;stroke:black;stroke-width:0.500000" />
<!-- Node 8 -->
<circle cx="36" cy="27" r="1.000000" style="fill:white;stroke:black;stroke-width:0.500000" />
<!-- Node 9 -->
<circle cx="14" cy="34" r="1.000000" style="fill:white;stroke:black;stroke-width:0.500000" />
<!-- Node 10 -->
<circle cx="7" cy="2" r="1.000000" style="fill:white;stroke:black;stroke-width:0.500000" />
<!-- Node 11 -->
<circle cx="30" cy="34" r="1.000000" style="fill:white;stroke:black;stroke-width:0.500000" />
<!-- Node 12 -->
<circle cx="10" cy="25" r="1.000000" style="fill:white;stroke:black;stroke-width:0.500000" />
<!-- Node 13 -->
<circle cx="29" cy="32" r="1.000000" style="fill:white;stroke:black;stroke-width:0.500000" />
<!-- Node 14 -->
<circle cx="8" cy="36" r="1.000000" style="fill:white;stroke:black;stroke-width:0.500000" />
<!-- Node 15 -->
<circle cx="17" cy="19" r="1.000000" style="fill:white;stroke:black;stroke-width:0.500000" />
<!-- Node 16 -->
<circle cx="33" cy="29" r="1.000000" style="fill:white;stroke:black;stroke-width:0.500000" />
<!-- Node 17 -->
<circle cx="31" cy="33" r="1.000000" style="fill:white;stroke:black;stroke-width:0.500000" />
<!-- Node 18 -->
<circle cx="22" cy="2" r="1.000000" style="fill:white;stroke:black;stroke-width:0.500000" />
<!-- Node 19 -->
<circle cx="26" cy="12" r="1.000000" style="fill:white;stroke:black;stroke-width:0.500000" />
<!-- Node 20 -->
<circle cx="27" cy="31" r="1.000000" style="fill:white;stroke:black;stroke-width:0.500000" />
<!-- Node 21 -->
<circle cx="29" cy="23" r="1.000000" style="fill:white;stroke:black;stroke-width:0.500000" />
<!-- Node 22 -->
<circle cx="16" cy="3" r="1.000000" style="fill:white;stroke:black;stroke-width:0.500000" />
<!-- Node 23 -->
<circle cx="28" cy="16" r="1.000000" style="fill:white;stroke:black;stroke-width:0.500000" />
<!-- Node 24 -->
<circle cx="14" cy="18" r="1.000000" style="fill:white;stroke:black;stroke-width:0.500000" />
<!-- Node 25 -->
<circle cx="2" cy="7" r="1.000000" style="fill:white;stroke:black;stroke-width:0.500000" />
<!-- Node 26 -->
<circle cx="21" cy="30" r="1.000000" style="fill:white;stroke:black;stroke-width:0.500000" />
<!-- Node 27 -->
<circle cx="16" cy="29" r="1.000000" style="fill:white;stroke:black;stroke-width:0.500000" />
<!-- Node 28 -->
<circle cx="9" cy="5" r="1.000000" style="fill:white;stroke:black;stroke-width:0.500000" />
<!-- Node 29 -->
<circle cx="17" cy="4" r="1.000000" style="fill:white;stroke:black;stroke-width:0.500000" />
<!-- Node 30 -->
<circle cx="19" cy="12" r="1.000000" style="fill:white;stroke:black;stroke-width:0.500000" />
<!-- Node 31 -->
<circle cx="9" cy="28" r="1.000000" style="fill:white;stroke:black;stroke-width:0.500000" />
<!-- Node 32 -->
<circle cx="21" cy="27" r="1.000000" style="fill:white;stroke:black;stroke-width:0.500000" />
<!-- Node 33 -->
<circle cx="36" cy="10" r="1.000000" style="fill:white;stroke:black;stroke-width:0.500000" />
<!-- Node 34 -->
<circle cx="34" cy="33" r="1.000000" style="fill:white;stroke:black;stroke-width:0.500000" />
<!-- Node 35 -->
<circle cx="36" cy="35" r="1.000000" style="fill:white;stroke:black;stroke-width:0.500000" />
<!-- Node 36 -->
<circle cx="20" cy="34" r="1.000000" style="fill:white;stroke:black;stroke-width:0.500000" />
<!-- Node 37 -->
<circle cx="4" cy="12" r="1.000000" style="fill:white;stroke:black;stroke-width:0.500000" />
			</g>
		</g>
	</g>
</svg>
