<?xml version="1.0" standalone="no"?>
<!DOCTYPE svg PUBLIC "-//W3C//DTD SVG 1.1//EN"
"http://www.w3.org/Graphics/SVG/1.1/DTD/svg11.dtd">

<svg width="100%" height="100%" version="1.1"
xmlns="http://www.w3.org/2000/svg">

	<g transform="translate(24,24)">
		<g transform="scale(29.000000)">
			<g transform="translate(0,-1)">
<!-- Route #0: 14 1 15 7 6 2 18 4 -->
<path d="M4 6
L3 10
L3 19
L6 16
L9 17
L11 19
L12 17
L19 14
L11 7
Z" style="fill:none;stroke:#b357a1;stroke-width:0.275862"/>
<!-- Route #1: 13 11 17 9 5 -->
<path d="M4 6
L3 6
L2 7
L0 7
L0 6
L1 3
Z" style="fill:none;stroke:#6a7ee7;stroke-width:0.275862"/>
<!-- Route #2: 10 3 16 19 8 12 -->
<path d="M4 6
L6 4
L8 2
L12 1
L17 1
L17 9
L15 12
Z" style="fill:none;stroke:#d8164e;stroke-width:0.275862"/>
<!-- Node 0 -->
<circle cx="4" cy="6" r="0.551724" style="fill:red;stroke:black;stroke-width:0.275862" />
<!-- Node 1 -->
<circle cx="3" cy="19" r="0.551724" style="fill:white;stroke:black;stroke-width:0.275862" />
<!-- Node 2 -->
<circle cx="12" cy="17" r="0.551724" style="fill:white;stroke:black;stroke-width:0.275862" />
<!-- Node 3 -->
<circle cx="8" cy="2" r="0.551724" style="fill:white;stroke:black;stroke-width:0.275862" />
<!-- Node 4 -->
<circle cx="11" cy="7" r="0.551724" style="fill:white;stroke:black;stroke-width:0.275862" />
<!-- Node 5 -->
<circle cx="1" cy="3" r="0.551724" style="fill:white;stroke:black;stroke-width:0.275862" />
<!-- Node 6 -->
<circle cx="11" cy="19" r="0.551724" style="fill:white;stroke:black;stroke-width:0.275862" />
<!-- Node 7 -->
<circle cx="9" cy="17" r="0.551724" style="fill:white;stroke:black;stroke-width:0.275862" />
<!-- Node 8 -->
<circle cx="17" cy="9" r="0.551724" style="fill:white;stroke:black;stroke-width:0.275862" />
<!-- Node 9 -->
<circle cx="0" cy="6" r="0.551724" style="fill:white;stroke:black;stroke-width:0.275862" />
<!-- Node 10 -->
<circle cx="6" cy="4" r="0.551724" style="fill:white;stroke:black;stroke-width:0.275862" />
<!-- Node 11 -->
<circle cx="2" cy="7" r="0.551724" style="fill:white;stroke:black;stroke-width:0.275862" />
<!-- Node 12 -->
<circle cx="15" cy="12" r="0.551724" style="fill:white;stroke:black;stroke-width:0.275862" />
<!-- Node 13 -->
<circle cx="3" cy="6" r="0.551724" style="fill:white;stroke:black;stroke-width:0.275862" />
<!-- Node 14 -->
<circle cx="3" cy="10" r="0.551724" style="fill:white;stroke:black;stroke-width:0.275862" />
<!-- Node 15 -->
<circle cx="6" cy="16" r="0.551724" style="fill:white;stroke:black;stroke-width:0.275862" />
<!-- Node 16 -->
<circle cx="12" cy="1" r="0.551724" style="fill:white;stroke:black;stroke-width:0.275862" />
<!-- Node 17 -->
<circle cx="0" cy="7" r="0.551724" style="fill:white;stroke:black;stroke-width:0.275862" />
<!-- Node 18 -->
<circle cx="19" cy="14" r="0.551724" style="fill:white;stroke:black;stroke-width:0.275862" />
<!-- Node 19 -->
<circle cx="17" cy="1" r="0.551724" style="fill:white;stroke:black;stroke-width:0.275862" />
			</g>
		</g>
	</g>
</svg>
