<?xml version="1.0" standalone="no"?>
<!DOCTYPE svg PUBLIC "-//W3C//DTD SVG 1.1//EN"
"http://www.w3.org/Graphics/SVG/1.1/DTD/svg11.dtd">

<svg width="100%" height="100%" version="1.1"
xmlns="http://www.w3.org/2000/svg">

		<g transform="translate(24,24)">
		<g transform="scale(29.000000)">
			<g transform="translate(0,-1)">
<!-- Route #0: 17 15 1 4 9 -->
<path d="M0 16
L12 14
L19 19
L14 18
L5 19
L3 19
Z" style="fill:none;stroke:#3bb78a;stroke-width:0.275862"/>
<!-- Route #1: 7 8 11 6 -->
<path d="M0 16
L3 14
L7 5
L6 1
L3 3
Z" style="fill:none;stroke:#4006bc;stroke-width:0.275862"/>
<!-- Route #2: 3 12 16 13 2 -->
<path d="M0 16
L2 4
L8 1
L11 3
L14 3
L13 8
Z" style="fill:none;stroke:#e066c4;stroke-width:0.275862"/>
<!-- Route #3: 19 14 10 5 18 -->
<path d="M0 16
L7 15
L8 12
L5 12
L3 10
L1 15
Z" style="fill:none;stroke:#488df4;stroke-width:0.275862"/>
<!-- Node 0 -->
<circle cx="0" cy="16" r="0.551724" style="fill:red;stroke:black;stroke-width:0.275862" />
<!-- Node 1 -->
<circle cx="14" cy="18" r="0.551724" style="fill:white;stroke:black;stroke-width:0.275862" />
<!-- Node 2 -->
<circle cx="13" cy="8" r="0.551724" style="fill:white;stroke:black;stroke-width:0.275862" />
<!-- Node 3 -->
<circle cx="2" cy="4" r="0.551724" style="fill:white;stroke:black;stroke-width:0.275862" />
<!-- Node 4 -->
<circle cx="5" cy="19" r="0.551724" style="fill:white;stroke:black;stroke-width:0.275862" />
<!-- Node 5 -->
<circle cx="3" cy="10" r="0.551724" style="fill:white;stroke:black;stroke-width:0.275862" />
<!-- Node 6 -->
<circle cx="3" cy="3" r="0.551724" style="fill:white;stroke:black;stroke-width:0.275862" />
<!-- Node 7 -->
<circle cx="3" cy="14" r="0.551724" style="fill:white;stroke:black;stroke-width:0.275862" />
<!-- Node 8 -->
<circle cx="7" cy="5" r="0.551724" style="fill:white;stroke:black;stroke-width:0.275862" />
<!-- Node 9 -->
<circle cx="3" cy="19" r="0.551724" style="fill:white;stroke:black;stroke-width:0.275862" />
<!-- Node 10 -->
<circle cx="5" cy="12" r="0.551724" style="fill:white;stroke:black;stroke-width:0.275862" />
<!-- Node 11 -->
<circle cx="6" cy="1" r="0.551724" style="fill:white;stroke:black;stroke-width:0.275862" />
<!-- Node 12 -->
<circle cx="8" cy="1" r="0.551724" style="fill:white;stroke:black;stroke-width:0.275862" />
<!-- Node 13 -->
<circle cx="14" cy="3" r="0.551724" style="fill:white;stroke:black;stroke-width:0.275862" />
<!-- Node 14 -->
<circle cx="8" cy="12" r="0.551724" style="fill:white;stroke:black;stroke-width:0.275862" />
<!-- Node 15 -->
<circle cx="19" cy="19" r="0.551724" style="fill:white;stroke:black;stroke-width:0.275862" />
<!-- Node 16 -->
<circle cx="11" cy="3" r="0.551724" style="fill:white;stroke:black;stroke-width:0.275862" />
<!-- Node 17 -->
<circle cx="12" cy="14" r="0.551724" style="fill:white;stroke:black;stroke-width:0.275862" />
<!-- Node 18 -->
<circle cx="1" cy="15" r="0.551724" style="fill:white;stroke:black;stroke-width:0.275862" />
<!-- Node 19 -->
<circle cx="7" cy="15" r="0.551724" style="fill:white;stroke:black;stroke-width:0.275862" />
			</g>
		</g>
	</g>
</svg>
