<?xml version="1.0" standalone="no"?>
<!DOCTYPE svg PUBLIC "-//W3C//DTD SVG 1.1//EN"
"http://www.w3.org/Graphics/SVG/1.1/DTD/svg11.dtd">

<svg width="100%" height="100%" version="1.1"
xmlns="http://www.w3.org/2000/svg">

		<g transform="translate(24,24)">
		<g transform="scale(23.000000)">
			<g transform="translate(-1,0)">
<!-- Route #0: 19 25 3 2 1 -->
<path d="M23 21
L18 22
L11 20
L8 21
L11 15
L19 18
Z" style="fill:none;stroke:#c7989c;stroke-width:0.347826"/>
<!-- Route #1: 4 -->
<path d="M23 21
L25 19
Z" style="fill:none;stroke:#535f08;stroke-width:0.347826"/>
<!-- Route #2: 13 6 12 20 9 10 -->
<path d="M23 21
L7 10
L8 8
L10 12
L11 11
L15 9
L19 15
Z" style="fill:none;stroke:#fd3dc8;stroke-width:0.347826"/>
<!-- Route #3: 26 11 7 15 24 23 16 -->
<path d="M23 21
L7 0
L5 3
L1 6
L4 8
L1 10
L3 15
L20 22
Z" style="fill:none;stroke:#feee5d;stroke-width:0.347826"/>
<!-- Route #4: 21 5 18 22 17 8 14 -->
<path d="M23 21
L24 15
L24 4
L15 0
L11 2
L15 10
L18 7
L20 11
Z" style="fill:none;stroke:#00e4a5;stroke-width:0.347826"/>
<!-- Node 0 -->
<circle cx="23" cy="21" r="0.695652" style="fill:red;stroke:black;stroke-width:0.347826" />
<!-- Node 1 -->
<circle cx="19" cy="18" r="0.695652" style="fill:white;stroke:black;stroke-width:0.347826" />
<!-- Node 2 -->
<circle cx="11" cy="15" r="0.695652" style="fill:white;stroke:black;stroke-width:0.347826" />
<!-- Node 3 -->
<circle cx="8" cy="21" r="0.695652" style="fill:white;stroke:black;stroke-width:0.347826" />
<!-- Node 4 -->
<circle cx="25" cy="19" r="0.695652" style="fill:white;stroke:black;stroke-width:0.347826" />
<!-- Node 5 -->
<circle cx="24" cy="4" r="0.695652" style="fill:white;stroke:black;stroke-width:0.347826" />
<!-- Node 6 -->
<circle cx="8" cy="8" r="0.695652" style="fill:white;stroke:black;stroke-width:0.347826" />
<!-- Node 7 -->
<circle cx="1" cy="6" r="0.695652" style="fill:white;stroke:black;stroke-width:0.347826" />
<!-- Node 8 -->
<circle cx="18" cy="7" r="0.695652" style="fill:white;stroke:black;stroke-width:0.347826" />
<!-- Node 9 -->
<circle cx="15" cy="9" r="0.695652" style="fill:white;stroke:black;stroke-width:0.347826" />
<!-- Node 10 -->
<circle cx="19" cy="15" r="0.695652" style="fill:white;stroke:black;stroke-width:0.347826" />
<!-- Node 11 -->
<circle cx="5" cy="3" r="0.695652" style="fill:white;stroke:black;stroke-width:0.347826" />
<!-- Node 12 -->
<circle cx="10" cy="12" r="0.695652" style="fill:white;stroke:black;stroke-width:0.347826" />
<!-- Node 13 -->
<circle cx="7" cy="10" r="0.695652" style="fill:white;stroke:black;stroke-width:0.347826" />
<!-- Node 14 -->
<circle cx="20" cy="11" r="0.695652" style="fill:white;stroke:black;stroke-width:0.347826" />
<!-- Node 15 -->
<circle cx="4" cy="8" r="0.695652" style="fill:white;stroke:black;stroke-width:0.347826" />
<!-- Node 16 -->
<circle cx="20" cy="22" r="0.695652" style="fill:white;stroke:black;stroke-width:0.347826" />
<!-- Node 17 -->
<circle cx="15" cy="10" r="0.695652" style="fill:white;stroke:black;stroke-width:0.347826" />
<!-- Node 18 -->
<circle cx="15" cy="0" r="0.695652" style="fill:white;stroke:black;stroke-width:0.347826" />
<!-- Node 19 -->
<circle cx="18" cy="22" r="0.695652" style="fill:white;stroke:black;stroke-width:0.347826" />
<!-- Node 20 -->
<circle cx="11" cy="11" r="0.695652" style="fill:white;stroke:black;stroke-width:0.347826" />
<!-- Node 21 -->
<circle cx="24" cy="15" r="0.695652" style="fill:white;stroke:black;stroke-width:0.347826" />
<!-- Node 22 -->
<circle cx="11" cy="2" r="0.695652" style="fill:white;stroke:black;stroke-width:0.347826" />
<!-- Node 23 -->
<circle cx="3" cy="15" r="0.695652" style="fill:white;stroke:black;stroke-width:0.347826" />
<!-- Node 24 -->
<circle cx="1" cy="10" r="0.695652" style="fill:white;stroke:black;stroke-width:0.347826" />
<!-- Node 25 -->
<circle cx="11" cy="20" r="0.695652" style="fill:white;stroke:black;stroke-width:0.347826" />
<!-- Node 26 -->
<circle cx="7" cy="0" r="0.695652" style="fill:white;stroke:black;stroke-width:0.347826" />
			</g>
		</g>
	</g>
</svg>
