<?xml version="1.0" standalone="no"?>
<!DOCTYPE svg PUBLIC "-//W3C//DTD SVG 1.1//EN"
"http://www.w3.org/Graphics/SVG/1.1/DTD/svg11.dtd">

<svg width="100%" height="100%" version="1.1"
xmlns="http://www.w3.org/2000/svg"
xmlns:xlink="http://www.w3.org/1999/xlink">

	<g transform="translate(20,20)">
		<g transform="scale(16.000000)">
			<g transform="translate(0,0)">
			<title>(null)</title>
			<desc>(null)</desc>
<!-- Route #0: 19 9 6 -->
<path d="M9 34
L18 27
L12 18
L11 27
Z" style="fill:none;stroke:#ed37ed;stroke-width:0.437500"/>
<!-- Route #1: 20 2 13 4 -->
<path d="M9 34
L2 17
L0 18
L1 18
L4 28
Z" style="fill:none;stroke:#89071f;stroke-width:0.437500"/>
<!-- Route #2: 26 17 15 16 18 -->
<path d="M9 34
L7 7
L4 4
L9 2
L14 5
L12 6
Z" style="fill:none;stroke:#d52b27;stroke-width:0.437500"/>
<!-- Route #3: 28 12 25 32 1 21 -->
<path d="M9 34
L7 23
L9 10
L4 10
L5 12
L5 19
L5 20
Z" style="fill:none;stroke:#0e9811;stroke-width:0.437500"/>
<!-- Route #4: 14 34 30 27 7 -->
<path d="M9 34
L14 4
L14 3
L18 2
L20 0
L17 4
Z" style="fill:none;stroke:#49e3ac;stroke-width:0.437500"/>
<!-- Route #5: 10 3 29 11 8 -->
<path d="M9 34
L21 33
L33 30
L33 19
L29 19
L28 25
Z" style="fill:none;stroke:#4f89ea;stroke-width:0.437500"/>
<!-- Route #6: 24 22 33 5 31 23 -->
<path d="M9 34
L21 2
L25 2
L31 2
L27 6
L29 7
L34 16
Z" style="fill:none;stroke:#6ae91c;stroke-width:0.437500"/>
<!-- Node 0 -->
<circle cx="9" cy="34" r="0.875000" style="fill:black;stroke:black;stroke-width:0.437500" />
<text x="8.781250" y="33.825000" font-family="Courier New" font-size="0.875000" fill="white" style="font-weight:bold">1</text>
<line style="stroke-width:0.054688;stroke:white" x1="8.125000" y1="34.000000" x2="9.875000" y2="34.000000" />
<text x="inf" y="34.700000" font-family="Courier New" font-size="0.875000" fill="white" style="font-weight:bold">0</text>
<!-- Node 1 -->
<circle cx="5" cy="19" r="0.875000" style="fill:black;stroke:black;stroke-width:0.437500" />
<text x="4.781250" y="18.825000" font-family="Courier New" font-size="0.875000" fill="white" style="font-weight:bold">2</text>
<line style="stroke-width:0.054688;stroke:white" x1="4.125000" y1="19.000000" x2="5.875000" y2="19.000000" />
<text x="4.562500" y="19.700000" font-family="Courier New" font-size="0.875000" fill="white" style="font-weight:bold">21</text>
<!-- Node 2 -->
<circle cx="0" cy="18" r="0.875000" style="fill:black;stroke:black;stroke-width:0.437500" />
<text x="-0.218750" y="17.825000" font-family="Courier New" font-size="0.875000" fill="white" style="font-weight:bold">3</text>
<line style="stroke-width:0.054688;stroke:white" x1="-0.875000" y1="18.000000" x2="0.875000" y2="18.000000" />
<text x="-0.437500" y="18.700000" font-family="Courier New" font-size="0.875000" fill="white" style="font-weight:bold">24</text>
<!-- Node 3 -->
<circle cx="33" cy="30" r="0.875000" style="fill:black;stroke:black;stroke-width:0.437500" />
<text x="32.781250" y="29.825000" font-family="Courier New" font-size="0.875000" fill="white" style="font-weight:bold">4</text>
<line style="stroke-width:0.054688;stroke:white" x1="32.125000" y1="30.000000" x2="33.875000" y2="30.000000" />
<text x="32.781250" y="30.700000" font-family="Courier New" font-size="0.875000" fill="white" style="font-weight:bold">1</text>
<!-- Node 4 -->
<circle cx="4" cy="28" r="0.875000" style="fill:black;stroke:black;stroke-width:0.437500" />
<text x="3.781250" y="27.825000" font-family="Courier New" font-size="0.875000" fill="white" style="font-weight:bold">5</text>
<line style="stroke-width:0.054688;stroke:white" x1="3.125000" y1="28.000000" x2="4.875000" y2="28.000000" />
<text x="3.781250" y="28.700000" font-family="Courier New" font-size="0.875000" fill="white" style="font-weight:bold">5</text>
<!-- Node 5 -->
<circle cx="27" cy="6" r="0.875000" style="fill:black;stroke:black;stroke-width:0.437500" />
<text x="26.781250" y="5.825000" font-family="Courier New" font-size="0.875000" fill="white" style="font-weight:bold">6</text>
<line style="stroke-width:0.054688;stroke:white" x1="26.125000" y1="6.000000" x2="27.875000" y2="6.000000" />
<text x="26.562500" y="6.700000" font-family="Courier New" font-size="0.875000" fill="white" style="font-weight:bold">10</text>
<!-- Node 6 -->
<circle cx="11" cy="27" r="0.875000" style="fill:black;stroke:black;stroke-width:0.437500" />
<text x="10.781250" y="26.825000" font-family="Courier New" font-size="0.875000" fill="white" style="font-weight:bold">7</text>
<line style="stroke-width:0.054688;stroke:white" x1="10.125000" y1="27.000000" x2="11.875000" y2="27.000000" />
<text x="10.781250" y="27.700000" font-family="Courier New" font-size="0.875000" fill="white" style="font-weight:bold">9</text>
<!-- Node 7 -->
<circle cx="17" cy="4" r="0.875000" style="fill:black;stroke:black;stroke-width:0.437500" />
<text x="16.781250" y="3.825000" font-family="Courier New" font-size="0.875000" fill="white" style="font-weight:bold">8</text>
<line style="stroke-width:0.054688;stroke:white" x1="16.125000" y1="4.000000" x2="17.875000" y2="4.000000" />
<text x="16.781250" y="4.700000" font-family="Courier New" font-size="0.875000" fill="white" style="font-weight:bold">9</text>
<!-- Node 8 -->
<circle cx="28" cy="25" r="0.875000" style="fill:black;stroke:black;stroke-width:0.437500" />
<text x="27.781250" y="24.825000" font-family="Courier New" font-size="0.875000" fill="white" style="font-weight:bold">9</text>
<line style="stroke-width:0.054688;stroke:white" x1="27.125000" y1="25.000000" x2="28.875000" y2="25.000000" />
<text x="27.781250" y="25.700000" font-family="Courier New" font-size="0.875000" fill="white" style="font-weight:bold">8</text>
<!-- Node 9 -->
<circle cx="12" cy="18" r="0.875000" style="fill:black;stroke:black;stroke-width:0.437500" />
<text x="11.562500" y="17.825000" font-family="Courier New" font-size="0.875000" fill="white" style="font-weight:bold">10</text>
<line style="stroke-width:0.054688;stroke:white" x1="11.125000" y1="18.000000" x2="12.875000" y2="18.000000" />
<text x="11.562500" y="18.700000" font-family="Courier New" font-size="0.875000" fill="white" style="font-weight:bold">24</text>
<!-- Node 10 -->
<circle cx="21" cy="33" r="0.875000" style="fill:black;stroke:black;stroke-width:0.437500" />
<text x="20.562500" y="32.825000" font-family="Courier New" font-size="0.875000" fill="white" style="font-weight:bold">11</text>
<line style="stroke-width:0.054688;stroke:white" x1="20.125000" y1="33.000000" x2="21.875000" y2="33.000000" />
<text x="20.781250" y="33.700000" font-family="Courier New" font-size="0.875000" fill="white" style="font-weight:bold">2</text>
<!-- Node 11 -->
<circle cx="29" cy="19" r="0.875000" style="fill:black;stroke:black;stroke-width:0.437500" />
<text x="28.562500" y="18.825000" font-family="Courier New" font-size="0.875000" fill="white" style="font-weight:bold">12</text>
<line style="stroke-width:0.054688;stroke:white" x1="28.125000" y1="19.000000" x2="29.875000" y2="19.000000" />
<text x="28.562500" y="19.700000" font-family="Courier New" font-size="0.875000" fill="white" style="font-weight:bold">24</text>
<!-- Node 12 -->
<circle cx="9" cy="10" r="0.875000" style="fill:black;stroke:black;stroke-width:0.437500" />
<text x="8.562500" y="9.825000" font-family="Courier New" font-size="0.875000" fill="white" style="font-weight:bold">13</text>
<line style="stroke-width:0.054688;stroke:white" x1="8.125000" y1="10.000000" x2="9.875000" y2="10.000000" />
<text x="8.781250" y="10.700000" font-family="Courier New" font-size="0.875000" fill="white" style="font-weight:bold">9</text>
<!-- Node 13 -->
<circle cx="1" cy="18" r="0.875000" style="fill:black;stroke:black;stroke-width:0.437500" />
<text x="0.562500" y="17.825000" font-family="Courier New" font-size="0.875000" fill="white" style="font-weight:bold">14</text>
<line style="stroke-width:0.054688;stroke:white" x1="0.125000" y1="18.000000" x2="1.875000" y2="18.000000" />
<text x="0.562500" y="18.700000" font-family="Courier New" font-size="0.875000" fill="white" style="font-weight:bold">14</text>
<!-- Node 14 -->
<circle cx="14" cy="4" r="0.875000" style="fill:black;stroke:black;stroke-width:0.437500" />
<text x="13.562500" y="3.825000" font-family="Courier New" font-size="0.875000" fill="white" style="font-weight:bold">15</text>
<line style="stroke-width:0.054688;stroke:white" x1="13.125000" y1="4.000000" x2="14.875000" y2="4.000000" />
<text x="13.781250" y="4.700000" font-family="Courier New" font-size="0.875000" fill="white" style="font-weight:bold">9</text>
<!-- Node 15 -->
<circle cx="9" cy="2" r="0.875000" style="fill:black;stroke:black;stroke-width:0.437500" />
<text x="8.562500" y="1.825000" font-family="Courier New" font-size="0.875000" fill="white" style="font-weight:bold">16</text>
<line style="stroke-width:0.054688;stroke:white" x1="8.125000" y1="2.000000" x2="9.875000" y2="2.000000" />
<text x="8.562500" y="2.700000" font-family="Courier New" font-size="0.875000" fill="white" style="font-weight:bold">17</text>
<!-- Node 16 -->
<circle cx="14" cy="5" r="0.875000" style="fill:black;stroke:black;stroke-width:0.437500" />
<text x="13.562500" y="4.825000" font-family="Courier New" font-size="0.875000" fill="white" style="font-weight:bold">17</text>
<line style="stroke-width:0.054688;stroke:white" x1="13.125000" y1="5.000000" x2="14.875000" y2="5.000000" />
<text x="13.781250" y="5.700000" font-family="Courier New" font-size="0.875000" fill="white" style="font-weight:bold">8</text>
<!-- Node 17 -->
<circle cx="4" cy="4" r="0.875000" style="fill:black;stroke:black;stroke-width:0.437500" />
<text x="3.562500" y="3.825000" font-family="Courier New" font-size="0.875000" fill="white" style="font-weight:bold">18</text>
<line style="stroke-width:0.054688;stroke:white" x1="3.125000" y1="4.000000" x2="4.875000" y2="4.000000" />
<text x="3.781250" y="4.700000" font-family="Courier New" font-size="0.875000" fill="white" style="font-weight:bold">5</text>
<!-- Node 18 -->
<circle cx="12" cy="6" r="0.875000" style="fill:black;stroke:black;stroke-width:0.437500" />
<text x="11.562500" y="5.825000" font-family="Courier New" font-size="0.875000" fill="white" style="font-weight:bold">19</text>
<line style="stroke-width:0.054688;stroke:white" x1="11.125000" y1="6.000000" x2="12.875000" y2="6.000000" />
<text x="11.562500" y="6.700000" font-family="Courier New" font-size="0.875000" fill="white" style="font-weight:bold">20</text>
<!-- Node 19 -->
<circle cx="18" cy="27" r="0.875000" style="fill:black;stroke:black;stroke-width:0.437500" />
<text x="17.562500" y="26.825000" font-family="Courier New" font-size="0.875000" fill="white" style="font-weight:bold">20</text>
<line style="stroke-width:0.054688;stroke:white" x1="17.125000" y1="27.000000" x2="18.875000" y2="27.000000" />
<text x="17.562500" y="27.700000" font-family="Courier New" font-size="0.875000" fill="white" style="font-weight:bold">15</text>
<!-- Node 20 -->
<circle cx="2" cy="17" r="0.875000" style="fill:black;stroke:black;stroke-width:0.437500" />
<text x="1.562500" y="16.825000" font-family="Courier New" font-size="0.875000" fill="white" style="font-weight:bold">21</text>
<line style="stroke-width:0.054688;stroke:white" x1="1.125000" y1="17.000000" x2="2.875000" y2="17.000000" />
<text x="1.562500" y="17.700000" font-family="Courier New" font-size="0.875000" fill="white" style="font-weight:bold">17</text>
<!-- Node 21 -->
<circle cx="5" cy="20" r="0.875000" style="fill:black;stroke:black;stroke-width:0.437500" />
<text x="4.562500" y="19.825000" font-family="Courier New" font-size="0.875000" fill="white" style="font-weight:bold">22</text>
<line style="stroke-width:0.054688;stroke:white" x1="4.125000" y1="20.000000" x2="5.875000" y2="20.000000" />
<text x="4.781250" y="20.700000" font-family="Courier New" font-size="0.875000" fill="white" style="font-weight:bold">1</text>
<!-- Node 22 -->
<circle cx="25" cy="2" r="0.875000" style="fill:black;stroke:black;stroke-width:0.437500" />
<text x="24.562500" y="1.825000" font-family="Courier New" font-size="0.875000" fill="white" style="font-weight:bold">23</text>
<line style="stroke-width:0.054688;stroke:white" x1="24.125000" y1="2.000000" x2="25.875000" y2="2.000000" />
<text x="24.781250" y="2.700000" font-family="Courier New" font-size="0.875000" fill="white" style="font-weight:bold">6</text>
<!-- Node 23 -->
<circle cx="34" cy="16" r="0.875000" style="fill:black;stroke:black;stroke-width:0.437500" />
<text x="33.562500" y="15.825000" font-family="Courier New" font-size="0.875000" fill="white" style="font-weight:bold">24</text>
<line style="stroke-width:0.054688;stroke:white" x1="33.125000" y1="16.000000" x2="34.875000" y2="16.000000" />
<text x="33.562500" y="16.700000" font-family="Courier New" font-size="0.875000" fill="white" style="font-weight:bold">20</text>
<!-- Node 24 -->
<circle cx="21" cy="2" r="0.875000" style="fill:black;stroke:black;stroke-width:0.437500" />
<text x="20.562500" y="1.825000" font-family="Courier New" font-size="0.875000" fill="white" style="font-weight:bold">25</text>
<line style="stroke-width:0.054688;stroke:white" x1="20.125000" y1="2.000000" x2="21.875000" y2="2.000000" />
<text x="20.781250" y="2.700000" font-family="Courier New" font-size="0.875000" fill="white" style="font-weight:bold">8</text>
<!-- Node 25 -->
<circle cx="4" cy="10" r="0.875000" style="fill:black;stroke:black;stroke-width:0.437500" />
<text x="3.562500" y="9.825000" font-family="Courier New" font-size="0.875000" fill="white" style="font-weight:bold">26</text>
<line style="stroke-width:0.054688;stroke:white" x1="3.125000" y1="10.000000" x2="4.875000" y2="10.000000" />
<text x="3.781250" y="10.700000" font-family="Courier New" font-size="0.875000" fill="white" style="font-weight:bold">8</text>
<!-- Node 26 -->
<circle cx="7" cy="7" r="0.875000" style="fill:black;stroke:black;stroke-width:0.437500" />
<text x="6.562500" y="6.825000" font-family="Courier New" font-size="0.875000" fill="white" style="font-weight:bold">27</text>
<line style="stroke-width:0.054688;stroke:white" x1="6.125000" y1="7.000000" x2="7.875000" y2="7.000000" />
<text x="6.562500" y="7.700000" font-family="Courier New" font-size="0.875000" fill="white" style="font-weight:bold">13</text>
<!-- Node 27 -->
<circle cx="20" cy="0" r="0.875000" style="fill:black;stroke:black;stroke-width:0.437500" />
<text x="19.562500" y="-0.175000" font-family="Courier New" font-size="0.875000" fill="white" style="font-weight:bold">28</text>
<line style="stroke-width:0.054688;stroke:white" x1="19.125000" y1="0.000000" x2="20.875000" y2="0.000000" />
<text x="19.562500" y="0.700000" font-family="Courier New" font-size="0.875000" fill="white" style="font-weight:bold">14</text>
<!-- Node 28 -->
<circle cx="7" cy="23" r="0.875000" style="fill:black;stroke:black;stroke-width:0.437500" />
<text x="6.562500" y="22.825000" font-family="Courier New" font-size="0.875000" fill="white" style="font-weight:bold">29</text>
<line style="stroke-width:0.054688;stroke:white" x1="6.125000" y1="23.000000" x2="7.875000" y2="23.000000" />
<text x="6.781250" y="23.700000" font-family="Courier New" font-size="0.875000" fill="white" style="font-weight:bold">3</text>
<!-- Node 29 -->
<circle cx="33" cy="19" r="0.875000" style="fill:black;stroke:black;stroke-width:0.437500" />
<text x="32.562500" y="18.825000" font-family="Courier New" font-size="0.875000" fill="white" style="font-weight:bold">30</text>
<line style="stroke-width:0.054688;stroke:white" x1="32.125000" y1="19.000000" x2="33.875000" y2="19.000000" />
<text x="32.562500" y="19.700000" font-family="Courier New" font-size="0.875000" fill="white" style="font-weight:bold">24</text>
<!-- Node 30 -->
<circle cx="18" cy="2" r="0.875000" style="fill:black;stroke:black;stroke-width:0.437500" />
<text x="17.562500" y="1.825000" font-family="Courier New" font-size="0.875000" fill="white" style="font-weight:bold">31</text>
<line style="stroke-width:0.054688;stroke:white" x1="17.125000" y1="2.000000" x2="18.875000" y2="2.000000" />
<text x="17.562500" y="2.700000" font-family="Courier New" font-size="0.875000" fill="white" style="font-weight:bold">22</text>
<!-- Node 31 -->
<circle cx="29" cy="7" r="0.875000" style="fill:black;stroke:black;stroke-width:0.437500" />
<text x="28.562500" y="6.825000" font-family="Courier New" font-size="0.875000" fill="white" style="font-weight:bold">32</text>
<line style="stroke-width:0.054688;stroke:white" x1="28.125000" y1="7.000000" x2="29.875000" y2="7.000000" />
<text x="28.562500" y="7.700000" font-family="Courier New" font-size="0.875000" fill="white" style="font-weight:bold">14</text>
<!-- Node 32 -->
<circle cx="5" cy="12" r="0.875000" style="fill:black;stroke:black;stroke-width:0.437500" />
<text x="4.562500" y="11.825000" font-family="Courier New" font-size="0.875000" fill="white" style="font-weight:bold">33</text>
<line style="stroke-width:0.054688;stroke:white" x1="4.125000" y1="12.000000" x2="5.875000" y2="12.000000" />
<text x="4.562500" y="12.700000" font-family="Courier New" font-size="0.875000" fill="white" style="font-weight:bold">19</text>
<!-- Node 33 -->
<circle cx="31" cy="2" r="0.875000" style="fill:black;stroke:black;stroke-width:0.437500" />
<text x="30.562500" y="1.825000" font-family="Courier New" font-size="0.875000" fill="white" style="font-weight:bold">34</text>
<line style="stroke-width:0.054688;stroke:white" x1="30.125000" y1="2.000000" x2="31.875000" y2="2.000000" />
<text x="30.781250" y="2.700000" font-family="Courier New" font-size="0.875000" fill="white" style="font-weight:bold">5</text>
<!-- Node 34 -->
<circle cx="14" cy="3" r="0.875000" style="fill:black;stroke:black;stroke-width:0.437500" />
<text x="13.562500" y="2.825000" font-family="Courier New" font-size="0.875000" fill="white" style="font-weight:bold">35</text>
<line style="stroke-width:0.054688;stroke:white" x1="13.125000" y1="3.000000" x2="14.875000" y2="3.000000" />
<text x="13.781250" y="3.700000" font-family="Courier New" font-size="0.875000" fill="white" style="font-weight:bold">7</text>
			</g>
		</g>
	</g>
</svg>
