<?xml version="1.0" standalone="no"?>
<!DOCTYPE svg PUBLIC "-//W3C//DTD SVG 1.1//EN"
"http://www.w3.org/Graphics/SVG/1.1/DTD/svg11.dtd">

<svg width="100%" height="100%" version="1.1"
xmlns="http://www.w3.org/2000/svg">

	<g transform="translate(24,24)">
		<g transform="scale(61.000000)">
			<g transform="translate(-1,0)">
<!-- Route #0: 10 1 3 7 2 -->
<path d="M6 9
L6 7
L9 4
L10 2
L9 7
L9 8
Z" style="fill:none;stroke:#126c67;stroke-width:0.131148"/>
<!-- Route #1: 9 5 8 6 4 -->
<path d="M6 9
L5 8
L4 4
L7 0
L1 2
L1 8
Z" style="fill:none;stroke:#fe34ac;stroke-width:0.131148"/>
<!-- Node 0 -->
<circle cx="6" cy="9" r="0.262295" style="fill:red;stroke:black;stroke-width:0.131148" />
<!-- Node 1 -->
<circle cx="9" cy="4" r="0.262295" style="fill:white;stroke:black;stroke-width:0.131148" />
<!-- Node 2 -->
<circle cx="9" cy="8" r="0.262295" style="fill:white;stroke:black;stroke-width:0.131148" />
<!-- Node 3 -->
<circle cx="10" cy="2" r="0.262295" style="fill:white;stroke:black;stroke-width:0.131148" />
<!-- Node 4 -->
<circle cx="1" cy="8" r="0.262295" style="fill:white;stroke:black;stroke-width:0.131148" />
<!-- Node 5 -->
<circle cx="4" cy="4" r="0.262295" style="fill:white;stroke:black;stroke-width:0.131148" />
<!-- Node 6 -->
<circle cx="1" cy="2" r="0.262295" style="fill:white;stroke:black;stroke-width:0.131148" />
<!-- Node 7 -->
<circle cx="9" cy="7" r="0.262295" style="fill:white;stroke:black;stroke-width:0.131148" />
<!-- Node 8 -->
<circle cx="7" cy="0" r="0.262295" style="fill:white;stroke:black;stroke-width:0.131148" />
<!-- Node 9 -->
<circle cx="5" cy="8" r="0.262295" style="fill:white;stroke:black;stroke-width:0.131148" />
<!-- Node 10 -->
<circle cx="6" cy="7" r="0.262295" style="fill:white;stroke:black;stroke-width:0.131148" />
			</g>
		</g>
	</g>
</svg>
