<?xml version="1.0" standalone="no"?>
<!DOCTYPE svg PUBLIC "-//W3C//DTD SVG 1.1//EN"
"http://www.w3.org/Graphics/SVG/1.1/DTD/svg11.dtd">

<svg width="100%" height="100%" version="1.1"
xmlns="http://www.w3.org/2000/svg">

	<g transform="translate(24,24)">
		<g transform="scale(12.000000)">
			<g transform="translate(0,-15)">
<!-- Route #0: 14 8 3 5 11 9 10 -->
<path d="M20 52
L1 32
L7 24
L0 17
L12 15
L15 23
L12 32
L34 51
Z" style="fill:none;stroke:#9c8bf6;stroke-width:0.666667"/>
<!-- Route #1: 2 6 12 1 -->
<path d="M20 52
L36 38
L37 35
L39 21
L42 39
Z" style="fill:none;stroke:#c8206a;stroke-width:0.666667"/>
<!-- Route #2: 4 13 7 -->
<path d="M20 52
L2 44
L13 59
L24 54
Z" style="fill:none;stroke:#24edd8;stroke-width:0.666667"/>
<!-- Node 0 -->
<circle cx="20" cy="52" r="1.333333" style="fill:red;stroke:black;stroke-width:0.666667" />
<!-- Node 1 -->
<circle cx="42" cy="39" r="1.333333" style="fill:white;stroke:black;stroke-width:0.666667" />
<!-- Node 2 -->
<circle cx="36" cy="38" r="1.333333" style="fill:white;stroke:black;stroke-width:0.666667" />
<!-- Node 3 -->
<circle cx="0" cy="17" r="1.333333" style="fill:white;stroke:black;stroke-width:0.666667" />
<!-- Node 4 -->
<circle cx="2" cy="44" r="1.333333" style="fill:white;stroke:black;stroke-width:0.666667" />
<!-- Node 5 -->
<circle cx="12" cy="15" r="1.333333" style="fill:white;stroke:black;stroke-width:0.666667" />
<!-- Node 6 -->
<circle cx="37" cy="35" r="1.333333" style="fill:white;stroke:black;stroke-width:0.666667" />
<!-- Node 7 -->
<circle cx="24" cy="54" r="1.333333" style="fill:white;stroke:black;stroke-width:0.666667" />
<!-- Node 8 -->
<circle cx="7" cy="24" r="1.333333" style="fill:white;stroke:black;stroke-width:0.666667" />
<!-- Node 9 -->
<circle cx="12" cy="32" r="1.333333" style="fill:white;stroke:black;stroke-width:0.666667" />
<!-- Node 10 -->
<circle cx="34" cy="51" r="1.333333" style="fill:white;stroke:black;stroke-width:0.666667" />
<!-- Node 11 -->
<circle cx="15" cy="23" r="1.333333" style="fill:white;stroke:black;stroke-width:0.666667" />
<!-- Node 12 -->
<circle cx="39" cy="21" r="1.333333" style="fill:white;stroke:black;stroke-width:0.666667" />
<!-- Node 13 -->
<circle cx="13" cy="59" r="1.333333" style="fill:white;stroke:black;stroke-width:0.666667" />
<!-- Node 14 -->
<circle cx="1" cy="32" r="1.333333" style="fill:white;stroke:black;stroke-width:0.666667" />
			</g>
		</g>
	</g>
</svg>
