<?xml version="1.0" standalone="no"?>
<!DOCTYPE svg PUBLIC "-//W3C//DTD SVG 1.1//EN"
"http://www.w3.org/Graphics/SVG/1.1/DTD/svg11.dtd">

<svg width="100%" height="100%" version="1.1"
xmlns="http://www.w3.org/2000/svg"
xmlns:xlink="http://www.w3.org/1999/xlink">

	<g transform="translate(20,20)">
		<g transform="scale(13.000000)">
			<g transform="translate(-27,-27)">
			<title>P-n16-k8</title>
			<desc>(null)</desc>
<!-- Route #0: 2 -->
<path d="M30 40
L49 49
Z" style="fill:none;stroke:#750d38;stroke-width:0.538462"/>
<!-- Route #1: 6 -->
<path d="M30 40
L42 41
Z" style="fill:none;stroke:#2ecc3d;stroke-width:0.538462"/>
<!-- Route #2: 8 -->
<path d="M30 40
L57 58
Z" style="fill:none;stroke:#d89641;stroke-width:0.538462"/>
<!-- Route #3: 15 12 10 -->
<path d="M30 40
L37 69
L43 67
L42 57
Z" style="fill:none;stroke:#65b543;stroke-width:0.538462"/>
<!-- Route #4: 14 5 -->
<path d="M30 40
L58 27
L52 33
Z" style="fill:none;stroke:#9a3cb4;stroke-width:0.538462"/>
<!-- Route #5: 13 9 7 -->
<path d="M30 40
L58 48
L62 42
L52 41
Z" style="fill:none;stroke:#77c4c2;stroke-width:0.538462"/>
<!-- Route #6: 11 4 -->
<path d="M30 40
L27 68
L31 62
Z" style="fill:none;stroke:#885c0f;stroke-width:0.538462"/>
<!-- Route #7: 3 1 -->
<path d="M30 40
L52 64
L37 52
Z" style="fill:none;stroke:#50ddb9;stroke-width:0.538462"/>
<!-- Node 0 -->
<circle cx="30" cy="40" r="1.076923" style="fill:red;stroke:black;stroke-width:0.538462" />
<!-- Node 1 -->
<circle cx="37" cy="52" r="1.076923" style="fill:white;stroke:black;stroke-width:0.538462" />
<!-- Node 2 -->
<circle cx="49" cy="49" r="1.076923" style="fill:white;stroke:black;stroke-width:0.538462" />
<!-- Node 3 -->
<circle cx="52" cy="64" r="1.076923" style="fill:white;stroke:black;stroke-width:0.538462" />
<!-- Node 4 -->
<circle cx="31" cy="62" r="1.076923" style="fill:white;stroke:black;stroke-width:0.538462" />
<!-- Node 5 -->
<circle cx="52" cy="33" r="1.076923" style="fill:white;stroke:black;stroke-width:0.538462" />
<!-- Node 6 -->
<circle cx="42" cy="41" r="1.076923" style="fill:white;stroke:black;stroke-width:0.538462" />
<!-- Node 7 -->
<circle cx="52" cy="41" r="1.076923" style="fill:white;stroke:black;stroke-width:0.538462" />
<!-- Node 8 -->
<circle cx="57" cy="58" r="1.076923" style="fill:white;stroke:black;stroke-width:0.538462" />
<!-- Node 9 -->
<circle cx="62" cy="42" r="1.076923" style="fill:white;stroke:black;stroke-width:0.538462" />
<!-- Node 10 -->
<circle cx="42" cy="57" r="1.076923" style="fill:white;stroke:black;stroke-width:0.538462" />
<!-- Node 11 -->
<circle cx="27" cy="68" r="1.076923" style="fill:white;stroke:black;stroke-width:0.538462" />
<!-- Node 12 -->
<circle cx="43" cy="67" r="1.076923" style="fill:white;stroke:black;stroke-width:0.538462" />
<!-- Node 13 -->
<circle cx="58" cy="48" r="1.076923" style="fill:white;stroke:black;stroke-width:0.538462" />
<!-- Node 14 -->
<circle cx="58" cy="27" r="1.076923" style="fill:white;stroke:black;stroke-width:0.538462" />
<!-- Node 15 -->
<circle cx="37" cy="69" r="1.076923" style="fill:white;stroke:black;stroke-width:0.538462" />
			</g>
		</g>
	</g>
</svg>
