<?xml version="1.0" standalone="no"?>
<!DOCTYPE svg PUBLIC "-//W3C//DTD SVG 1.1//EN"
"http://www.w3.org/Graphics/SVG/1.1/DTD/svg11.dtd">

<svg width="100%" height="100%" version="1.1"
xmlns="http://www.w3.org/2000/svg">

		<g transform="translate(20,20)">
		<g transform="scale(7)">
			<g transform="translate(-2,-3)">
<!-- Route #0: 6 96 99 59 92 93 98 37 100 91 85 61 16 86 38 44 14 42 43 15 57 2 87 97 95 94 -->
<path d="M35 35
L25 30
L22 27
L20 26
L21 24
L22 22
L18 24
L19 21
L20 20
L18 18
L15 19
L16 22
L12 24
L10 20
L4 18
L5 5
L11 14
L15 10
L24 12
L23 3
L30 5
L32 12
L35 17
L28 18
L25 21
L25 24
L26 27
Z" style="fill:none;stroke:#d442ca;stroke-width:1"/>
<!-- Route #1: 53 26 12 80 68 29 24 54 4 55 25 39 67 23 56 75 22 41 74 72 73 21 40 58 13 -->
<path d="M35 35
L37 31
L45 30
L50 35
L56 37
L56 39
L64 42
L65 35
L57 29
L55 20
L63 23
L65 20
L60 12
L67 5
L55 5
L53 12
L49 11
L45 10
L42 7
L46 13
L47 16
L44 17
L45 20
L40 25
L36 26
L30 25
Z" style="fill:none;stroke:#440290;stroke-width:1"/>
<!-- Route #2: 28 76 77 3 79 78 34 35 71 65 66 20 32 90 63 64 49 36 47 46 8 45 17 84 5 60 83 18 89 -->
<path d="M35 35
L41 37
L49 42
L53 43
L55 45
L57 48
L61 52
L65 55
L63 65
L57 68
L62 77
L49 73
L45 65
L35 69
L31 67
L27 69
L15 77
L6 68
L2 60
L8 56
L2 48
L10 43
L6 38
L5 30
L11 31
L15 30
L17 34
L14 37
L20 40
L26 35
Z" style="fill:none;stroke:#6f8d68;stroke-width:1"/>
<!-- Route #3: 27 69 1 50 33 81 9 51 30 70 10 62 11 19 48 82 7 88 31 52 -->
<path d="M35 35
L35 40
L37 47
L41 49
L47 47
L53 52
L55 54
L55 60
L49 58
L40 60
L37 56
L30 60
L24 58
L20 65
L15 60
L13 52
L15 47
L20 50
L26 52
L31 52
L27 43
Z" style="fill:none;stroke:#066e7e;stroke-width:1"/>
<!-- Node 0 -->
<circle cx="35" cy="35" r="2" style="fill:red;stroke:black;stroke-width:1" />
<!-- Node 1 -->
<circle cx="41" cy="49" r="2" style="fill:white;stroke:black;stroke-width:1" />
<!-- Node 2 -->
<circle cx="35" cy="17" r="2" style="fill:white;stroke:black;stroke-width:1" />
<!-- Node 3 -->
<circle cx="55" cy="45" r="2" style="fill:white;stroke:black;stroke-width:1" />
<!-- Node 4 -->
<circle cx="55" cy="20" r="2" style="fill:white;stroke:black;stroke-width:1" />
<!-- Node 5 -->
<circle cx="15" cy="30" r="2" style="fill:white;stroke:black;stroke-width:1" />
<!-- Node 6 -->
<circle cx="25" cy="30" r="2" style="fill:white;stroke:black;stroke-width:1" />
<!-- Node 7 -->
<circle cx="20" cy="50" r="2" style="fill:white;stroke:black;stroke-width:1" />
<!-- Node 8 -->
<circle cx="10" cy="43" r="2" style="fill:white;stroke:black;stroke-width:1" />
<!-- Node 9 -->
<circle cx="55" cy="60" r="2" style="fill:white;stroke:black;stroke-width:1" />
<!-- Node 10 -->
<circle cx="30" cy="60" r="2" style="fill:white;stroke:black;stroke-width:1" />
<!-- Node 11 -->
<circle cx="20" cy="65" r="2" style="fill:white;stroke:black;stroke-width:1" />
<!-- Node 12 -->
<circle cx="50" cy="35" r="2" style="fill:white;stroke:black;stroke-width:1" />
<!-- Node 13 -->
<circle cx="30" cy="25" r="2" style="fill:white;stroke:black;stroke-width:1" />
<!-- Node 14 -->
<circle cx="15" cy="10" r="2" style="fill:white;stroke:black;stroke-width:1" />
<!-- Node 15 -->
<circle cx="30" cy="5" r="2" style="fill:white;stroke:black;stroke-width:1" />
<!-- Node 16 -->
<circle cx="10" cy="20" r="2" style="fill:white;stroke:black;stroke-width:1" />
<!-- Node 17 -->
<circle cx="5" cy="30" r="2" style="fill:white;stroke:black;stroke-width:1" />
<!-- Node 18 -->
<circle cx="20" cy="40" r="2" style="fill:white;stroke:black;stroke-width:1" />
<!-- Node 19 -->
<circle cx="15" cy="60" r="2" style="fill:white;stroke:black;stroke-width:1" />
<!-- Node 20 -->
<circle cx="45" cy="65" r="2" style="fill:white;stroke:black;stroke-width:1" />
<!-- Node 21 -->
<circle cx="45" cy="20" r="2" style="fill:white;stroke:black;stroke-width:1" />
<!-- Node 22 -->
<circle cx="45" cy="10" r="2" style="fill:white;stroke:black;stroke-width:1" />
<!-- Node 23 -->
<circle cx="55" cy="5" r="2" style="fill:white;stroke:black;stroke-width:1" />
<!-- Node 24 -->
<circle cx="65" cy="35" r="2" style="fill:white;stroke:black;stroke-width:1" />
<!-- Node 25 -->
<circle cx="65" cy="20" r="2" style="fill:white;stroke:black;stroke-width:1" />
<!-- Node 26 -->
<circle cx="45" cy="30" r="2" style="fill:white;stroke:black;stroke-width:1" />
<!-- Node 27 -->
<circle cx="35" cy="40" r="2" style="fill:white;stroke:black;stroke-width:1" />
<!-- Node 28 -->
<circle cx="41" cy="37" r="2" style="fill:white;stroke:black;stroke-width:1" />
<!-- Node 29 -->
<circle cx="64" cy="42" r="2" style="fill:white;stroke:black;stroke-width:1" />
<!-- Node 30 -->
<circle cx="40" cy="60" r="2" style="fill:white;stroke:black;stroke-width:1" />
<!-- Node 31 -->
<circle cx="31" cy="52" r="2" style="fill:white;stroke:black;stroke-width:1" />
<!-- Node 32 -->
<circle cx="35" cy="69" r="2" style="fill:white;stroke:black;stroke-width:1" />
<!-- Node 33 -->
<circle cx="53" cy="52" r="2" style="fill:white;stroke:black;stroke-width:1" />
<!-- Node 34 -->
<circle cx="65" cy="55" r="2" style="fill:white;stroke:black;stroke-width:1" />
<!-- Node 35 -->
<circle cx="63" cy="65" r="2" style="fill:white;stroke:black;stroke-width:1" />
<!-- Node 36 -->
<circle cx="2" cy="60" r="2" style="fill:white;stroke:black;stroke-width:1" />
<!-- Node 37 -->
<circle cx="20" cy="20" r="2" style="fill:white;stroke:black;stroke-width:1" />
<!-- Node 38 -->
<circle cx="5" cy="5" r="2" style="fill:white;stroke:black;stroke-width:1" />
<!-- Node 39 -->
<circle cx="60" cy="12" r="2" style="fill:white;stroke:black;stroke-width:1" />
<!-- Node 40 -->
<circle cx="40" cy="25" r="2" style="fill:white;stroke:black;stroke-width:1" />
<!-- Node 41 -->
<circle cx="42" cy="7" r="2" style="fill:white;stroke:black;stroke-width:1" />
<!-- Node 42 -->
<circle cx="24" cy="12" r="2" style="fill:white;stroke:black;stroke-width:1" />
<!-- Node 43 -->
<circle cx="23" cy="3" r="2" style="fill:white;stroke:black;stroke-width:1" />
<!-- Node 44 -->
<circle cx="11" cy="14" r="2" style="fill:white;stroke:black;stroke-width:1" />
<!-- Node 45 -->
<circle cx="6" cy="38" r="2" style="fill:white;stroke:black;stroke-width:1" />
<!-- Node 46 -->
<circle cx="2" cy="48" r="2" style="fill:white;stroke:black;stroke-width:1" />
<!-- Node 47 -->
<circle cx="8" cy="56" r="2" style="fill:white;stroke:black;stroke-width:1" />
<!-- Node 48 -->
<circle cx="13" cy="52" r="2" style="fill:white;stroke:black;stroke-width:1" />
<!-- Node 49 -->
<circle cx="6" cy="68" r="2" style="fill:white;stroke:black;stroke-width:1" />
<!-- Node 50 -->
<circle cx="47" cy="47" r="2" style="fill:white;stroke:black;stroke-width:1" />
<!-- Node 51 -->
<circle cx="49" cy="58" r="2" style="fill:white;stroke:black;stroke-width:1" />
<!-- Node 52 -->
<circle cx="27" cy="43" r="2" style="fill:white;stroke:black;stroke-width:1" />
<!-- Node 53 -->
<circle cx="37" cy="31" r="2" style="fill:white;stroke:black;stroke-width:1" />
<!-- Node 54 -->
<circle cx="57" cy="29" r="2" style="fill:white;stroke:black;stroke-width:1" />
<!-- Node 55 -->
<circle cx="63" cy="23" r="2" style="fill:white;stroke:black;stroke-width:1" />
<!-- Node 56 -->
<circle cx="53" cy="12" r="2" style="fill:white;stroke:black;stroke-width:1" />
<!-- Node 57 -->
<circle cx="32" cy="12" r="2" style="fill:white;stroke:black;stroke-width:1" />
<!-- Node 58 -->
<circle cx="36" cy="26" r="2" style="fill:white;stroke:black;stroke-width:1" />
<!-- Node 59 -->
<circle cx="21" cy="24" r="2" style="fill:white;stroke:black;stroke-width:1" />
<!-- Node 60 -->
<circle cx="17" cy="34" r="2" style="fill:white;stroke:black;stroke-width:1" />
<!-- Node 61 -->
<circle cx="12" cy="24" r="2" style="fill:white;stroke:black;stroke-width:1" />
<!-- Node 62 -->
<circle cx="24" cy="58" r="2" style="fill:white;stroke:black;stroke-width:1" />
<!-- Node 63 -->
<circle cx="27" cy="69" r="2" style="fill:white;stroke:black;stroke-width:1" />
<!-- Node 64 -->
<circle cx="15" cy="77" r="2" style="fill:white;stroke:black;stroke-width:1" />
<!-- Node 65 -->
<circle cx="62" cy="77" r="2" style="fill:white;stroke:black;stroke-width:1" />
<!-- Node 66 -->
<circle cx="49" cy="73" r="2" style="fill:white;stroke:black;stroke-width:1" />
<!-- Node 67 -->
<circle cx="67" cy="5" r="2" style="fill:white;stroke:black;stroke-width:1" />
<!-- Node 68 -->
<circle cx="56" cy="39" r="2" style="fill:white;stroke:black;stroke-width:1" />
<!-- Node 69 -->
<circle cx="37" cy="47" r="2" style="fill:white;stroke:black;stroke-width:1" />
<!-- Node 70 -->
<circle cx="37" cy="56" r="2" style="fill:white;stroke:black;stroke-width:1" />
<!-- Node 71 -->
<circle cx="57" cy="68" r="2" style="fill:white;stroke:black;stroke-width:1" />
<!-- Node 72 -->
<circle cx="47" cy="16" r="2" style="fill:white;stroke:black;stroke-width:1" />
<!-- Node 73 -->
<circle cx="44" cy="17" r="2" style="fill:white;stroke:black;stroke-width:1" />
<!-- Node 74 -->
<circle cx="46" cy="13" r="2" style="fill:white;stroke:black;stroke-width:1" />
<!-- Node 75 -->
<circle cx="49" cy="11" r="2" style="fill:white;stroke:black;stroke-width:1" />
<!-- Node 76 -->
<circle cx="49" cy="42" r="2" style="fill:white;stroke:black;stroke-width:1" />
<!-- Node 77 -->
<circle cx="53" cy="43" r="2" style="fill:white;stroke:black;stroke-width:1" />
<!-- Node 78 -->
<circle cx="61" cy="52" r="2" style="fill:white;stroke:black;stroke-width:1" />
<!-- Node 79 -->
<circle cx="57" cy="48" r="2" style="fill:white;stroke:black;stroke-width:1" />
<!-- Node 80 -->
<circle cx="56" cy="37" r="2" style="fill:white;stroke:black;stroke-width:1" />
<!-- Node 81 -->
<circle cx="55" cy="54" r="2" style="fill:white;stroke:black;stroke-width:1" />
<!-- Node 82 -->
<circle cx="15" cy="47" r="2" style="fill:white;stroke:black;stroke-width:1" />
<!-- Node 83 -->
<circle cx="14" cy="37" r="2" style="fill:white;stroke:black;stroke-width:1" />
<!-- Node 84 -->
<circle cx="11" cy="31" r="2" style="fill:white;stroke:black;stroke-width:1" />
<!-- Node 85 -->
<circle cx="16" cy="22" r="2" style="fill:white;stroke:black;stroke-width:1" />
<!-- Node 86 -->
<circle cx="4" cy="18" r="2" style="fill:white;stroke:black;stroke-width:1" />
<!-- Node 87 -->
<circle cx="28" cy="18" r="2" style="fill:white;stroke:black;stroke-width:1" />
<!-- Node 88 -->
<circle cx="26" cy="52" r="2" style="fill:white;stroke:black;stroke-width:1" />
<!-- Node 89 -->
<circle cx="26" cy="35" r="2" style="fill:white;stroke:black;stroke-width:1" />
<!-- Node 90 -->
<circle cx="31" cy="67" r="2" style="fill:white;stroke:black;stroke-width:1" />
<!-- Node 91 -->
<circle cx="15" cy="19" r="2" style="fill:white;stroke:black;stroke-width:1" />
<!-- Node 92 -->
<circle cx="22" cy="22" r="2" style="fill:white;stroke:black;stroke-width:1" />
<!-- Node 93 -->
<circle cx="18" cy="24" r="2" style="fill:white;stroke:black;stroke-width:1" />
<!-- Node 94 -->
<circle cx="26" cy="27" r="2" style="fill:white;stroke:black;stroke-width:1" />
<!-- Node 95 -->
<circle cx="25" cy="24" r="2" style="fill:white;stroke:black;stroke-width:1" />
<!-- Node 96 -->
<circle cx="22" cy="27" r="2" style="fill:white;stroke:black;stroke-width:1" />
<!-- Node 97 -->
<circle cx="25" cy="21" r="2" style="fill:white;stroke:black;stroke-width:1" />
<!-- Node 98 -->
<circle cx="19" cy="21" r="2" style="fill:white;stroke:black;stroke-width:1" />
<!-- Node 99 -->
<circle cx="20" cy="26" r="2" style="fill:white;stroke:black;stroke-width:1" />
<!-- Node 100 -->
<circle cx="18" cy="18" r="2" style="fill:white;stroke:black;stroke-width:1" />
			</g>
		</g>
	</g>
</svg>
