<?xml version="1.0" standalone="no"?>
<!DOCTYPE svg PUBLIC "-//W3C//DTD SVG 1.1//EN"
"http://www.w3.org/Graphics/SVG/1.1/DTD/svg11.dtd">

<svg width="100%" height="100%" version="1.1"
xmlns="http://www.w3.org/2000/svg">

		<g transform="translate(20,20)">
		<g transform="scale(13)">
			<g transform="translate(-27,-27)">
<!-- Route #0: 13 9 17 -->
<path d="M30 40
L58 48
L62 42
L61 33
Z" style="fill:none;stroke:#9b4f42;stroke-width:1"/>
<!-- Route #1: 4 7 -->
<path d="M30 40
L31 62
L52 41
Z" style="fill:none;stroke:#7ca506;stroke-width:1"/>
<!-- Route #2: 3 19 18 -->
<path d="M30 40
L52 64
L63 69
L62 63
Z" style="fill:none;stroke:#e7ade4;stroke-width:1"/>
<!-- Route #3: 21 20 6 -->
<path d="M30 40
L32 39
L45 35
L42 41
Z" style="fill:none;stroke:#8a693e;stroke-width:1"/>
<!-- Route #4: 8 16 -->
<path d="M30 40
L57 58
L38 46
Z" style="fill:none;stroke:#f622b8;stroke-width:1"/>
<!-- Route #5: 2 1 -->
<path d="M30 40
L49 49
L37 52
Z" style="fill:none;stroke:#4d7183;stroke-width:1"/>
<!-- Route #6: 10 12 15 11 -->
<path d="M30 40
L42 57
L43 67
L37 69
L27 68
Z" style="fill:none;stroke:#adf9f7;stroke-width:1"/>
<!-- Route #7: 5 14 22 -->
<path d="M30 40
L52 33
L58 27
L56 37
Z" style="fill:none;stroke:#9b3b12;stroke-width:1"/>
<!-- Node 0 -->
<circle cx="30" cy="40" r="2" style="fill:red;stroke:black;stroke-width:1" />
<!-- Node 1 -->
<circle cx="37" cy="52" r="2" style="fill:white;stroke:black;stroke-width:1" />
<!-- Node 2 -->
<circle cx="49" cy="49" r="2" style="fill:white;stroke:black;stroke-width:1" />
<!-- Node 3 -->
<circle cx="52" cy="64" r="2" style="fill:white;stroke:black;stroke-width:1" />
<!-- Node 4 -->
<circle cx="31" cy="62" r="2" style="fill:white;stroke:black;stroke-width:1" />
<!-- Node 5 -->
<circle cx="52" cy="33" r="2" style="fill:white;stroke:black;stroke-width:1" />
<!-- Node 6 -->
<circle cx="42" cy="41" r="2" style="fill:white;stroke:black;stroke-width:1" />
<!-- Node 7 -->
<circle cx="52" cy="41" r="2" style="fill:white;stroke:black;stroke-width:1" />
<!-- Node 8 -->
<circle cx="57" cy="58" r="2" style="fill:white;stroke:black;stroke-width:1" />
<!-- Node 9 -->
<circle cx="62" cy="42" r="2" style="fill:white;stroke:black;stroke-width:1" />
<!-- Node 10 -->
<circle cx="42" cy="57" r="2" style="fill:white;stroke:black;stroke-width:1" />
<!-- Node 11 -->
<circle cx="27" cy="68" r="2" style="fill:white;stroke:black;stroke-width:1" />
<!-- Node 12 -->
<circle cx="43" cy="67" r="2" style="fill:white;stroke:black;stroke-width:1" />
<!-- Node 13 -->
<circle cx="58" cy="48" r="2" style="fill:white;stroke:black;stroke-width:1" />
<!-- Node 14 -->
<circle cx="58" cy="27" r="2" style="fill:white;stroke:black;stroke-width:1" />
<!-- Node 15 -->
<circle cx="37" cy="69" r="2" style="fill:white;stroke:black;stroke-width:1" />
<!-- Node 16 -->
<circle cx="38" cy="46" r="2" style="fill:white;stroke:black;stroke-width:1" />
<!-- Node 17 -->
<circle cx="61" cy="33" r="2" style="fill:white;stroke:black;stroke-width:1" />
<!-- Node 18 -->
<circle cx="62" cy="63" r="2" style="fill:white;stroke:black;stroke-width:1" />
<!-- Node 19 -->
<circle cx="63" cy="69" r="2" style="fill:white;stroke:black;stroke-width:1" />
<!-- Node 20 -->
<circle cx="45" cy="35" r="2" style="fill:white;stroke:black;stroke-width:1" />
<!-- Node 21 -->
<circle cx="32" cy="39" r="2" style="fill:white;stroke:black;stroke-width:1" />
<!-- Node 22 -->
<circle cx="56" cy="37" r="2" style="fill:white;stroke:black;stroke-width:1" />
			</g>
		</g>
	</g>
</svg>
