<?xml version="1.0" standalone="no"?>
<!DOCTYPE svg PUBLIC "-//W3C//DTD SVG 1.1//EN"
"http://www.w3.org/Graphics/SVG/1.1/DTD/svg11.dtd">

<svg width="100%" height="100%" version="1.1"
xmlns="http://www.w3.org/2000/svg">

		<g transform="translate(20,20)">
		<g transform="scale(8)">
			<g transform="translate(-5,-6)">
<!-- Route #0: 12 37 44 15 33 39 10 5 -->
<path d="M30 40
L31 32
L32 22
L30 15
L36 16
L46 10
L59 15
L51 21
L40 30
Z" style="fill:none;stroke:#d2d5c1;stroke-width:1"/>
<!-- Route #1: 38 9 30 34 21 16 2 11 -->
<path d="M30 40
L45 35
L52 33
L58 27
L61 33
L62 42
L52 41
L49 49
L42 41
Z" style="fill:none;stroke:#549137;stroke-width:1"/>
<!-- Route #2: 8 31 28 3 36 35 20 29 22 1 32 -->
<path d="M30 40
L31 62
L37 69
L43 67
L52 64
L63 69
L62 63
L57 58
L58 48
L42 57
L37 52
L38 46
Z" style="fill:none;stroke:#6f2ae2;stroke-width:1"/>
<!-- Route #3: 18 13 41 19 40 42 17 4 -->
<path d="M30 40
L17 33
L5 25
L10 17
L13 13
L5 6
L21 10
L27 23
L20 26
Z" style="fill:none;stroke:#f78cd8;stroke-width:1"/>
<!-- Route #4: 6 14 25 24 43 23 7 26 27 -->
<path d="M30 40
L21 47
L12 42
L7 38
L8 52
L5 64
L16 57
L17 63
L27 68
L30 48
Z" style="fill:none;stroke:#20977b;stroke-width:1"/>
<!-- Node 0 -->
<circle cx="30" cy="40" r="2" style="fill:red;stroke:black;stroke-width:1" />
<!-- Node 1 -->
<circle cx="37" cy="52" r="2" style="fill:white;stroke:black;stroke-width:1" />
<!-- Node 2 -->
<circle cx="49" cy="49" r="2" style="fill:white;stroke:black;stroke-width:1" />
<!-- Node 3 -->
<circle cx="52" cy="64" r="2" style="fill:white;stroke:black;stroke-width:1" />
<!-- Node 4 -->
<circle cx="20" cy="26" r="2" style="fill:white;stroke:black;stroke-width:1" />
<!-- Node 5 -->
<circle cx="40" cy="30" r="2" style="fill:white;stroke:black;stroke-width:1" />
<!-- Node 6 -->
<circle cx="21" cy="47" r="2" style="fill:white;stroke:black;stroke-width:1" />
<!-- Node 7 -->
<circle cx="17" cy="63" r="2" style="fill:white;stroke:black;stroke-width:1" />
<!-- Node 8 -->
<circle cx="31" cy="62" r="2" style="fill:white;stroke:black;stroke-width:1" />
<!-- Node 9 -->
<circle cx="52" cy="33" r="2" style="fill:white;stroke:black;stroke-width:1" />
<!-- Node 10 -->
<circle cx="51" cy="21" r="2" style="fill:white;stroke:black;stroke-width:1" />
<!-- Node 11 -->
<circle cx="42" cy="41" r="2" style="fill:white;stroke:black;stroke-width:1" />
<!-- Node 12 -->
<circle cx="31" cy="32" r="2" style="fill:white;stroke:black;stroke-width:1" />
<!-- Node 13 -->
<circle cx="5" cy="25" r="2" style="fill:white;stroke:black;stroke-width:1" />
<!-- Node 14 -->
<circle cx="12" cy="42" r="2" style="fill:white;stroke:black;stroke-width:1" />
<!-- Node 15 -->
<circle cx="36" cy="16" r="2" style="fill:white;stroke:black;stroke-width:1" />
<!-- Node 16 -->
<circle cx="52" cy="41" r="2" style="fill:white;stroke:black;stroke-width:1" />
<!-- Node 17 -->
<circle cx="27" cy="23" r="2" style="fill:white;stroke:black;stroke-width:1" />
<!-- Node 18 -->
<circle cx="17" cy="33" r="2" style="fill:white;stroke:black;stroke-width:1" />
<!-- Node 19 -->
<circle cx="13" cy="13" r="2" style="fill:white;stroke:black;stroke-width:1" />
<!-- Node 20 -->
<circle cx="57" cy="58" r="2" style="fill:white;stroke:black;stroke-width:1" />
<!-- Node 21 -->
<circle cx="62" cy="42" r="2" style="fill:white;stroke:black;stroke-width:1" />
<!-- Node 22 -->
<circle cx="42" cy="57" r="2" style="fill:white;stroke:black;stroke-width:1" />
<!-- Node 23 -->
<circle cx="16" cy="57" r="2" style="fill:white;stroke:black;stroke-width:1" />
<!-- Node 24 -->
<circle cx="8" cy="52" r="2" style="fill:white;stroke:black;stroke-width:1" />
<!-- Node 25 -->
<circle cx="7" cy="38" r="2" style="fill:white;stroke:black;stroke-width:1" />
<!-- Node 26 -->
<circle cx="27" cy="68" r="2" style="fill:white;stroke:black;stroke-width:1" />
<!-- Node 27 -->
<circle cx="30" cy="48" r="2" style="fill:white;stroke:black;stroke-width:1" />
<!-- Node 28 -->
<circle cx="43" cy="67" r="2" style="fill:white;stroke:black;stroke-width:1" />
<!-- Node 29 -->
<circle cx="58" cy="48" r="2" style="fill:white;stroke:black;stroke-width:1" />
<!-- Node 30 -->
<circle cx="58" cy="27" r="2" style="fill:white;stroke:black;stroke-width:1" />
<!-- Node 31 -->
<circle cx="37" cy="69" r="2" style="fill:white;stroke:black;stroke-width:1" />
<!-- Node 32 -->
<circle cx="38" cy="46" r="2" style="fill:white;stroke:black;stroke-width:1" />
<!-- Node 33 -->
<circle cx="46" cy="10" r="2" style="fill:white;stroke:black;stroke-width:1" />
<!-- Node 34 -->
<circle cx="61" cy="33" r="2" style="fill:white;stroke:black;stroke-width:1" />
<!-- Node 35 -->
<circle cx="62" cy="63" r="2" style="fill:white;stroke:black;stroke-width:1" />
<!-- Node 36 -->
<circle cx="63" cy="69" r="2" style="fill:white;stroke:black;stroke-width:1" />
<!-- Node 37 -->
<circle cx="32" cy="22" r="2" style="fill:white;stroke:black;stroke-width:1" />
<!-- Node 38 -->
<circle cx="45" cy="35" r="2" style="fill:white;stroke:black;stroke-width:1" />
<!-- Node 39 -->
<circle cx="59" cy="15" r="2" style="fill:white;stroke:black;stroke-width:1" />
<!-- Node 40 -->
<circle cx="5" cy="6" r="2" style="fill:white;stroke:black;stroke-width:1" />
<!-- Node 41 -->
<circle cx="10" cy="17" r="2" style="fill:white;stroke:black;stroke-width:1" />
<!-- Node 42 -->
<circle cx="21" cy="10" r="2" style="fill:white;stroke:black;stroke-width:1" />
<!-- Node 43 -->
<circle cx="5" cy="64" r="2" style="fill:white;stroke:black;stroke-width:1" />
<!-- Node 44 -->
<circle cx="30" cy="15" r="2" style="fill:white;stroke:black;stroke-width:1" />
			</g>
		</g>
	</g>
</svg>
