<?xml version="1.0" standalone="no"?>
<!DOCTYPE svg PUBLIC "-//W3C//DTD SVG 1.1//EN"
"http://www.w3.org/Graphics/SVG/1.1/DTD/svg11.dtd">

<svg width="100%" height="100%" version="1.1"
xmlns="http://www.w3.org/2000/svg">

		<g transform="translate(20,20)">
		<g transform="scale(8)">
			<g transform="translate(-7,-10)">
<!-- Route #0: 3 44 32 50 18 25 9 40 -->
<path d="M40 40
L21 45
L21 48
L22 53
L15 56
L9 56
L17 64
L26 59
L30 50
Z" style="fill:none;stroke:#baba64;stroke-width:1"/>
<!-- Route #1: 27 15 20 37 36 5 29 45 4 -->
<path d="M40 40
L55 34
L62 24
L66 14
L60 15
L54 10
L55 20
L52 26
L50 30
L45 35
Z" style="fill:none;stroke:#ce6e6b;stroke-width:1"/>
<!-- Route #2: 46 8 35 14 19 54 13 52 34 -->
<path d="M40 40
L51 42
L55 45
L55 50
L62 57
L62 48
L67 41
L62 35
L54 38
L50 40
Z" style="fill:none;stroke:#d8739f;stroke-width:1"/>
<!-- Route #3: 51 16 49 24 23 43 41 42 22 1 33 -->
<path d="M40 40
L29 39
L21 36
L12 38
L7 43
L11 28
L16 19
L12 17
L15 14
L26 13
L22 22
L26 29
Z" style="fill:none;stroke:#ea4457;stroke-width:1"/>
<!-- Route #4: 39 31 10 38 11 53 7 -->
<path d="M40 40
L30 60
L31 76
L40 66
L47 66
L55 65
L55 57
L50 50
Z" style="fill:none;stroke:#adf866;stroke-width:1"/>
<!-- Route #5: 17 12 26 -->
<path d="M40 40
L33 44
L35 51
L41 46
Z" style="fill:none;stroke:#bf6691;stroke-width:1"/>
<!-- Route #6: 6 2 28 21 47 48 30 -->
<path d="M40 40
L33 34
L36 26
L35 16
L44 13
L50 15
L48 21
L43 26
Z" style="fill:none;stroke:#fe97e1;stroke-width:1"/>
<!-- Node 0 -->
<circle cx="40" cy="40" r="2" style="fill:red;stroke:black;stroke-width:1" />
<!-- Node 1 -->
<circle cx="22" cy="22" r="2" style="fill:white;stroke:black;stroke-width:1" />
<!-- Node 2 -->
<circle cx="36" cy="26" r="2" style="fill:white;stroke:black;stroke-width:1" />
<!-- Node 3 -->
<circle cx="21" cy="45" r="2" style="fill:white;stroke:black;stroke-width:1" />
<!-- Node 4 -->
<circle cx="45" cy="35" r="2" style="fill:white;stroke:black;stroke-width:1" />
<!-- Node 5 -->
<circle cx="55" cy="20" r="2" style="fill:white;stroke:black;stroke-width:1" />
<!-- Node 6 -->
<circle cx="33" cy="34" r="2" style="fill:white;stroke:black;stroke-width:1" />
<!-- Node 7 -->
<circle cx="50" cy="50" r="2" style="fill:white;stroke:black;stroke-width:1" />
<!-- Node 8 -->
<circle cx="55" cy="45" r="2" style="fill:white;stroke:black;stroke-width:1" />
<!-- Node 9 -->
<circle cx="26" cy="59" r="2" style="fill:white;stroke:black;stroke-width:1" />
<!-- Node 10 -->
<circle cx="40" cy="66" r="2" style="fill:white;stroke:black;stroke-width:1" />
<!-- Node 11 -->
<circle cx="55" cy="65" r="2" style="fill:white;stroke:black;stroke-width:1" />
<!-- Node 12 -->
<circle cx="35" cy="51" r="2" style="fill:white;stroke:black;stroke-width:1" />
<!-- Node 13 -->
<circle cx="62" cy="35" r="2" style="fill:white;stroke:black;stroke-width:1" />
<!-- Node 14 -->
<circle cx="62" cy="57" r="2" style="fill:white;stroke:black;stroke-width:1" />
<!-- Node 15 -->
<circle cx="62" cy="24" r="2" style="fill:white;stroke:black;stroke-width:1" />
<!-- Node 16 -->
<circle cx="21" cy="36" r="2" style="fill:white;stroke:black;stroke-width:1" />
<!-- Node 17 -->
<circle cx="33" cy="44" r="2" style="fill:white;stroke:black;stroke-width:1" />
<!-- Node 18 -->
<circle cx="9" cy="56" r="2" style="fill:white;stroke:black;stroke-width:1" />
<!-- Node 19 -->
<circle cx="62" cy="48" r="2" style="fill:white;stroke:black;stroke-width:1" />
<!-- Node 20 -->
<circle cx="66" cy="14" r="2" style="fill:white;stroke:black;stroke-width:1" />
<!-- Node 21 -->
<circle cx="44" cy="13" r="2" style="fill:white;stroke:black;stroke-width:1" />
<!-- Node 22 -->
<circle cx="26" cy="13" r="2" style="fill:white;stroke:black;stroke-width:1" />
<!-- Node 23 -->
<circle cx="11" cy="28" r="2" style="fill:white;stroke:black;stroke-width:1" />
<!-- Node 24 -->
<circle cx="7" cy="43" r="2" style="fill:white;stroke:black;stroke-width:1" />
<!-- Node 25 -->
<circle cx="17" cy="64" r="2" style="fill:white;stroke:black;stroke-width:1" />
<!-- Node 26 -->
<circle cx="41" cy="46" r="2" style="fill:white;stroke:black;stroke-width:1" />
<!-- Node 27 -->
<circle cx="55" cy="34" r="2" style="fill:white;stroke:black;stroke-width:1" />
<!-- Node 28 -->
<circle cx="35" cy="16" r="2" style="fill:white;stroke:black;stroke-width:1" />
<!-- Node 29 -->
<circle cx="52" cy="26" r="2" style="fill:white;stroke:black;stroke-width:1" />
<!-- Node 30 -->
<circle cx="43" cy="26" r="2" style="fill:white;stroke:black;stroke-width:1" />
<!-- Node 31 -->
<circle cx="31" cy="76" r="2" style="fill:white;stroke:black;stroke-width:1" />
<!-- Node 32 -->
<circle cx="22" cy="53" r="2" style="fill:white;stroke:black;stroke-width:1" />
<!-- Node 33 -->
<circle cx="26" cy="29" r="2" style="fill:white;stroke:black;stroke-width:1" />
<!-- Node 34 -->
<circle cx="50" cy="40" r="2" style="fill:white;stroke:black;stroke-width:1" />
<!-- Node 35 -->
<circle cx="55" cy="50" r="2" style="fill:white;stroke:black;stroke-width:1" />
<!-- Node 36 -->
<circle cx="54" cy="10" r="2" style="fill:white;stroke:black;stroke-width:1" />
<!-- Node 37 -->
<circle cx="60" cy="15" r="2" style="fill:white;stroke:black;stroke-width:1" />
<!-- Node 38 -->
<circle cx="47" cy="66" r="2" style="fill:white;stroke:black;stroke-width:1" />
<!-- Node 39 -->
<circle cx="30" cy="60" r="2" style="fill:white;stroke:black;stroke-width:1" />
<!-- Node 40 -->
<circle cx="30" cy="50" r="2" style="fill:white;stroke:black;stroke-width:1" />
<!-- Node 41 -->
<circle cx="12" cy="17" r="2" style="fill:white;stroke:black;stroke-width:1" />
<!-- Node 42 -->
<circle cx="15" cy="14" r="2" style="fill:white;stroke:black;stroke-width:1" />
<!-- Node 43 -->
<circle cx="16" cy="19" r="2" style="fill:white;stroke:black;stroke-width:1" />
<!-- Node 44 -->
<circle cx="21" cy="48" r="2" style="fill:white;stroke:black;stroke-width:1" />
<!-- Node 45 -->
<circle cx="50" cy="30" r="2" style="fill:white;stroke:black;stroke-width:1" />
<!-- Node 46 -->
<circle cx="51" cy="42" r="2" style="fill:white;stroke:black;stroke-width:1" />
<!-- Node 47 -->
<circle cx="50" cy="15" r="2" style="fill:white;stroke:black;stroke-width:1" />
<!-- Node 48 -->
<circle cx="48" cy="21" r="2" style="fill:white;stroke:black;stroke-width:1" />
<!-- Node 49 -->
<circle cx="12" cy="38" r="2" style="fill:white;stroke:black;stroke-width:1" />
<!-- Node 50 -->
<circle cx="15" cy="56" r="2" style="fill:white;stroke:black;stroke-width:1" />
<!-- Node 51 -->
<circle cx="29" cy="39" r="2" style="fill:white;stroke:black;stroke-width:1" />
<!-- Node 52 -->
<circle cx="54" cy="38" r="2" style="fill:white;stroke:black;stroke-width:1" />
<!-- Node 53 -->
<circle cx="55" cy="57" r="2" style="fill:white;stroke:black;stroke-width:1" />
<!-- Node 54 -->
<circle cx="67" cy="41" r="2" style="fill:white;stroke:black;stroke-width:1" />
			</g>
		</g>
	</g>
</svg>
