<?xml version="1.0" standalone="no"?>
<!DOCTYPE svg PUBLIC "-//W3C//DTD SVG 1.1//EN"
"http://www.w3.org/Graphics/SVG/1.1/DTD/svg11.dtd">

<svg width="100%" height="100%" version="1.1"
xmlns="http://www.w3.org/2000/svg">

		<g transform="translate(20,20)">
		<g transform="scale(8)">
			<g transform="translate(-7,-10)">
<!-- Route #0: 26 7 11 14 19 35 8 -->
<path d="M40 40
L41 46
L50 50
L55 65
L62 57
L62 48
L55 50
L55 45
Z" style="fill:none;stroke:#eb940e;stroke-width:1"/>
<!-- Route #1: 40 32 18 24 44 3 17 -->
<path d="M40 40
L30 50
L22 53
L9 56
L7 43
L21 48
L21 45
L33 44
Z" style="fill:none;stroke:#6954bd;stroke-width:1"/>
<!-- Route #2: 45 29 5 36 37 20 15 13 27 -->
<path d="M40 40
L50 30
L52 26
L55 20
L54 10
L60 15
L66 14
L62 24
L62 35
L55 34
Z" style="fill:none;stroke:#e4e344;stroke-width:1"/>
<!-- Route #3: 30 48 47 21 28 2 -->
<path d="M40 40
L43 26
L48 21
L50 15
L44 13
L35 16
L36 26
Z" style="fill:none;stroke:#f792c7;stroke-width:1"/>
<!-- Route #4: 38 10 31 25 9 39 12 -->
<path d="M40 40
L47 66
L40 66
L31 76
L17 64
L26 59
L30 60
L35 51
Z" style="fill:none;stroke:#3271d8;stroke-width:1"/>
<!-- Route #5: 46 34 4 -->
<path d="M40 40
L51 42
L50 40
L45 35
Z" style="fill:none;stroke:#417755;stroke-width:1"/>
<!-- Route #6: 16 49 23 43 41 42 22 1 33 6 -->
<path d="M40 40
L21 36
L12 38
L11 28
L16 19
L12 17
L15 14
L26 13
L22 22
L26 29
L33 34
Z" style="fill:none;stroke:#867129;stroke-width:1"/>
<!-- Node 0 -->
<circle cx="40" cy="40" r="2" style="fill:red;stroke:black;stroke-width:1" />
<!-- Node 1 -->
<circle cx="22" cy="22" r="2" style="fill:white;stroke:black;stroke-width:1" />
<!-- Node 2 -->
<circle cx="36" cy="26" r="2" style="fill:white;stroke:black;stroke-width:1" />
<!-- Node 3 -->
<circle cx="21" cy="45" r="2" style="fill:white;stroke:black;stroke-width:1" />
<!-- Node 4 -->
<circle cx="45" cy="35" r="2" style="fill:white;stroke:black;stroke-width:1" />
<!-- Node 5 -->
<circle cx="55" cy="20" r="2" style="fill:white;stroke:black;stroke-width:1" />
<!-- Node 6 -->
<circle cx="33" cy="34" r="2" style="fill:white;stroke:black;stroke-width:1" />
<!-- Node 7 -->
<circle cx="50" cy="50" r="2" style="fill:white;stroke:black;stroke-width:1" />
<!-- Node 8 -->
<circle cx="55" cy="45" r="2" style="fill:white;stroke:black;stroke-width:1" />
<!-- Node 9 -->
<circle cx="26" cy="59" r="2" style="fill:white;stroke:black;stroke-width:1" />
<!-- Node 10 -->
<circle cx="40" cy="66" r="2" style="fill:white;stroke:black;stroke-width:1" />
<!-- Node 11 -->
<circle cx="55" cy="65" r="2" style="fill:white;stroke:black;stroke-width:1" />
<!-- Node 12 -->
<circle cx="35" cy="51" r="2" style="fill:white;stroke:black;stroke-width:1" />
<!-- Node 13 -->
<circle cx="62" cy="35" r="2" style="fill:white;stroke:black;stroke-width:1" />
<!-- Node 14 -->
<circle cx="62" cy="57" r="2" style="fill:white;stroke:black;stroke-width:1" />
<!-- Node 15 -->
<circle cx="62" cy="24" r="2" style="fill:white;stroke:black;stroke-width:1" />
<!-- Node 16 -->
<circle cx="21" cy="36" r="2" style="fill:white;stroke:black;stroke-width:1" />
<!-- Node 17 -->
<circle cx="33" cy="44" r="2" style="fill:white;stroke:black;stroke-width:1" />
<!-- Node 18 -->
<circle cx="9" cy="56" r="2" style="fill:white;stroke:black;stroke-width:1" />
<!-- Node 19 -->
<circle cx="62" cy="48" r="2" style="fill:white;stroke:black;stroke-width:1" />
<!-- Node 20 -->
<circle cx="66" cy="14" r="2" style="fill:white;stroke:black;stroke-width:1" />
<!-- Node 21 -->
<circle cx="44" cy="13" r="2" style="fill:white;stroke:black;stroke-width:1" />
<!-- Node 22 -->
<circle cx="26" cy="13" r="2" style="fill:white;stroke:black;stroke-width:1" />
<!-- Node 23 -->
<circle cx="11" cy="28" r="2" style="fill:white;stroke:black;stroke-width:1" />
<!-- Node 24 -->
<circle cx="7" cy="43" r="2" style="fill:white;stroke:black;stroke-width:1" />
<!-- Node 25 -->
<circle cx="17" cy="64" r="2" style="fill:white;stroke:black;stroke-width:1" />
<!-- Node 26 -->
<circle cx="41" cy="46" r="2" style="fill:white;stroke:black;stroke-width:1" />
<!-- Node 27 -->
<circle cx="55" cy="34" r="2" style="fill:white;stroke:black;stroke-width:1" />
<!-- Node 28 -->
<circle cx="35" cy="16" r="2" style="fill:white;stroke:black;stroke-width:1" />
<!-- Node 29 -->
<circle cx="52" cy="26" r="2" style="fill:white;stroke:black;stroke-width:1" />
<!-- Node 30 -->
<circle cx="43" cy="26" r="2" style="fill:white;stroke:black;stroke-width:1" />
<!-- Node 31 -->
<circle cx="31" cy="76" r="2" style="fill:white;stroke:black;stroke-width:1" />
<!-- Node 32 -->
<circle cx="22" cy="53" r="2" style="fill:white;stroke:black;stroke-width:1" />
<!-- Node 33 -->
<circle cx="26" cy="29" r="2" style="fill:white;stroke:black;stroke-width:1" />
<!-- Node 34 -->
<circle cx="50" cy="40" r="2" style="fill:white;stroke:black;stroke-width:1" />
<!-- Node 35 -->
<circle cx="55" cy="50" r="2" style="fill:white;stroke:black;stroke-width:1" />
<!-- Node 36 -->
<circle cx="54" cy="10" r="2" style="fill:white;stroke:black;stroke-width:1" />
<!-- Node 37 -->
<circle cx="60" cy="15" r="2" style="fill:white;stroke:black;stroke-width:1" />
<!-- Node 38 -->
<circle cx="47" cy="66" r="2" style="fill:white;stroke:black;stroke-width:1" />
<!-- Node 39 -->
<circle cx="30" cy="60" r="2" style="fill:white;stroke:black;stroke-width:1" />
<!-- Node 40 -->
<circle cx="30" cy="50" r="2" style="fill:white;stroke:black;stroke-width:1" />
<!-- Node 41 -->
<circle cx="12" cy="17" r="2" style="fill:white;stroke:black;stroke-width:1" />
<!-- Node 42 -->
<circle cx="15" cy="14" r="2" style="fill:white;stroke:black;stroke-width:1" />
<!-- Node 43 -->
<circle cx="16" cy="19" r="2" style="fill:white;stroke:black;stroke-width:1" />
<!-- Node 44 -->
<circle cx="21" cy="48" r="2" style="fill:white;stroke:black;stroke-width:1" />
<!-- Node 45 -->
<circle cx="50" cy="30" r="2" style="fill:white;stroke:black;stroke-width:1" />
<!-- Node 46 -->
<circle cx="51" cy="42" r="2" style="fill:white;stroke:black;stroke-width:1" />
<!-- Node 47 -->
<circle cx="50" cy="15" r="2" style="fill:white;stroke:black;stroke-width:1" />
<!-- Node 48 -->
<circle cx="48" cy="21" r="2" style="fill:white;stroke:black;stroke-width:1" />
<!-- Node 49 -->
<circle cx="12" cy="38" r="2" style="fill:white;stroke:black;stroke-width:1" />
			</g>
		</g>
	</g>
</svg>
