<?xml version="1.0" standalone="no"?>
<!DOCTYPE svg PUBLIC "-//W3C//DTD SVG 1.1//EN"
"http://www.w3.org/Graphics/SVG/1.1/DTD/svg11.dtd">

<svg width="100%" height="100%" version="1.1"
xmlns="http://www.w3.org/2000/svg"
xmlns:xlink="http://www.w3.org/1999/xlink">

	<g transform="translate(20,20)">
		<g transform="scale(8.000000)">
			<g transform="translate(-7,-10)">
			<title>P-n55-k8</title>
			<desc>(null)</desc>
<!-- Route #0: 26 -->
<path d="M40 40
L41 46
Z" style="fill:none;stroke:#39e1c3;stroke-width:0.875000"/>
<!-- Route #1: 45 29 5 37 20 15 13 54 19 8 -->
<path d="M40 40
L50 30
L52 26
L55 20
L60 15
L66 14
L62 24
L62 35
L67 41
L62 48
L55 45
Z" style="fill:none;stroke:#9efe1b;stroke-width:0.875000"/>
<!-- Route #2: 6 33 1 22 42 41 43 23 16 -->
<path d="M40 40
L33 34
L26 29
L22 22
L26 13
L15 14
L12 17
L16 19
L11 28
L21 36
Z" style="fill:none;stroke:#49e0e4;stroke-width:0.875000"/>
<!-- Route #3: 17 3 44 32 9 39 40 -->
<path d="M40 40
L33 44
L21 45
L21 48
L22 53
L26 59
L30 60
L30 50
Z" style="fill:none;stroke:#ee0c6f;stroke-width:0.875000"/>
<!-- Route #4: 12 10 31 25 50 18 24 49 51 -->
<path d="M40 40
L35 51
L40 66
L31 76
L17 64
L15 56
L9 56
L7 43
L12 38
L29 39
Z" style="fill:none;stroke:#6c6c6e;stroke-width:0.875000"/>
<!-- Route #5: 38 11 14 53 35 7 -->
<path d="M40 40
L47 66
L55 65
L62 57
L55 57
L55 50
L50 50
Z" style="fill:none;stroke:#46439e;stroke-width:0.875000"/>
<!-- Route #6: 2 28 21 36 47 48 30 -->
<path d="M40 40
L36 26
L35 16
L44 13
L54 10
L50 15
L48 21
L43 26
Z" style="fill:none;stroke:#31d424;stroke-width:0.875000"/>
<!-- Route #7: 4 27 52 46 34 -->
<path d="M40 40
L45 35
L55 34
L54 38
L51 42
L50 40
Z" style="fill:none;stroke:#8b4991;stroke-width:0.875000"/>
<!-- Node 0 -->
<circle cx="40" cy="40" r="1.750000" style="fill:red;stroke:black;stroke-width:0.875000" />
<!-- Node 1 -->
<circle cx="22" cy="22" r="1.750000" style="fill:white;stroke:black;stroke-width:0.875000" />
<!-- Node 2 -->
<circle cx="36" cy="26" r="1.750000" style="fill:white;stroke:black;stroke-width:0.875000" />
<!-- Node 3 -->
<circle cx="21" cy="45" r="1.750000" style="fill:white;stroke:black;stroke-width:0.875000" />
<!-- Node 4 -->
<circle cx="45" cy="35" r="1.750000" style="fill:white;stroke:black;stroke-width:0.875000" />
<!-- Node 5 -->
<circle cx="55" cy="20" r="1.750000" style="fill:white;stroke:black;stroke-width:0.875000" />
<!-- Node 6 -->
<circle cx="33" cy="34" r="1.750000" style="fill:white;stroke:black;stroke-width:0.875000" />
<!-- Node 7 -->
<circle cx="50" cy="50" r="1.750000" style="fill:white;stroke:black;stroke-width:0.875000" />
<!-- Node 8 -->
<circle cx="55" cy="45" r="1.750000" style="fill:white;stroke:black;stroke-width:0.875000" />
<!-- Node 9 -->
<circle cx="26" cy="59" r="1.750000" style="fill:white;stroke:black;stroke-width:0.875000" />
<!-- Node 10 -->
<circle cx="40" cy="66" r="1.750000" style="fill:white;stroke:black;stroke-width:0.875000" />
<!-- Node 11 -->
<circle cx="55" cy="65" r="1.750000" style="fill:white;stroke:black;stroke-width:0.875000" />
<!-- Node 12 -->
<circle cx="35" cy="51" r="1.750000" style="fill:white;stroke:black;stroke-width:0.875000" />
<!-- Node 13 -->
<circle cx="62" cy="35" r="1.750000" style="fill:white;stroke:black;stroke-width:0.875000" />
<!-- Node 14 -->
<circle cx="62" cy="57" r="1.750000" style="fill:white;stroke:black;stroke-width:0.875000" />
<!-- Node 15 -->
<circle cx="62" cy="24" r="1.750000" style="fill:white;stroke:black;stroke-width:0.875000" />
<!-- Node 16 -->
<circle cx="21" cy="36" r="1.750000" style="fill:white;stroke:black;stroke-width:0.875000" />
<!-- Node 17 -->
<circle cx="33" cy="44" r="1.750000" style="fill:white;stroke:black;stroke-width:0.875000" />
<!-- Node 18 -->
<circle cx="9" cy="56" r="1.750000" style="fill:white;stroke:black;stroke-width:0.875000" />
<!-- Node 19 -->
<circle cx="62" cy="48" r="1.750000" style="fill:white;stroke:black;stroke-width:0.875000" />
<!-- Node 20 -->
<circle cx="66" cy="14" r="1.750000" style="fill:white;stroke:black;stroke-width:0.875000" />
<!-- Node 21 -->
<circle cx="44" cy="13" r="1.750000" style="fill:white;stroke:black;stroke-width:0.875000" />
<!-- Node 22 -->
<circle cx="26" cy="13" r="1.750000" style="fill:white;stroke:black;stroke-width:0.875000" />
<!-- Node 23 -->
<circle cx="11" cy="28" r="1.750000" style="fill:white;stroke:black;stroke-width:0.875000" />
<!-- Node 24 -->
<circle cx="7" cy="43" r="1.750000" style="fill:white;stroke:black;stroke-width:0.875000" />
<!-- Node 25 -->
<circle cx="17" cy="64" r="1.750000" style="fill:white;stroke:black;stroke-width:0.875000" />
<!-- Node 26 -->
<circle cx="41" cy="46" r="1.750000" style="fill:white;stroke:black;stroke-width:0.875000" />
<!-- Node 27 -->
<circle cx="55" cy="34" r="1.750000" style="fill:white;stroke:black;stroke-width:0.875000" />
<!-- Node 28 -->
<circle cx="35" cy="16" r="1.750000" style="fill:white;stroke:black;stroke-width:0.875000" />
<!-- Node 29 -->
<circle cx="52" cy="26" r="1.750000" style="fill:white;stroke:black;stroke-width:0.875000" />
<!-- Node 30 -->
<circle cx="43" cy="26" r="1.750000" style="fill:white;stroke:black;stroke-width:0.875000" />
<!-- Node 31 -->
<circle cx="31" cy="76" r="1.750000" style="fill:white;stroke:black;stroke-width:0.875000" />
<!-- Node 32 -->
<circle cx="22" cy="53" r="1.750000" style="fill:white;stroke:black;stroke-width:0.875000" />
<!-- Node 33 -->
<circle cx="26" cy="29" r="1.750000" style="fill:white;stroke:black;stroke-width:0.875000" />
<!-- Node 34 -->
<circle cx="50" cy="40" r="1.750000" style="fill:white;stroke:black;stroke-width:0.875000" />
<!-- Node 35 -->
<circle cx="55" cy="50" r="1.750000" style="fill:white;stroke:black;stroke-width:0.875000" />
<!-- Node 36 -->
<circle cx="54" cy="10" r="1.750000" style="fill:white;stroke:black;stroke-width:0.875000" />
<!-- Node 37 -->
<circle cx="60" cy="15" r="1.750000" style="fill:white;stroke:black;stroke-width:0.875000" />
<!-- Node 38 -->
<circle cx="47" cy="66" r="1.750000" style="fill:white;stroke:black;stroke-width:0.875000" />
<!-- Node 39 -->
<circle cx="30" cy="60" r="1.750000" style="fill:white;stroke:black;stroke-width:0.875000" />
<!-- Node 40 -->
<circle cx="30" cy="50" r="1.750000" style="fill:white;stroke:black;stroke-width:0.875000" />
<!-- Node 41 -->
<circle cx="12" cy="17" r="1.750000" style="fill:white;stroke:black;stroke-width:0.875000" />
<!-- Node 42 -->
<circle cx="15" cy="14" r="1.750000" style="fill:white;stroke:black;stroke-width:0.875000" />
<!-- Node 43 -->
<circle cx="16" cy="19" r="1.750000" style="fill:white;stroke:black;stroke-width:0.875000" />
<!-- Node 44 -->
<circle cx="21" cy="48" r="1.750000" style="fill:white;stroke:black;stroke-width:0.875000" />
<!-- Node 45 -->
<circle cx="50" cy="30" r="1.750000" style="fill:white;stroke:black;stroke-width:0.875000" />
<!-- Node 46 -->
<circle cx="51" cy="42" r="1.750000" style="fill:white;stroke:black;stroke-width:0.875000" />
<!-- Node 47 -->
<circle cx="50" cy="15" r="1.750000" style="fill:white;stroke:black;stroke-width:0.875000" />
<!-- Node 48 -->
<circle cx="48" cy="21" r="1.750000" style="fill:white;stroke:black;stroke-width:0.875000" />
<!-- Node 49 -->
<circle cx="12" cy="38" r="1.750000" style="fill:white;stroke:black;stroke-width:0.875000" />
<!-- Node 50 -->
<circle cx="15" cy="56" r="1.750000" style="fill:white;stroke:black;stroke-width:0.875000" />
<!-- Node 51 -->
<circle cx="29" cy="39" r="1.750000" style="fill:white;stroke:black;stroke-width:0.875000" />
<!-- Node 52 -->
<circle cx="54" cy="38" r="1.750000" style="fill:white;stroke:black;stroke-width:0.875000" />
<!-- Node 53 -->
<circle cx="55" cy="57" r="1.750000" style="fill:white;stroke:black;stroke-width:0.875000" />
<!-- Node 54 -->
<circle cx="67" cy="41" r="1.750000" style="fill:white;stroke:black;stroke-width:0.875000" />
			</g>
		</g>
	</g>
</svg>
