<?xml version="1.0" standalone="no"?>
<!DOCTYPE svg PUBLIC "-//W3C//DTD SVG 1.1//EN"
"http://www.w3.org/Graphics/SVG/1.1/DTD/svg11.dtd">

<svg width="100%" height="100%" version="1.1"
xmlns="http://www.w3.org/2000/svg">

		<g transform="translate(20,20)">
		<g transform="scale(7)">
			<g transform="translate(-6,-4)">
<!-- Route #0: 51 33 73 1 63 16 49 23 56 41 43 42 64 22 62 2 6 -->
<path d="M40 40
L29 39
L26 29
L27 24
L22 22
L20 30
L21 36
L12 38
L11 28
L6 25
L12 17
L16 19
L15 14
L15 5
L26 13
L30 20
L36 26
L33 34
Z" style="fill:none;stroke:#5002ad;stroke-width:1"/>
<!-- Route #1: 67 34 46 8 19 54 13 57 27 52 45 4 75 -->
<path d="M40 40
L45 42
L50 40
L51 42
L55 45
L62 48
L67 41
L62 35
L65 27
L55 34
L54 38
L50 30
L45 35
L40 37
Z" style="fill:none;stroke:#3acaf5;stroke-width:1"/>
<!-- Route #2: 17 40 32 44 3 24 18 50 25 55 31 9 39 72 12 -->
<path d="M40 40
L33 44
L30 50
L22 53
L21 48
L21 45
L7 43
L9 56
L15 56
L17 64
L10 70
L31 76
L26 59
L30 60
L35 60
L35 51
Z" style="fill:none;stroke:#6a9274;stroke-width:1"/>
<!-- Route #3: 7 35 53 14 59 66 11 65 38 10 58 26 -->
<path d="M40 40
L50 50
L55 50
L55 57
L62 57
L70 64
L57 72
L55 65
L50 70
L47 66
L40 66
L40 60
L41 46
Z" style="fill:none;stroke:#60f177;stroke-width:1"/>
<!-- Route #4: 29 48 5 15 37 20 70 60 71 69 36 47 21 61 28 74 30 68 -->
<path d="M40 40
L52 26
L48 21
L55 20
L62 24
L60 15
L66 14
L66 8
L64 4
L59 5
L50 4
L54 10
L50 15
L44 13
L36 6
L35 16
L40 20
L43 26
L38 33
Z" style="fill:none;stroke:#6d69b7;stroke-width:1"/>
<!-- Node 0 -->
<circle cx="40" cy="40" r="2" style="fill:red;stroke:black;stroke-width:1" />
<!-- Node 1 -->
<circle cx="22" cy="22" r="2" style="fill:white;stroke:black;stroke-width:1" />
<!-- Node 2 -->
<circle cx="36" cy="26" r="2" style="fill:white;stroke:black;stroke-width:1" />
<!-- Node 3 -->
<circle cx="21" cy="45" r="2" style="fill:white;stroke:black;stroke-width:1" />
<!-- Node 4 -->
<circle cx="45" cy="35" r="2" style="fill:white;stroke:black;stroke-width:1" />
<!-- Node 5 -->
<circle cx="55" cy="20" r="2" style="fill:white;stroke:black;stroke-width:1" />
<!-- Node 6 -->
<circle cx="33" cy="34" r="2" style="fill:white;stroke:black;stroke-width:1" />
<!-- Node 7 -->
<circle cx="50" cy="50" r="2" style="fill:white;stroke:black;stroke-width:1" />
<!-- Node 8 -->
<circle cx="55" cy="45" r="2" style="fill:white;stroke:black;stroke-width:1" />
<!-- Node 9 -->
<circle cx="26" cy="59" r="2" style="fill:white;stroke:black;stroke-width:1" />
<!-- Node 10 -->
<circle cx="40" cy="66" r="2" style="fill:white;stroke:black;stroke-width:1" />
<!-- Node 11 -->
<circle cx="55" cy="65" r="2" style="fill:white;stroke:black;stroke-width:1" />
<!-- Node 12 -->
<circle cx="35" cy="51" r="2" style="fill:white;stroke:black;stroke-width:1" />
<!-- Node 13 -->
<circle cx="62" cy="35" r="2" style="fill:white;stroke:black;stroke-width:1" />
<!-- Node 14 -->
<circle cx="62" cy="57" r="2" style="fill:white;stroke:black;stroke-width:1" />
<!-- Node 15 -->
<circle cx="62" cy="24" r="2" style="fill:white;stroke:black;stroke-width:1" />
<!-- Node 16 -->
<circle cx="21" cy="36" r="2" style="fill:white;stroke:black;stroke-width:1" />
<!-- Node 17 -->
<circle cx="33" cy="44" r="2" style="fill:white;stroke:black;stroke-width:1" />
<!-- Node 18 -->
<circle cx="9" cy="56" r="2" style="fill:white;stroke:black;stroke-width:1" />
<!-- Node 19 -->
<circle cx="62" cy="48" r="2" style="fill:white;stroke:black;stroke-width:1" />
<!-- Node 20 -->
<circle cx="66" cy="14" r="2" style="fill:white;stroke:black;stroke-width:1" />
<!-- Node 21 -->
<circle cx="44" cy="13" r="2" style="fill:white;stroke:black;stroke-width:1" />
<!-- Node 22 -->
<circle cx="26" cy="13" r="2" style="fill:white;stroke:black;stroke-width:1" />
<!-- Node 23 -->
<circle cx="11" cy="28" r="2" style="fill:white;stroke:black;stroke-width:1" />
<!-- Node 24 -->
<circle cx="7" cy="43" r="2" style="fill:white;stroke:black;stroke-width:1" />
<!-- Node 25 -->
<circle cx="17" cy="64" r="2" style="fill:white;stroke:black;stroke-width:1" />
<!-- Node 26 -->
<circle cx="41" cy="46" r="2" style="fill:white;stroke:black;stroke-width:1" />
<!-- Node 27 -->
<circle cx="55" cy="34" r="2" style="fill:white;stroke:black;stroke-width:1" />
<!-- Node 28 -->
<circle cx="35" cy="16" r="2" style="fill:white;stroke:black;stroke-width:1" />
<!-- Node 29 -->
<circle cx="52" cy="26" r="2" style="fill:white;stroke:black;stroke-width:1" />
<!-- Node 30 -->
<circle cx="43" cy="26" r="2" style="fill:white;stroke:black;stroke-width:1" />
<!-- Node 31 -->
<circle cx="31" cy="76" r="2" style="fill:white;stroke:black;stroke-width:1" />
<!-- Node 32 -->
<circle cx="22" cy="53" r="2" style="fill:white;stroke:black;stroke-width:1" />
<!-- Node 33 -->
<circle cx="26" cy="29" r="2" style="fill:white;stroke:black;stroke-width:1" />
<!-- Node 34 -->
<circle cx="50" cy="40" r="2" style="fill:white;stroke:black;stroke-width:1" />
<!-- Node 35 -->
<circle cx="55" cy="50" r="2" style="fill:white;stroke:black;stroke-width:1" />
<!-- Node 36 -->
<circle cx="54" cy="10" r="2" style="fill:white;stroke:black;stroke-width:1" />
<!-- Node 37 -->
<circle cx="60" cy="15" r="2" style="fill:white;stroke:black;stroke-width:1" />
<!-- Node 38 -->
<circle cx="47" cy="66" r="2" style="fill:white;stroke:black;stroke-width:1" />
<!-- Node 39 -->
<circle cx="30" cy="60" r="2" style="fill:white;stroke:black;stroke-width:1" />
<!-- Node 40 -->
<circle cx="30" cy="50" r="2" style="fill:white;stroke:black;stroke-width:1" />
<!-- Node 41 -->
<circle cx="12" cy="17" r="2" style="fill:white;stroke:black;stroke-width:1" />
<!-- Node 42 -->
<circle cx="15" cy="14" r="2" style="fill:white;stroke:black;stroke-width:1" />
<!-- Node 43 -->
<circle cx="16" cy="19" r="2" style="fill:white;stroke:black;stroke-width:1" />
<!-- Node 44 -->
<circle cx="21" cy="48" r="2" style="fill:white;stroke:black;stroke-width:1" />
<!-- Node 45 -->
<circle cx="50" cy="30" r="2" style="fill:white;stroke:black;stroke-width:1" />
<!-- Node 46 -->
<circle cx="51" cy="42" r="2" style="fill:white;stroke:black;stroke-width:1" />
<!-- Node 47 -->
<circle cx="50" cy="15" r="2" style="fill:white;stroke:black;stroke-width:1" />
<!-- Node 48 -->
<circle cx="48" cy="21" r="2" style="fill:white;stroke:black;stroke-width:1" />
<!-- Node 49 -->
<circle cx="12" cy="38" r="2" style="fill:white;stroke:black;stroke-width:1" />
<!-- Node 50 -->
<circle cx="15" cy="56" r="2" style="fill:white;stroke:black;stroke-width:1" />
<!-- Node 51 -->
<circle cx="29" cy="39" r="2" style="fill:white;stroke:black;stroke-width:1" />
<!-- Node 52 -->
<circle cx="54" cy="38" r="2" style="fill:white;stroke:black;stroke-width:1" />
<!-- Node 53 -->
<circle cx="55" cy="57" r="2" style="fill:white;stroke:black;stroke-width:1" />
<!-- Node 54 -->
<circle cx="67" cy="41" r="2" style="fill:white;stroke:black;stroke-width:1" />
<!-- Node 55 -->
<circle cx="10" cy="70" r="2" style="fill:white;stroke:black;stroke-width:1" />
<!-- Node 56 -->
<circle cx="6" cy="25" r="2" style="fill:white;stroke:black;stroke-width:1" />
<!-- Node 57 -->
<circle cx="65" cy="27" r="2" style="fill:white;stroke:black;stroke-width:1" />
<!-- Node 58 -->
<circle cx="40" cy="60" r="2" style="fill:white;stroke:black;stroke-width:1" />
<!-- Node 59 -->
<circle cx="70" cy="64" r="2" style="fill:white;stroke:black;stroke-width:1" />
<!-- Node 60 -->
<circle cx="64" cy="4" r="2" style="fill:white;stroke:black;stroke-width:1" />
<!-- Node 61 -->
<circle cx="36" cy="6" r="2" style="fill:white;stroke:black;stroke-width:1" />
<!-- Node 62 -->
<circle cx="30" cy="20" r="2" style="fill:white;stroke:black;stroke-width:1" />
<!-- Node 63 -->
<circle cx="20" cy="30" r="2" style="fill:white;stroke:black;stroke-width:1" />
<!-- Node 64 -->
<circle cx="15" cy="5" r="2" style="fill:white;stroke:black;stroke-width:1" />
<!-- Node 65 -->
<circle cx="50" cy="70" r="2" style="fill:white;stroke:black;stroke-width:1" />
<!-- Node 66 -->
<circle cx="57" cy="72" r="2" style="fill:white;stroke:black;stroke-width:1" />
<!-- Node 67 -->
<circle cx="45" cy="42" r="2" style="fill:white;stroke:black;stroke-width:1" />
<!-- Node 68 -->
<circle cx="38" cy="33" r="2" style="fill:white;stroke:black;stroke-width:1" />
<!-- Node 69 -->
<circle cx="50" cy="4" r="2" style="fill:white;stroke:black;stroke-width:1" />
<!-- Node 70 -->
<circle cx="66" cy="8" r="2" style="fill:white;stroke:black;stroke-width:1" />
<!-- Node 71 -->
<circle cx="59" cy="5" r="2" style="fill:white;stroke:black;stroke-width:1" />
<!-- Node 72 -->
<circle cx="35" cy="60" r="2" style="fill:white;stroke:black;stroke-width:1" />
<!-- Node 73 -->
<circle cx="27" cy="24" r="2" style="fill:white;stroke:black;stroke-width:1" />
<!-- Node 74 -->
<circle cx="40" cy="20" r="2" style="fill:white;stroke:black;stroke-width:1" />
<!-- Node 75 -->
<circle cx="40" cy="37" r="2" style="fill:white;stroke:black;stroke-width:1" />
			</g>
		</g>
	</g>
</svg>
